# Blender 3.3.1
# www.blender.org
mtllib cuernolow.mtl
o BezierCurve
v 0.469456 0.111430 -1.679055
v 0.813300 -0.232334 -1.686499
v 0.939156 -0.701923 -1.696667
v 0.813301 -1.171513 -1.706836
v 0.469457 -1.515277 -1.714280
v -0.000243 -1.641104 -1.717005
v -0.469943 -1.515278 -1.714280
v -0.813788 -1.171515 -1.706836
v -0.939644 -0.701925 -1.696668
v -0.813789 -0.232335 -1.686499
v -0.469945 0.111429 -1.679055
v -0.000245 0.237256 -1.676330
v -0.000244 3.591527 1.920727
v -0.000244 3.591527 1.920727
v -0.000244 3.591527 1.920727
v -0.000244 3.591527 1.920727
v -0.000244 3.591527 1.920727
v -0.000244 3.591527 1.920727
v -0.000244 3.591527 1.920727
v -0.000244 3.591527 1.920727
v -0.000244 3.591527 1.920727
v -0.000244 3.591527 1.920727
v -0.000244 3.591527 1.920727
v -0.000244 3.591527 1.920727
v 0.038898 3.110041 1.959974
v 0.067552 3.113714 1.988391
v 0.078040 3.118732 2.027210
v 0.067552 3.123750 2.066028
v 0.038898 3.127424 2.094446
v -0.000244 3.128768 2.104847
v -0.039385 3.127424 2.094446
v -0.068039 3.123750 2.066029
v -0.078527 3.118732 2.027210
v -0.068039 3.113714 1.988391
v -0.039385 3.110041 1.959974
v -0.000244 3.108696 1.949572
v 0.078040 2.636262 1.909200
v 0.135347 2.633413 1.966437
v 0.156323 2.629521 2.044623
v 0.135347 2.625629 2.122810
v 0.078040 2.622779 2.180046
v -0.000244 2.621737 2.200997
v -0.078527 2.622780 2.180047
v -0.135834 2.625629 2.122810
v -0.156810 2.629521 2.044624
v -0.135834 2.633413 1.966437
v -0.078527 2.636262 1.909201
v -0.000244 2.637305 1.888250
v 0.117181 2.178282 1.778691
v 0.203142 2.160027 1.862691
v 0.234606 2.135091 1.977438
v 0.203142 2.110154 2.092185
v 0.117181 2.091900 2.176185
v -0.000243 2.085218 2.206932
v -0.117669 2.091900 2.176185
v -0.203630 2.110154 2.092185
v -0.235094 2.135090 1.977438
v -0.203630 2.160027 1.862692
v -0.117669 2.178282 1.778691
v -0.000244 2.184963 1.747945
v 0.156323 1.744051 1.577041
v 0.270938 1.702880 1.684006
v 0.312890 1.646640 1.830123
v 0.270938 1.590399 1.976240
v 0.156323 1.549229 2.083205
v -0.000243 1.534159 2.122357
v -0.156810 1.549229 2.083205
v -0.271425 1.590399 1.976240
v -0.313377 1.646640 1.830124
v -0.271425 1.702880 1.684007
v -0.156811 1.744051 1.577042
v -0.000244 1.759120 1.537889
v 0.195465 1.342059 1.311990
v 0.338733 1.271607 1.436739
v 0.391173 1.175367 1.607149
v 0.338733 1.079127 1.777559
v 0.195465 1.008674 1.902308
v -0.000243 0.982887 1.947969
v -0.195952 1.008674 1.902308
v -0.339220 1.079126 1.777560
v -0.391660 1.175367 1.607149
v -0.339221 1.271607 1.436739
v -0.195952 1.342059 1.311990
v -0.000244 1.367847 1.266329
v 0.234606 0.981258 0.991165
v 0.406528 0.876107 1.127182
v 0.469456 0.732470 1.312985
v 0.406529 0.588832 1.498788
v 0.234607 0.483682 1.634805
v -0.000243 0.445194 1.684591
v -0.235093 0.483681 1.634805
v -0.407016 0.588831 1.498788
v -0.469944 0.732469 1.312986
v -0.407016 0.876107 1.127183
v -0.235094 0.981257 0.991165
v -0.000244 1.019745 0.941380
v 0.273748 0.670581 0.622501
v 0.474324 0.526274 0.761806
v 0.547740 0.329146 0.952102
v 0.474324 0.132019 1.142397
v 0.273748 -0.012288 1.281702
v -0.000243 -0.065109 1.332692
v -0.274235 -0.012289 1.281703
v -0.474811 0.132018 1.142397
v -0.548227 0.329146 0.952102
v -0.474811 0.526273 0.761807
v -0.274236 0.670581 0.622501
v -0.000244 0.723401 0.571512
v 0.312889 0.418300 0.214239
v 0.542119 0.231614 0.347259
v 0.626023 -0.023405 0.528968
v 0.542119 -0.278423 0.710677
v 0.312890 -0.465109 0.843697
v -0.000243 -0.533442 0.892386
v -0.313377 -0.465110 0.843697
v -0.542606 -0.278424 0.710677
v -0.626510 -0.023405 0.528968
v -0.542607 0.231613 0.347260
v -0.313378 0.418300 0.214239
v -0.000244 0.486632 0.165550
v 0.352031 0.231384 -0.225560
v 0.609914 0.000884 -0.109917
v 0.704306 -0.313985 0.048054
v 0.609915 -0.628855 0.206026
v 0.352032 -0.859355 0.321669
v -0.000243 -0.943725 0.363997
v -0.352518 -0.859356 0.321669
v -0.610402 -0.628856 0.206026
v -0.704794 -0.313986 0.048055
v -0.610402 0.000883 -0.109916
v -0.352519 0.231384 -0.225559
v -0.000244 0.315753 -0.267888
v 0.391173 0.115181 -0.690026
v 0.677710 -0.158095 -0.603866
v 0.782589 -0.531397 -0.486169
v 0.677710 -0.904700 -0.368473
v 0.391173 -1.177976 -0.282313
v -0.000243 -1.278002 -0.250776
v -0.391660 -1.177976 -0.282313
v -0.678197 -0.904701 -0.368472
v -0.783077 -0.531398 -0.486169
v -0.678198 -0.158096 -0.603866
v -0.391661 0.115180 -0.690026
v -0.000244 0.215207 -0.721563
v 0.430314 0.073799 -1.174777
v 0.745505 -0.238218 -1.130169
v 0.860873 -0.664443 -1.069234
v 0.745505 -1.090667 -1.008298
v 0.430315 -1.402685 -0.963690
v -0.000243 -1.516892 -0.947362
v -0.430801 -1.402686 -0.963690
v -0.745992 -1.090668 -1.008298
v -0.861360 -0.664444 -1.069233
v -0.745993 -0.238219 -1.130169
v -0.430803 0.073799 -1.174777
v -0.000245 0.188006 -1.191105
v 0.469456 0.111430 -1.679055
v 0.813300 -0.232334 -1.686499
v 0.939156 -0.701923 -1.696667
v 0.813301 -1.171513 -1.706836
v 0.469457 -1.515277 -1.714280
v -0.000243 -1.641104 -1.717005
v -0.469943 -1.515278 -1.714280
v -0.813788 -1.171515 -1.706836
v -0.939644 -0.701925 -1.696668
v -0.813789 -0.232335 -1.686499
v -0.469945 0.111429 -1.679055
v -0.000245 0.237256 -1.676330
vn -0.0000 0.0216 -0.9998
vn 0.4981 -0.0301 -0.8666
vn 0.5040 0.0540 -0.8620
vn -0.0000 0.0371 -0.9993
vn -0.0000 -0.0596 -0.9982
vn 0.8600 0.0501 -0.5078
vn 0.8650 0.0995 -0.4917
vn 0.9871 0.1586 -0.0215
vn 0.9871 0.1601 0.0035
vn 0.8483 0.2653 0.4583
vn 0.8452 0.2193 0.4874
vn 0.4865 0.3420 0.8040
vn 0.4841 0.2618 0.8349
vn -0.0000 0.3697 0.9292
vn -0.0000 0.2771 0.9608
vn -0.4865 0.3420 0.8040
vn -0.4841 0.2618 0.8349
vn -0.8483 0.2653 0.4583
vn -0.8452 0.2193 0.4874
vn -0.9871 0.1586 -0.0215
vn -0.9871 0.1601 0.0035
vn -0.8600 0.0501 -0.5078
vn -0.8650 0.0995 -0.4917
vn -0.4981 -0.0301 -0.8666
vn -0.5040 0.0540 -0.8620
vn 0.5007 0.2068 -0.8406
vn -0.0000 0.2151 -0.9766
vn 0.8621 0.1846 -0.4720
vn 0.9876 0.1548 0.0246
vn 0.8488 0.1258 0.5135
vn 0.4874 0.1049 0.8668
vn -0.0000 0.0974 0.9952
vn -0.4874 0.1049 0.8668
vn -0.8488 0.1258 0.5135
vn -0.9876 0.1548 0.0246
vn -0.8621 0.1846 -0.4720
vn -0.5007 0.2068 -0.8406
vn 0.4997 0.3410 -0.7963
vn -0.0000 0.3716 -0.9284
vn 0.8613 0.2579 -0.4377
vn 0.9882 0.1462 0.0467
vn 0.8504 0.0363 0.5250
vn 0.4887 -0.0431 0.8714
vn -0.0000 -0.0719 0.9974
vn -0.4887 -0.0431 0.8714
vn -0.8504 0.0363 0.5250
vn -0.9882 0.1462 0.0467
vn -0.8613 0.2579 -0.4377
vn -0.4997 0.3410 -0.7963
vn 0.4993 0.4577 -0.7357
vn -0.0000 0.5085 -0.8611
vn 0.8611 0.3202 -0.3949
vn 0.9887 0.1348 0.0662
vn 0.8514 -0.0480 0.5223
vn 0.4895 -0.1803 0.8531
vn -0.0000 -0.2283 0.9736
vn -0.4895 -0.1803 0.8531
vn -0.8514 -0.0480 0.5223
vn -0.9887 0.1348 0.0662
vn -0.8611 0.3202 -0.3949
vn -0.4993 0.4577 -0.7357
vn 0.4991 0.5597 -0.6616
vn -0.0000 0.6284 -0.7779
vn 0.8611 0.3731 -0.3453
vn 0.9891 0.1213 0.0833
vn 0.8521 -0.1272 0.5077
vn 0.4901 -0.3071 0.8158
vn -0.0000 -0.3725 0.9280
vn -0.4901 -0.3071 0.8158
vn -0.8521 -0.1272 0.5077
vn -0.9891 0.1213 0.0833
vn -0.8611 0.3731 -0.3453
vn -0.4991 0.5597 -0.6616
vn 0.4991 0.6485 -0.5747
vn -0.0000 0.7336 -0.6796
vn 0.8613 0.4178 -0.2892
vn 0.9895 0.1061 0.0981
vn 0.8526 -0.2017 0.4821
vn 0.4904 -0.4246 0.7611
vn -0.0000 -0.5057 0.8627
vn -0.4904 -0.4246 0.7611
vn -0.8526 -0.2017 0.4821
vn -0.9895 0.1061 0.0981
vn -0.8613 0.4178 -0.2892
vn -0.4991 0.6485 -0.5747
vn 0.4992 0.7248 -0.4748
vn -0.0000 0.8244 -0.5660
vn 0.8615 0.4544 -0.2265
vn 0.9899 0.0889 0.1108
vn 0.8529 -0.2720 0.4456
vn 0.4906 -0.5334 0.6891
vn -0.0000 -0.6285 0.7778
vn -0.4906 -0.5334 0.6891
vn -0.8529 -0.2720 0.4456
vn -0.9899 0.0889 0.1108
vn -0.8615 0.4544 -0.2265
vn -0.4992 0.7248 -0.4748
vn 0.4994 0.7872 -0.3618
vn -0.0000 0.8996 -0.4367
vn 0.8619 0.4821 -0.1574
vn 0.9902 0.0697 0.1209
vn 0.8532 -0.3376 0.3977
vn 0.4907 -0.6326 0.5992
vn -0.0000 -0.7399 0.6727
vn -0.4907 -0.6326 0.5992
vn -0.8532 -0.3376 0.3977
vn -0.9902 0.0697 0.1209
vn -0.8619 0.4821 -0.1574
vn -0.4994 0.7872 -0.3618
vn 0.4996 0.8333 -0.2367
vn -0.0000 0.9561 -0.2929
vn 0.8623 0.4996 -0.0829
vn 0.9906 0.0486 0.1275
vn 0.8535 -0.3970 0.3377
vn 0.4908 -0.7197 0.4910
vn -0.0000 -0.8371 0.5471
vn -0.4908 -0.7197 0.4910
vn -0.8535 -0.3970 0.3377
vn -0.9906 0.0486 0.1275
vn -0.8623 0.4996 -0.0829
vn -0.4996 0.8333 -0.2367
vn 0.4998 0.8600 -0.1029
vn -0.0000 0.9904 -0.1383
vn 0.8628 0.5056 -0.0052
vn 0.9912 0.0262 0.1298
vn 0.8539 -0.4475 0.2658
vn 0.4910 -0.7907 0.3657
vn -0.0000 -0.9155 0.4023
vn -0.4910 -0.7907 0.3657
vn -0.8539 -0.4475 0.2658
vn -0.9912 0.0262 0.1298
vn -0.8628 0.5056 -0.0052
vn -0.4998 0.8600 -0.1029
vn 0.5002 0.8653 0.0340
vn -0.0000 0.9998 0.0206
vn 0.8634 0.4994 0.0721
vn 0.9919 0.0040 0.1270
vn 0.8544 -0.4859 0.1840
vn 0.4913 -0.8409 0.2268
vn -0.0000 -0.9701 0.2426
vn -0.4913 -0.8409 0.2268
vn -0.8544 -0.4859 0.1840
vn -0.9919 0.0040 0.1270
vn -0.8634 0.4994 0.0721
vn -0.5002 0.8653 0.0340
vn 0.4993 0.8606 0.1005
vn -0.0000 0.9952 0.0978
vn 0.8631 0.4930 0.1093
vn 0.9922 -0.0067 0.1243
vn 0.8538 -0.5009 0.1416
vn 0.4901 -0.8577 0.1554
vn -0.0000 -0.9870 0.1606
vn -0.4901 -0.8577 0.1554
vn -0.8538 -0.5009 0.1416
vn -0.9922 -0.0067 0.1243
vn -0.8631 0.4930 0.1093
vn -0.4993 0.8606 0.1005
vt 0.616007 0.470135
vt 0.589000 0.516914
vt 0.542221 0.543921
vt 0.488206 0.543921
vt 0.441428 0.516914
vt 0.414420 0.470135
vt 0.414420 0.416120
vt 0.441428 0.369342
vt 0.488206 0.342334
vt 0.542221 0.342334
vt 0.589000 0.369342
vt 0.616007 0.416120
vt 0.767273 0.826036
vt 0.766440 0.826087
vt 0.765607 0.826195
vt 0.225959 0.916278
vt 0.225110 0.916101
vt 0.224246 0.915977
vt 0.223369 0.915907
vt 0.222491 0.915965
vt 0.221625 0.916077
vt 0.220774 0.916243
vt 0.770604 0.826185
vt 0.769771 0.826080
vt 0.768937 0.826032
vt 0.768105 0.826041
vt 0.763853 0.777378
vt 0.759777 0.777840
vt 0.755821 0.778593
vt 0.235702 0.867563
vt 0.231714 0.866796
vt 0.227712 0.866322
vt 0.223699 0.866132
vt 0.219685 0.866269
vt 0.215677 0.866689
vt 0.211679 0.867403
vt 0.780195 0.778543
vt 0.776236 0.777806
vt 0.772158 0.777361
vt 0.768005 0.777224
vt 0.759576 0.728045
vt 0.751410 0.729145
vt 0.743509 0.730898
vt 0.248133 0.818749
vt 0.240087 0.817072
vt 0.232060 0.816063
vt 0.224035 0.815682
vt 0.216005 0.815957
vt 0.207965 0.816859
vt 0.199897 0.818429
vt 0.792312 0.730798
vt 0.784404 0.729077
vt 0.776233 0.728011
vt 0.767904 0.727652
vt 0.755064 0.678307
vt 0.742653 0.680032
vt 0.730784 0.682729
vt 0.261014 0.767813
vt 0.248675 0.765284
vt 0.236486 0.763776
vt 0.224383 0.763203
vt 0.212274 0.763615
vt 0.200066 0.764961
vt 0.187694 0.767326
vt 0.804840 0.682577
vt 0.792960 0.679929
vt 0.780542 0.678255
vt 0.767802 0.677682
vt 0.750340 0.627463
vt 0.733528 0.629873
vt 0.717606 0.633576
vt 0.274287 0.714373
vt 0.257475 0.711010
vt 0.241012 0.709023
vt 0.224748 0.708262
vt 0.208476 0.708807
vt 0.191988 0.710575
vt 0.175133 0.713715
vt 0.817817 0.633371
vt 0.801879 0.629734
vt 0.785057 0.627392
vt 0.767697 0.626575
vt 0.745337 0.575283
vt 0.723917 0.578472
vt 0.703833 0.583284
vt 0.287908 0.658390
vt 0.266452 0.654210
vt 0.245617 0.651761
vt 0.225130 0.650819
vt 0.204632 0.651489
vt 0.183767 0.653660
vt 0.162256 0.657556
vt 0.831383 0.583023
vt 0.811279 0.578293
vt 0.789846 0.575192
vt 0.767590 0.574094
vt 0.740000 0.521695
vt 0.713720 0.525765
vt 0.689334 0.531803
vt 0.301842 0.599900
vt 0.275572 0.594916
vt 0.250282 0.592025
vt 0.225528 0.590906
vt 0.200762 0.591696
vt 0.175435 0.594250
vt 0.149101 0.598886
vt 0.845671 0.531483
vt 0.821261 0.525545
vt 0.794964 0.521583
vt 0.767479 0.520157
vt 0.734340 0.466748
vt 0.702937 0.471744
vt 0.674065 0.479053
vt 0.316089 0.538928
vt 0.284835 0.533126
vt 0.255006 0.529789
vt 0.225943 0.528487
vt 0.196865 0.529403
vt 0.166994 0.532343
vt 0.135665 0.537729
vt 0.860724 0.478671
vt 0.831822 0.471480
vt 0.800399 0.466613
vt 0.767366 0.464831
vt 0.728512 0.410614
vt 0.691792 0.416386
vt 0.658202 0.424785
vt 0.330751 0.475412
vt 0.294335 0.468695
vt 0.259847 0.464845
vt 0.226376 0.463326
vt 0.192886 0.464400
vt 0.158350 0.467792
vt 0.121848 0.474024
vt 0.876365 0.424339
vt 0.842740 0.416077
vt 0.805997 0.410455
vt 0.767250 0.408360
vt 0.722903 0.353594
vt 0.680877 0.359602
vt 0.642300 0.368458
vt 0.346134 0.409150
vt 0.304364 0.401220
vt 0.264981 0.396636
vt 0.226831 0.394809
vt 0.188660 0.396129
vt 0.149219 0.400189
vt 0.107347 0.407563
vt 0.892036 0.367947
vt 0.853423 0.359249
vt 0.811372 0.353413
vt 0.767133 0.351200
vt 0.718194 0.296119
vt 0.671288 0.301214
vt 0.627516 0.309162
vt 0.362930 0.339771
vt 0.315594 0.329881
vt 0.270806 0.324013
vt 0.227317 0.321661
vt 0.183800 0.323435
vt 0.138938 0.328707
vt 0.091474 0.337967
vt 0.906577 0.308590
vt 0.862772 0.300822
vt 0.815846 0.295919
vt 0.767016 0.294025
vt 0.715410 0.238775
vt 0.664786 0.241034
vt 0.615941 0.245691
vt 0.382614 0.266804
vt 0.329495 0.253179
vt 0.278187 0.244737
vt 0.227850 0.241409
vt 0.177474 0.244068
vt 0.126058 0.251827
vt 0.072762 0.264746
vt 0.917892 0.245072
vt 0.869028 0.240615
vt 0.818395 0.238564
vt 0.766901 0.237795
vt 0.715907 0.182503
vt 0.663930 0.179208
vt 0.611164 0.177067
vt 0.408382 0.190071
vt 0.349813 0.168221
vt 0.289424 0.154087
vt 0.228462 0.149290
vt 0.167442 0.153276
vt 0.106871 0.166607
vt 0.048016 0.187676
vt 0.922388 0.176429
vt 0.869630 0.178787
vt 0.817667 0.182294
vt 0.766791 0.184230
s 1
usemtl Material.001
f 10/10/1 8/8/1 9/9/1
f 11/11/1 8/8/1 10/10/1
f 11/11/1 7/7/1 8/8/1
f 12/12/1 7/7/1 11/11/1
f 12/12/1 6/6/1 7/7/1
f 1/1/1 6/6/1 12/12/1
f 1/1/1 5/5/1 6/6/1
f 2/2/1 5/5/1 1/1/1
f 2/2/1 4/4/1 5/5/1
f 3/3/1 4/4/1 2/2/1
f 13/13/2 25/27/3 36/40/4 24/26/5
f 14/14/6 26/28/7 25/27/3 13/13/2
f 15/15/8 27/29/9 26/28/7 14/14/6
f 16/17/10 28/31/11 27/30/9 15/16/8
f 17/18/12 29/32/13 28/31/11 16/17/10
f 18/19/14 30/33/15 29/32/13 17/18/12
f 19/20/16 31/34/17 30/33/15 18/19/14
f 20/21/18 32/35/19 31/34/17 19/20/16
f 21/22/20 33/36/21 32/35/19 20/21/18
f 22/24/22 34/38/23 33/37/21 21/23/20
f 23/25/24 35/39/25 34/38/23 22/24/22
f 24/26/5 36/40/4 35/39/25 23/25/24
f 25/27/3 37/41/26 48/54/27 36/40/4
f 26/28/7 38/42/28 37/41/26 25/27/3
f 27/29/9 39/43/29 38/42/28 26/28/7
f 28/31/11 40/45/30 39/44/29 27/30/9
f 29/32/13 41/46/31 40/45/30 28/31/11
f 30/33/15 42/47/32 41/46/31 29/32/13
f 31/34/17 43/48/33 42/47/32 30/33/15
f 32/35/19 44/49/34 43/48/33 31/34/17
f 33/36/21 45/50/35 44/49/34 32/35/19
f 34/38/23 46/52/36 45/51/35 33/37/21
f 35/39/25 47/53/37 46/52/36 34/38/23
f 36/40/4 48/54/27 47/53/37 35/39/25
f 37/41/26 49/55/38 60/68/39 48/54/27
f 38/42/28 50/56/40 49/55/38 37/41/26
f 39/43/29 51/57/41 50/56/40 38/42/28
f 40/45/30 52/59/42 51/58/41 39/44/29
f 41/46/31 53/60/43 52/59/42 40/45/30
f 42/47/32 54/61/44 53/60/43 41/46/31
f 43/48/33 55/62/45 54/61/44 42/47/32
f 44/49/34 56/63/46 55/62/45 43/48/33
f 45/50/35 57/64/47 56/63/46 44/49/34
f 46/52/36 58/66/48 57/65/47 45/51/35
f 47/53/37 59/67/49 58/66/48 46/52/36
f 48/54/27 60/68/39 59/67/49 47/53/37
f 49/55/38 61/69/50 72/82/51 60/68/39
f 50/56/40 62/70/52 61/69/50 49/55/38
f 51/57/41 63/71/53 62/70/52 50/56/40
f 52/59/42 64/73/54 63/72/53 51/58/41
f 53/60/43 65/74/55 64/73/54 52/59/42
f 54/61/44 66/75/56 65/74/55 53/60/43
f 55/62/45 67/76/57 66/75/56 54/61/44
f 56/63/46 68/77/58 67/76/57 55/62/45
f 57/64/47 69/78/59 68/77/58 56/63/46
f 58/66/48 70/80/60 69/79/59 57/65/47
f 59/67/49 71/81/61 70/80/60 58/66/48
f 60/68/39 72/82/51 71/81/61 59/67/49
f 61/69/50 73/83/62 84/96/63 72/82/51
f 62/70/52 74/84/64 73/83/62 61/69/50
f 63/71/53 75/85/65 74/84/64 62/70/52
f 64/73/54 76/87/66 75/86/65 63/72/53
f 65/74/55 77/88/67 76/87/66 64/73/54
f 66/75/56 78/89/68 77/88/67 65/74/55
f 67/76/57 79/90/69 78/89/68 66/75/56
f 68/77/58 80/91/70 79/90/69 67/76/57
f 69/78/59 81/92/71 80/91/70 68/77/58
f 70/80/60 82/94/72 81/93/71 69/79/59
f 71/81/61 83/95/73 82/94/72 70/80/60
f 72/82/51 84/96/63 83/95/73 71/81/61
f 73/83/62 85/97/74 96/110/75 84/96/63
f 74/84/64 86/98/76 85/97/74 73/83/62
f 75/85/65 87/99/77 86/98/76 74/84/64
f 76/87/66 88/101/78 87/100/77 75/86/65
f 77/88/67 89/102/79 88/101/78 76/87/66
f 78/89/68 90/103/80 89/102/79 77/88/67
f 79/90/69 91/104/81 90/103/80 78/89/68
f 80/91/70 92/105/82 91/104/81 79/90/69
f 81/92/71 93/106/83 92/105/82 80/91/70
f 82/94/72 94/108/84 93/107/83 81/93/71
f 83/95/73 95/109/85 94/108/84 82/94/72
f 84/96/63 96/110/75 95/109/85 83/95/73
f 85/97/74 97/111/86 108/124/87 96/110/75
f 86/98/76 98/112/88 97/111/86 85/97/74
f 87/99/77 99/113/89 98/112/88 86/98/76
f 88/101/78 100/115/90 99/114/89 87/100/77
f 89/102/79 101/116/91 100/115/90 88/101/78
f 90/103/80 102/117/92 101/116/91 89/102/79
f 91/104/81 103/118/93 102/117/92 90/103/80
f 92/105/82 104/119/94 103/118/93 91/104/81
f 93/106/83 105/120/95 104/119/94 92/105/82
f 94/108/84 106/122/96 105/121/95 93/107/83
f 95/109/85 107/123/97 106/122/96 94/108/84
f 96/110/75 108/124/87 107/123/97 95/109/85
f 97/111/86 109/125/98 120/138/99 108/124/87
f 98/112/88 110/126/100 109/125/98 97/111/86
f 99/113/89 111/127/101 110/126/100 98/112/88
f 100/115/90 112/129/102 111/128/101 99/114/89
f 101/116/91 113/130/103 112/129/102 100/115/90
f 102/117/92 114/131/104 113/130/103 101/116/91
f 103/118/93 115/132/105 114/131/104 102/117/92
f 104/119/94 116/133/106 115/132/105 103/118/93
f 105/120/95 117/134/107 116/133/106 104/119/94
f 106/122/96 118/136/108 117/135/107 105/121/95
f 107/123/97 119/137/109 118/136/108 106/122/96
f 108/124/87 120/138/99 119/137/109 107/123/97
f 109/125/98 121/139/110 132/152/111 120/138/99
f 110/126/100 122/140/112 121/139/110 109/125/98
f 111/127/101 123/141/113 122/140/112 110/126/100
f 112/129/102 124/143/114 123/142/113 111/128/101
f 113/130/103 125/144/115 124/143/114 112/129/102
f 114/131/104 126/145/116 125/144/115 113/130/103
f 115/132/105 127/146/117 126/145/116 114/131/104
f 116/133/106 128/147/118 127/146/117 115/132/105
f 117/134/107 129/148/119 128/147/118 116/133/106
f 118/136/108 130/150/120 129/149/119 117/135/107
f 119/137/109 131/151/121 130/150/120 118/136/108
f 120/138/99 132/152/111 131/151/121 119/137/109
f 121/139/110 133/153/122 144/166/123 132/152/111
f 122/140/112 134/154/124 133/153/122 121/139/110
f 123/141/113 135/155/125 134/154/124 122/140/112
f 124/143/114 136/157/126 135/156/125 123/142/113
f 125/144/115 137/158/127 136/157/126 124/143/114
f 126/145/116 138/159/128 137/158/127 125/144/115
f 127/146/117 139/160/129 138/159/128 126/145/116
f 128/147/118 140/161/130 139/160/129 127/146/117
f 129/148/119 141/162/131 140/161/130 128/147/118
f 130/150/120 142/164/132 141/163/131 129/149/119
f 131/151/121 143/165/133 142/164/132 130/150/120
f 132/152/111 144/166/123 143/165/133 131/151/121
f 133/153/122 145/167/134 156/180/135 144/166/123
f 134/154/124 146/168/136 145/167/134 133/153/122
f 135/155/125 147/169/137 146/168/136 134/154/124
f 136/157/126 148/171/138 147/170/137 135/156/125
f 137/158/127 149/172/139 148/171/138 136/157/126
f 138/159/128 150/173/140 149/172/139 137/158/127
f 139/160/129 151/174/141 150/173/140 138/159/128
f 140/161/130 152/175/142 151/174/141 139/160/129
f 141/162/131 153/176/143 152/175/142 140/161/130
f 142/164/132 154/178/144 153/177/143 141/163/131
f 143/165/133 155/179/145 154/178/144 142/164/132
f 144/166/123 156/180/135 155/179/145 143/165/133
f 145/167/134 157/181/146 168/194/147 156/180/135
f 146/168/136 158/182/148 157/181/146 145/167/134
f 147/169/137 159/183/149 158/182/148 146/168/136
f 148/171/138 160/185/150 159/184/149 147/170/137
f 149/172/139 161/186/151 160/185/150 148/171/138
f 150/173/140 162/187/152 161/186/151 149/172/139
f 151/174/141 163/188/153 162/187/152 150/173/140
f 152/175/142 164/189/154 163/188/153 151/174/141
f 153/176/143 165/190/155 164/189/154 152/175/142
f 154/178/144 166/192/156 165/191/155 153/177/143
f 155/179/145 167/193/157 166/192/156 154/178/144
f 156/180/135 168/194/147 167/193/157 155/179/145
