# Blender 3.3.1
# www.blender.org
mtllib placa.mtl
o Cylinder
v -0.354825 -0.100000 -0.696428
v 0.245807 -0.100000 -0.746376
v 0.705836 -0.100000 -0.356985
v 0.755784 -0.100000 0.243647
v 0.366392 -0.100000 0.703676
v -0.234239 -0.100000 0.753624
v -0.694268 -0.100000 0.364232
v -0.744216 -0.100000 -0.236399
v 0.245807 0.100000 -0.746376
v -0.694268 -0.006158 0.364232
v 0.705836 0.100000 -0.356985
v 0.755784 0.100000 0.243647
v 0.366392 0.100000 0.703676
v -0.234239 0.100000 0.753624
v -0.744216 0.100000 -0.236399
v 0.223391 0.100000 -0.676335
v -0.321148 0.100000 -0.631051
v 0.640459 0.100000 -0.323308
v 0.685742 0.100000 0.221231
v 0.332715 0.100000 0.638299
v -0.211824 0.100000 0.683582
v -0.628891 0.100000 0.330555
v -0.674175 0.100000 -0.213984
v 0.035362 0.052525 -0.088798
v -0.038654 0.052525 -0.082643
v 0.092050 0.052525 -0.040813
v 0.098205 0.052525 0.033202
v 0.050221 0.052525 0.089890
v -0.023794 0.052525 0.096046
v -0.080483 0.052525 0.048061
v -0.086638 0.052525 -0.025954
v 0.035362 0.075125 -0.088798
v -0.038654 0.075125 -0.082643
v 0.092050 0.075125 -0.040813
v 0.098205 0.075125 0.033202
v 0.050221 0.075125 0.089890
v -0.023794 0.075125 0.096046
v -0.080483 0.075125 0.048061
v -0.086638 0.075125 -0.025954
v -0.376606 0.100000 -0.670696
v -0.354825 0.048388 -0.696428
v -0.334359 0.100000 -0.656698
v -0.303007 0.100000 -0.700737
v -0.667352 0.100000 0.350367
v -0.645570 0.100000 0.405453
v -0.696596 0.100000 0.336239
v 0.504513 0.100000 0.540499
v 0.622245 0.100000 0.401409
v 0.573727 0.076709 0.458730
v 0.551732 0.100000 0.436032
v 0.539276 0.100000 -0.497969
v 0.473621 0.100000 -0.553542
v 0.486757 -0.100000 -0.542423
v 0.477446 0.100000 -0.497702
v -0.720406 0.100000 0.049920
v -0.305111 0.052525 -0.599918
v 0.212717 0.052525 -0.642981
v 0.609326 0.052525 -0.307271
v 0.652388 0.052525 0.210557
v 0.316678 0.052525 0.607166
v -0.201149 0.052525 0.650228
v -0.597758 0.052525 0.314518
v -0.640821 0.052525 -0.203309
v -0.063221 0.052525 -0.130335
v 0.051713 0.052525 -0.139893
v 0.139742 0.052525 -0.065380
v 0.149300 0.052525 0.049553
v 0.074788 0.052525 0.137582
v -0.040146 0.052525 0.147140
v -0.128175 0.052525 0.072628
v -0.137733 0.052525 -0.042306
vn -0.0829 -0.0000 -0.9966
vn 0.6461 -0.0000 -0.7633
vn 0.9966 -0.0000 -0.0829
vn 0.7633 -0.0000 0.6461
vn 0.0829 -0.0000 0.9966
vn -0.6461 -0.0000 0.7633
vn -0.9966 -0.0000 0.0829
vn -0.7633 -0.0000 -0.6461
vn -0.0000 -1.0000 -0.0000
vn -0.0000 1.0000 -0.0000
vn 0.2690 0.5183 -0.8118
vn -0.6456 0.6098 -0.4596
vn -0.8946 0.2730 0.3538
vn -0.4241 0.2222 0.8779
vn 0.2699 0.7906 0.5497
vn 0.5659 0.7838 0.2558
vn 0.9958 0.0616 -0.0682
vn -0.0042 0.2180 -0.9759
vn 0.8235 0.5632 -0.0685
vn 0.5339 0.5632 -0.6307
vn -0.0685 0.5632 -0.8235
vn -0.6307 0.5632 -0.5339
vn -0.8235 0.5632 0.0685
vn -0.5339 0.5632 0.6307
vn 0.0685 0.5632 0.8235
vn 0.6307 0.5632 0.5339
vn 0.4135 -0.9099 -0.0344
vn 0.2680 -0.9099 -0.3167
vn -0.0344 -0.9099 -0.4135
vn -0.3167 -0.9099 -0.2680
vn -0.4135 -0.9099 0.0344
vn -0.2680 -0.9099 0.3167
vn 0.0344 -0.9099 0.4135
vn 0.3167 -0.9099 0.2680
vt 0.280024 0.926942
vt 0.280024 0.095932
vt 0.740647 0.932325
vt 0.277950 0.822914
vt 0.740647 0.952273
vt 0.726542 0.966378
vt 0.276876 0.718877
vt 0.276901 0.614829
vt 0.706594 0.966378
vt 0.277253 0.511830
vt 0.692488 0.952273
vt 0.277952 0.407857
vt 0.692488 0.932325
vt 0.278648 0.303881
vt 0.706594 0.918220
vt 0.279337 0.199905
vt 0.726542 0.918220
vt 0.006113 0.828333
vt 0.505321 0.870984
vt 0.151169 0.303032
vt 0.505321 0.936050
vt 0.004985 0.718812
vt 0.005010 0.614763
vt 0.551330 0.982059
vt 0.005559 0.510003
vt 0.616396 0.982059
vt 0.006258 0.406030
vt 0.662405 0.936050
vt 0.007643 0.198111
vt 0.616396 0.824975
vt 0.555442 0.891744
vt 0.332003 0.950560
vt 0.572091 0.875096
vt 0.341159 0.986434
vt 0.341159 0.694183
vt 0.555442 0.915289
vt 0.325429 0.914123
vt 0.572091 0.931938
vt 0.321471 0.877310
vt 0.595636 0.931938
vt 0.320150 0.840309
vt 0.612284 0.915289
vt 0.321471 0.803308
vt 0.612284 0.891744
vt 0.325429 0.766495
vt 0.595636 0.875096
vt 0.332003 0.730058
vt 0.698067 0.888122
vt 0.698067 0.872879
vt 0.708846 0.898901
vt 0.724089 0.898901
vt 0.734868 0.888122
vt 0.734868 0.872879
vt 0.724089 0.862100
vt 0.708846 0.862100
vt 0.858841 0.869016
vt 0.903088 0.876587
vt 0.858841 0.853772
vt 0.906741 0.853162
vt 0.869620 0.879795
vt 0.884828 0.891247
vt 0.884863 0.879795
vt 0.862274 0.888348
vt 0.895642 0.869016
vt 0.849278 0.869503
vt 0.895642 0.853772
vt 0.852932 0.845918
vt 0.884863 0.842994
vt 0.870717 0.831075
vt 0.869620 0.842994
vt 0.893227 0.834333
vt 0.554970 0.824975
vt 0.008291 0.099954
vt 0.078442 0.094601
vt 0.078337 0.930962
vt 0.553176 0.829432
vt 0.007943 0.092284
vt 0.007772 0.932716
vt 0.547361 0.828944
vt 0.008008 0.923386
vt 0.659385 0.872235
vt 0.006862 0.302842
vt 0.662405 0.877872
vt 0.006885 0.313061
vt 0.660261 0.868840
vt 0.006991 0.297241
vt 0.593317 0.982059
vt 0.004846 0.546509
vt 0.573644 0.982059
vt 0.004596 0.579480
vt 0.036079 0.565869
vt 0.581415 0.978664
vt 0.003850 0.566071
vt 0.505321 0.912492
vt 0.004976 0.756483
vt 0.505321 0.903206
vt 0.005086 0.776817
vt 0.733259 0.959661
vt 0.276864 0.768427
vt 0.509656 0.907416
vt 0.004862 0.767157
vt 0.007317 0.247676
vt 0.638329 0.846907
vt 0.365571 0.979267
vt 0.365571 0.701351
vt 0.776528 0.027831
vt 0.356864 0.945151
vt 0.976465 0.227768
vt 0.350613 0.910502
vt 0.976465 0.510523
vt 0.346849 0.875495
vt 0.776528 0.710461
vt 0.345593 0.840309
vt 0.493773 0.710461
vt 0.346849 0.805123
vt 0.293835 0.510523
vt 0.350613 0.770116
vt 0.293835 0.227768
vt 0.356864 0.735466
vt 0.493773 0.027831
vt 0.687894 0.868665
vt 0.999326 0.810326
vt 0.687894 0.892336
vt 0.999326 0.911325
vt 0.704632 0.909074
vt 0.928521 0.982909
vt 0.728303 0.909074
vt 0.827797 0.983453
vt 0.745040 0.892336
vt 0.756656 0.911978
vt 0.745040 0.868665
vt 0.756752 0.811369
vt 0.728303 0.851928
vt 0.827024 0.739833
vt 0.704632 0.851928
vt 0.927806 0.738995
s 0
usemtl Material.001
f 1/1/1 41/75/1 43/80/1 9/18/1 2/4/1
f 2/4/2 9/18/2 52/97/2 53/99/2
f 3/7/3 11/22/3 12/23/3 4/8/3
f 4/8/4 12/23/4 48/90/4 49/91/4 47/88/4 13/25/4 5/10/4
f 5/10/5 13/25/5 14/27/5 6/12/5
f 6/12/6 14/27/6 45/84/6 10/20/6 7/14/6
f 7/14/7 10/20/7 46/86/7 55/102/7 15/29/7 8/16/7
f 8/16/8 15/29/8 40/73/8 41/74/8 1/2/8
f 1/3/9 2/5/9 53/98/9 3/6/9 4/9/9 5/11/9 6/13/9 7/15/9 8/17/9
f 17/33/10 16/31/10 9/19/10 43/79/10 42/76/10
f 16/31/10 18/36/10 11/21/10 51/94/10 54/100/10 52/96/10 9/19/10
f 18/36/10 19/38/10 12/24/10 11/21/10
f 19/38/10 20/40/10 13/26/10 47/87/10 50/92/10 48/89/10 12/24/10
f 20/40/10 21/42/10 14/28/10 13/26/10
f 21/42/10 22/44/10 44/81/10 45/83/10 14/28/10
f 22/44/10 23/46/10 15/30/10 55/103/10 46/85/10 44/81/10
f 23/46/10 17/33/10 42/76/10 40/72/10 15/30/10
f 32/56/10 33/58/10 39/70/10 38/68/10 37/66/10 36/64/10 35/62/10 34/60/10
f 41/74/11 40/73/11 42/77/11
f 42/78/12 43/80/12 41/75/12
f 44/82/13 10/20/13 45/84/13
f 10/20/14 44/82/14 46/86/14
f 49/91/15 48/90/15 50/93/15
f 50/93/16 47/88/16 49/91/16
f 53/99/2 51/95/2 11/22/2 3/7/2
f 53/99/17 52/97/17 54/101/17
f 54/101/18 51/95/18 53/99/18
f 22/45/19 62/117/19 63/119/19 23/47/19
f 21/43/20 61/115/20 62/117/20 22/45/20
f 20/41/21 60/113/21 61/115/21 21/43/21
f 19/39/22 59/111/22 60/113/22 20/41/22
f 18/37/23 58/109/23 59/111/23 19/39/23
f 16/32/24 57/107/24 58/109/24 18/37/24
f 17/34/25 56/104/25 57/107/25 16/32/25
f 23/47/26 63/119/26 56/105/26 17/35/26
f 25/49/10 24/48/10 65/123/10 64/121/10
f 24/48/10 26/50/10 66/125/10 65/123/10
f 26/50/10 27/51/10 67/127/10 66/125/10
f 27/51/10 28/52/10 68/129/10 67/127/10
f 28/52/10 29/53/10 69/131/10 68/129/10
f 29/53/10 30/54/10 70/133/10 69/131/10
f 30/54/10 31/55/10 71/135/10 70/133/10
f 31/55/10 25/49/10 64/121/10 71/135/10
f 70/134/27 71/136/27 39/71/27 38/69/27
f 69/132/28 70/134/28 38/69/28 37/67/28
f 68/130/29 69/132/29 37/67/29 36/65/29
f 67/128/30 68/130/30 36/65/30 35/63/30
f 66/126/31 67/128/31 35/63/31 34/61/31
f 65/124/32 66/126/32 34/61/32 32/57/32
f 64/122/33 65/124/33 32/57/33 33/59/33
f 71/136/34 64/122/34 33/59/34 39/71/34
f 56/106/10 63/120/10 62/118/10 61/116/10 60/114/10 59/112/10 58/110/10 57/108/10
