# Blender 3.3.1
# www.blender.org
mtllib platform.mtl
o Cylinder
v -1.175618 0.124061 3.609276
v -1.489432 -0.307866 3.609276
v -1.997193 -0.472848 3.609276
v -2.504953 -0.307866 3.609276
v -2.818767 0.124061 3.609276
v -2.818829 0.436973 3.609276
v -1.175410 0.436973 3.609276
v -1.409407 -0.388006 3.626611
v -1.046136 0.111994 3.626611
v -1.997193 -0.578989 3.626611
v -2.584978 -0.388006 3.626611
v -2.948249 0.111994 3.626611
v -2.948249 0.452927 3.626611
v -1.046136 0.452927 3.626611
v -1.250300 0.421011 3.580630
v -2.744766 0.421011 3.580630
v -2.743301 0.135247 3.580630
v -2.458313 -0.257005 3.580630
v -1.997193 -0.406832 3.580630
v -1.536072 -0.257005 3.580630
v -1.251084 0.135247 3.580630
v -1.175618 0.124061 -3.604715
v -1.489432 -0.307866 -3.604715
v -1.997193 -0.472847 -3.604715
v -2.504953 -0.307866 -3.604715
v -2.818767 0.124061 -3.604715
v -2.818829 0.436973 -3.604715
v -1.175410 0.436973 -3.604715
v -1.409407 -0.388006 -3.628147
v -1.046136 0.111994 -3.628147
v -1.997193 -0.578989 -3.628147
v -2.584978 -0.388006 -3.628147
v -2.948249 0.111994 -3.628147
v -2.948249 0.452927 -3.628147
v -1.046136 0.452927 -3.628147
v -1.250300 0.421011 -3.583654
v -2.744766 0.421011 -3.583654
v -2.743301 0.135248 -3.583654
v -2.458313 -0.257005 -3.583654
v -1.997193 -0.406832 -3.583654
v -1.536072 -0.257005 -3.583654
v -1.251084 0.135248 -3.583654
v 0.821600 0.124061 3.609276
v 0.507787 -0.307866 3.609276
v 0.000026 -0.472848 3.609276
v -0.507735 -0.307866 3.609276
v -0.821548 0.124061 3.609276
v -0.821610 0.436973 3.609276
v 0.821809 0.436973 3.609276
v 0.587811 -0.388006 3.626611
v 0.951082 0.111994 3.626611
v 0.000026 -0.578989 3.626611
v -0.587759 -0.388006 3.626611
v -0.951030 0.111994 3.626611
v -0.951030 0.452927 3.626611
v 0.951082 0.452927 3.626611
v 0.746919 0.421011 3.580630
v -0.747547 0.421011 3.580630
v -0.746083 0.135247 3.580630
v -0.461095 -0.257005 3.580630
v 0.000026 -0.406832 3.580630
v 0.461147 -0.257005 3.580630
v 0.746135 0.135247 3.580630
v 0.821600 0.124061 -3.604715
v 0.507787 -0.307866 -3.604715
v 0.000026 -0.472847 -3.604715
v -0.507735 -0.307866 -3.604715
v -0.821548 0.124061 -3.604715
v -0.821610 0.436973 -3.604715
v 0.821809 0.436973 -3.604715
v 0.587811 -0.388006 -3.628147
v 0.951082 0.111994 -3.628147
v 0.000026 -0.578989 -3.628147
v -0.587759 -0.388006 -3.628147
v -0.951030 0.111994 -3.628147
v -0.951030 0.452927 -3.628147
v 0.951082 0.452927 -3.628147
v 0.746919 0.421011 -3.583654
v -0.747547 0.421011 -3.583654
v -0.746083 0.135248 -3.583654
v -0.461095 -0.257005 -3.583654
v 0.000026 -0.406832 -3.583654
v 0.461147 -0.257005 -3.583654
v 0.746135 0.135248 -3.583654
v 2.818819 0.124061 3.609276
v 2.505006 -0.307866 3.609276
v 1.997245 -0.472848 3.609276
v 1.489484 -0.307866 3.609276
v 1.175670 0.124061 3.609276
v 1.175608 0.436973 3.609276
v 2.819028 0.436973 3.609276
v 2.585030 -0.388006 3.626611
v 2.948301 0.111994 3.626611
v 1.997245 -0.578989 3.626611
v 1.409459 -0.388006 3.626611
v 1.046188 0.111994 3.626611
v 1.046188 0.452927 3.626611
v 2.948301 0.452927 3.626611
v 2.744138 0.421011 3.580630
v 1.249671 0.421011 3.580630
v 1.251136 0.135247 3.580630
v 1.536124 -0.257005 3.580630
v 1.997245 -0.406832 3.580630
v 2.458365 -0.257005 3.580630
v 2.743353 0.135247 3.580630
v 2.818819 0.124061 -3.604715
v 2.505006 -0.307866 -3.604715
v 1.997245 -0.472847 -3.604715
v 1.489484 -0.307866 -3.604715
v 1.175670 0.124061 -3.604715
v 1.175608 0.436973 -3.604715
v 2.819028 0.436973 -3.604715
v 2.585030 -0.388006 -3.628147
v 2.948301 0.111994 -3.628147
v 1.997245 -0.578989 -3.628147
v 1.409459 -0.388006 -3.628147
v 1.046188 0.111994 -3.628147
v 1.046188 0.452927 -3.628147
v 2.948301 0.452927 -3.628147
v 2.744138 0.421011 -3.583654
v 1.249671 0.421011 -3.583654
v 1.251136 0.135248 -3.583654
v 1.536124 -0.257005 -3.583654
v 1.997245 -0.406832 -3.583654
v 2.458365 -0.257005 -3.583654
v 2.743353 0.135248 -3.583654
vn 1.0000 -0.0000 -0.0000
vn 0.8090 -0.5878 -0.0000
vn 0.3090 -0.9511 -0.0000
vn -0.3090 -0.9511 -0.0000
vn -0.0000 -0.0000 1.0000
vn 0.2107 0.9776 -0.0000
vn -0.8090 -0.5878 -0.0000
vn -0.1239 0.0900 0.9882
vn -0.0523 0.1610 0.9856
vn 0.0523 0.1610 0.9856
vn 0.1239 0.0900 0.9882
vn 0.1327 -0.0000 0.9912
vn -0.1328 -0.0000 0.9911
vn 0.3578 0.0009 0.9338
vn 0.3155 0.2293 0.9208
vn 0.1283 0.3948 0.9098
vn -0.1283 0.3948 0.9098
vn -0.3155 0.2293 0.9208
vn -0.3561 0.0006 0.9345
vn -1.0000 -0.0000 -0.0000
vn 0.1223 0.9925 -0.0000
vn -0.2085 0.9780 -0.0000
vn -0.1225 0.9925 -0.0000
vn -0.0000 -0.0000 -1.0000
vn -0.1659 0.1205 -0.9788
vn -0.0699 0.2150 -0.9741
vn 0.0699 0.2150 -0.9741
vn 0.1659 0.1205 -0.9788
vn 0.1781 -0.0000 -0.9840
vn -0.1782 0.0001 -0.9840
vn 0.2712 0.0007 -0.9625
vn 0.2406 0.1748 -0.9548
vn 0.0983 0.3025 -0.9481
vn -0.0983 0.3025 -0.9481
vn -0.2406 0.1748 -0.9548
vn -0.2698 0.0004 -0.9629
vn -0.0000 1.0000 -0.0000
vt 0.398831 0.083768
vt 0.296816 0.884854
vt 0.411358 0.213692
vt 0.326998 0.863125
vt 0.412027 0.335029
vt 0.338644 0.827805
vt 0.412027 0.457208
vt 0.327305 0.792386
vt 0.395369 0.589987
vt 0.297313 0.770395
vt 0.276629 0.770301
vt 0.370484 0.663674
vt 0.276131 0.884778
vt 0.375825 0.010022
vt 0.386487 0.211136
vt 0.366587 0.084135
vt 0.390696 0.335078
vt 0.386826 0.459445
vt 0.362159 0.588495
vt 0.352338 0.642555
vt 0.356831 0.035116
vt 0.252907 0.862033
vt 0.983983 0.181802
vt 0.253208 0.792786
vt 0.583697 0.181802
vt 0.584089 0.154089
vt 0.266449 0.792911
vt 0.660422 0.049026
vt 0.284567 0.806195
vt 0.783931 0.008896
vt 0.291416 0.827592
vt 0.907440 0.049026
vt 0.284381 0.848928
vt 0.983773 0.154089
vt 0.266148 0.862054
vt 0.016800 0.073807
vt 0.116130 0.884068
vt 0.000143 0.206586
vt 0.086138 0.862078
vt 0.000143 0.328764
vt 0.074800 0.826658
vt 0.000812 0.450101
vt 0.086446 0.791339
vt 0.013341 0.580024
vt 0.116628 0.769610
vt 0.036323 0.653798
vt 0.137313 0.769695
vt 0.041705 0.000143
vt 0.136815 0.884173
vt 0.025344 0.204348
vt 0.050009 0.075298
vt 0.021474 0.328715
vt 0.025684 0.452657
vt 0.045584 0.579656
vt 0.055340 0.628674
vt 0.059829 0.021237
vt 0.160236 0.861630
vt 0.983983 0.809290
vt 0.160537 0.792383
vt 0.583696 0.809290
vt 0.584089 0.842862
vt 0.147295 0.792393
vt 0.660422 0.947926
vt 0.129063 0.805519
vt 0.783931 0.988056
vt 0.122027 0.826856
vt 0.907440 0.947926
vt 0.128877 0.848252
vt 0.983773 0.842862
vt 0.146995 0.861536
vt 0.398831 0.083768
vt 0.296816 0.884854
vt 0.411358 0.213692
vt 0.326998 0.863125
vt 0.412027 0.335029
vt 0.338644 0.827805
vt 0.412027 0.457208
vt 0.327305 0.792386
vt 0.395369 0.589987
vt 0.297313 0.770395
vt 0.276629 0.770301
vt 0.370484 0.663674
vt 0.276131 0.884778
vt 0.375825 0.010022
vt 0.386487 0.211136
vt 0.366587 0.084135
vt 0.390696 0.335078
vt 0.386826 0.459445
vt 0.362159 0.588495
vt 0.352338 0.642555
vt 0.356831 0.035116
vt 0.252907 0.862033
vt 0.983983 0.181802
vt 0.253208 0.792786
vt 0.583697 0.181802
vt 0.584089 0.154089
vt 0.266449 0.792911
vt 0.660422 0.049026
vt 0.284567 0.806195
vt 0.783931 0.008896
vt 0.291416 0.827592
vt 0.907440 0.049026
vt 0.284381 0.848928
vt 0.983773 0.154089
vt 0.266148 0.862054
vt 0.016800 0.073807
vt 0.116130 0.884068
vt 0.000143 0.206586
vt 0.086138 0.862078
vt 0.000143 0.328764
vt 0.074800 0.826658
vt 0.000812 0.450101
vt 0.086446 0.791339
vt 0.013341 0.580024
vt 0.116628 0.769610
vt 0.036323 0.653798
vt 0.137313 0.769695
vt 0.041705 0.000143
vt 0.136815 0.884173
vt 0.025344 0.204348
vt 0.050009 0.075298
vt 0.021474 0.328715
vt 0.025684 0.452657
vt 0.045584 0.579656
vt 0.055340 0.628674
vt 0.059829 0.021237
vt 0.160236 0.861630
vt 0.983983 0.809290
vt 0.160537 0.792383
vt 0.583696 0.809290
vt 0.584089 0.842862
vt 0.147295 0.792393
vt 0.660422 0.947926
vt 0.129063 0.805519
vt 0.783931 0.988056
vt 0.122027 0.826856
vt 0.907440 0.947926
vt 0.128877 0.848252
vt 0.983773 0.842862
vt 0.146995 0.861536
vt 0.398831 0.083768
vt 0.296816 0.884854
vt 0.411358 0.213692
vt 0.326998 0.863125
vt 0.412027 0.335029
vt 0.338644 0.827805
vt 0.412027 0.457208
vt 0.327305 0.792386
vt 0.395369 0.589987
vt 0.297313 0.770395
vt 0.276629 0.770301
vt 0.370484 0.663674
vt 0.276131 0.884778
vt 0.375825 0.010022
vt 0.386487 0.211136
vt 0.366587 0.084135
vt 0.390696 0.335078
vt 0.386826 0.459445
vt 0.362159 0.588495
vt 0.352338 0.642555
vt 0.356831 0.035116
vt 0.252907 0.862033
vt 0.983983 0.181802
vt 0.253208 0.792786
vt 0.583697 0.181802
vt 0.584089 0.154089
vt 0.266449 0.792911
vt 0.660422 0.049026
vt 0.284567 0.806195
vt 0.783931 0.008896
vt 0.291416 0.827592
vt 0.907440 0.049026
vt 0.284381 0.848928
vt 0.983773 0.154089
vt 0.266148 0.862054
vt 0.016800 0.073807
vt 0.116130 0.884068
vt 0.000143 0.206586
vt 0.086138 0.862078
vt 0.000143 0.328764
vt 0.074800 0.826658
vt 0.000812 0.450101
vt 0.086446 0.791339
vt 0.013341 0.580024
vt 0.116628 0.769610
vt 0.036323 0.653798
vt 0.137313 0.769695
vt 0.041705 0.000143
vt 0.136815 0.884173
vt 0.025344 0.204348
vt 0.050009 0.075298
vt 0.021474 0.328715
vt 0.025684 0.452657
vt 0.045584 0.579656
vt 0.055340 0.628674
vt 0.059829 0.021237
vt 0.160236 0.861630
vt 0.983983 0.809290
vt 0.160537 0.792383
vt 0.583696 0.809290
vt 0.584089 0.842862
vt 0.147295 0.792393
vt 0.660422 0.947926
vt 0.129063 0.805519
vt 0.783931 0.988056
vt 0.122027 0.826856
vt 0.907440 0.947926
vt 0.128877 0.848252
vt 0.983773 0.842862
vt 0.146995 0.861536
s 0
usemtl Material.001
f 9/16/1 30/51/1 35/56/1 14/21/1
f 8/15/2 29/50/2 30/51/2 9/16/2
f 10/17/3 31/52/3 29/50/3 8/15/3
f 11/18/4 32/53/4 31/52/4 10/17/4
f 15/23/5 16/25/5 17/26/5 18/28/5 19/30/5 20/32/5 21/34/5
f 37/59/6 27/47/6 6/11/6 16/24/6
f 12/19/7 33/54/7 32/53/7 11/18/7
f 1/1/8 2/3/8 8/15/8 9/16/8
f 2/3/9 3/5/9 10/17/9 8/15/9
f 3/5/10 4/7/10 11/18/10 10/17/10
f 4/7/11 5/9/11 12/19/11 11/18/11
f 5/9/12 6/12/12 13/20/12 12/19/12
f 7/14/13 1/1/13 9/16/13 14/21/13
f 6/11/14 5/10/14 17/27/14 16/24/14
f 5/10/15 4/8/15 18/29/15 17/27/15
f 4/8/16 3/6/16 19/31/16 18/29/16
f 3/6/17 2/4/17 20/33/17 19/31/17
f 2/4/18 1/2/18 21/35/18 20/33/18
f 1/2/19 7/13/19 15/22/19 21/35/19
f 13/20/20 34/55/20 33/54/20 12/19/20
f 6/12/21 27/46/21 34/55/21 13/20/21
f 28/49/22 36/57/22 15/22/22 7/13/22
f 14/21/23 35/56/23 28/48/23 7/14/23
f 36/58/24 42/69/24 41/67/24 40/65/24 39/63/24 38/61/24 37/60/24
f 22/36/25 30/51/25 29/50/25 23/38/25
f 23/38/26 29/50/26 31/52/26 24/40/26
f 24/40/27 31/52/27 32/53/27 25/42/27
f 25/42/28 32/53/28 33/54/28 26/44/28
f 26/44/29 33/54/29 34/55/29 27/46/29
f 28/48/30 35/56/30 30/51/30 22/36/30
f 27/47/31 37/59/31 38/62/31 26/45/31
f 26/45/32 38/62/32 39/64/32 25/43/32
f 25/43/33 39/64/33 40/66/33 24/41/33
f 24/41/34 40/66/34 41/68/34 23/39/34
f 23/39/35 41/68/35 42/70/35 22/37/35
f 22/37/36 42/70/36 36/57/36 28/49/36
f 15/23/37 36/58/37 37/60/37 16/25/37
f 51/86/1 72/121/1 77/126/1 56/91/1
f 50/85/2 71/120/2 72/121/2 51/86/2
f 52/87/3 73/122/3 71/120/3 50/85/3
f 53/88/4 74/123/4 73/122/4 52/87/4
f 57/93/5 58/95/5 59/96/5 60/98/5 61/100/5 62/102/5 63/104/5
f 79/129/6 69/117/6 48/81/6 58/94/6
f 54/89/7 75/124/7 74/123/7 53/88/7
f 43/71/8 44/73/8 50/85/8 51/86/8
f 44/73/9 45/75/9 52/87/9 50/85/9
f 45/75/10 46/77/10 53/88/10 52/87/10
f 46/77/11 47/79/11 54/89/11 53/88/11
f 47/79/12 48/82/12 55/90/12 54/89/12
f 49/84/13 43/71/13 51/86/13 56/91/13
f 48/81/14 47/80/14 59/97/14 58/94/14
f 47/80/15 46/78/15 60/99/15 59/97/15
f 46/78/16 45/76/16 61/101/16 60/99/16
f 45/76/17 44/74/17 62/103/17 61/101/17
f 44/74/18 43/72/18 63/105/18 62/103/18
f 43/72/19 49/83/19 57/92/19 63/105/19
f 55/90/20 76/125/20 75/124/20 54/89/20
f 48/82/21 69/116/21 76/125/21 55/90/21
f 70/119/22 78/127/22 57/92/22 49/83/22
f 56/91/23 77/126/23 70/118/23 49/84/23
f 78/128/24 84/139/24 83/137/24 82/135/24 81/133/24 80/131/24 79/130/24
f 64/106/25 72/121/25 71/120/25 65/108/25
f 65/108/26 71/120/26 73/122/26 66/110/26
f 66/110/27 73/122/27 74/123/27 67/112/27
f 67/112/28 74/123/28 75/124/28 68/114/28
f 68/114/29 75/124/29 76/125/29 69/116/29
f 70/118/30 77/126/30 72/121/30 64/106/30
f 69/117/31 79/129/31 80/132/31 68/115/31
f 68/115/32 80/132/32 81/134/32 67/113/32
f 67/113/33 81/134/33 82/136/33 66/111/33
f 66/111/34 82/136/34 83/138/34 65/109/34
f 65/109/35 83/138/35 84/140/35 64/107/35
f 64/107/36 84/140/36 78/127/36 70/119/36
f 57/93/37 78/128/37 79/130/37 58/95/37
f 93/156/1 114/191/1 119/196/1 98/161/1
f 92/155/2 113/190/2 114/191/2 93/156/2
f 94/157/3 115/192/3 113/190/3 92/155/3
f 95/158/4 116/193/4 115/192/4 94/157/4
f 99/163/5 100/165/5 101/166/5 102/168/5 103/170/5 104/172/5 105/174/5
f 121/199/6 111/187/6 90/151/6 100/164/6
f 96/159/7 117/194/7 116/193/7 95/158/7
f 85/141/8 86/143/8 92/155/8 93/156/8
f 86/143/9 87/145/9 94/157/9 92/155/9
f 87/145/10 88/147/10 95/158/10 94/157/10
f 88/147/11 89/149/11 96/159/11 95/158/11
f 89/149/12 90/152/12 97/160/12 96/159/12
f 91/154/13 85/141/13 93/156/13 98/161/13
f 90/151/14 89/150/14 101/167/14 100/164/14
f 89/150/15 88/148/15 102/169/15 101/167/15
f 88/148/16 87/146/16 103/171/16 102/169/16
f 87/146/17 86/144/17 104/173/17 103/171/17
f 86/144/18 85/142/18 105/175/18 104/173/18
f 85/142/19 91/153/19 99/162/19 105/175/19
f 97/160/20 118/195/20 117/194/20 96/159/20
f 90/152/21 111/186/21 118/195/21 97/160/21
f 112/189/22 120/197/22 99/162/22 91/153/22
f 98/161/23 119/196/23 112/188/23 91/154/23
f 120/198/24 126/209/24 125/207/24 124/205/24 123/203/24 122/201/24 121/200/24
f 106/176/25 114/191/25 113/190/25 107/178/25
f 107/178/26 113/190/26 115/192/26 108/180/26
f 108/180/27 115/192/27 116/193/27 109/182/27
f 109/182/28 116/193/28 117/194/28 110/184/28
f 110/184/29 117/194/29 118/195/29 111/186/29
f 112/188/30 119/196/30 114/191/30 106/176/30
f 111/187/31 121/199/31 122/202/31 110/185/31
f 110/185/32 122/202/32 123/204/32 109/183/32
f 109/183/33 123/204/33 124/206/33 108/181/33
f 108/181/34 124/206/34 125/208/34 107/179/34
f 107/179/35 125/208/35 126/210/35 106/177/35
f 106/177/36 126/210/36 120/197/36 112/189/36
f 99/163/37 120/198/37 121/200/37 100/165/37
