# Blender 3.4.1
# www.blender.org
mtllib arbol.mtl
o arbol.006
v -0.100067 -4.445924 -0.946422
v -0.100067 -3.553011 -1.294472
v 0.681764 -4.445924 -0.569912
v 0.954181 -3.553011 -0.786917
v 0.874860 -4.445924 0.276099
v 1.214184 -3.553011 0.353548
v 0.333816 -4.445924 0.954547
v 0.432170 -3.580074 1.253163
v -0.533951 -4.445924 0.954547
v -0.654772 -3.950319 1.287394
v -1.074995 -4.445924 0.276099
v -1.414319 -3.553011 0.353548
v -0.881899 -4.445924 -0.569912
v -1.154015 -3.553011 -0.786917
v -0.100067 -2.500318 -1.436823
v 0.994523 -2.238660 -0.879401
v 1.352966 -2.500318 0.482707
v 0.624299 -2.400323 1.404107
v -0.656138 -2.842416 1.481855
v -1.553101 -2.500318 0.385224
v -1.265310 -2.500318 -0.875672
v -0.226806 0.414819 -1.629095
v 1.137768 -0.236412 -0.968640
v 1.472293 -0.531050 0.563949
v 0.580541 -0.961903 1.466876
v -0.750561 -1.178526 1.540117
v -1.624621 -1.858812 0.448614
v -1.360718 -0.262885 -1.061688
v 1.209356 0.255367 -1.019602
v -0.225666 0.901829 -1.715075
v 1.555178 -0.040363 0.590052
v 0.614507 -0.470738 1.545284
v -0.785733 -0.689274 1.616089
v -1.705806 -1.362760 0.474087
v -1.431587 0.226110 -1.108197
v 1.111126 3.209138 -0.937200
v -0.222795 7.001625 -1.577729
v 1.430040 4.455392 0.567639
v 0.560138 1.753600 1.451565
v -0.733934 3.394285 1.522210
v -1.600441 4.369750 0.453177
v -1.344002 4.240468 -1.021204
v 0.872402 4.733994 -0.708159
v -0.179436 7.692646 -1.233002
v 1.121276 5.194923 0.460605
v 0.419383 3.589660 1.176652
v -0.598791 4.867997 1.231814
v -1.292694 7.186948 0.378636
v -1.096891 5.539282 -0.772061
v 0.440654 6.873187 -0.458335
v -0.311474 9.034816 -0.870343
v 0.641426 8.196559 0.352182
v 0.347465 7.575202 0.971004
v -0.527096 8.453218 0.938055
v -0.927148 10.048046 0.314725
v -0.792962 8.906646 -0.603247
v 0.344348 10.828863 -0.249848
v -0.131607 12.754263 -0.475333
v 0.451269 10.739346 0.272085
v 0.140039 10.369310 0.591418
v -0.355122 9.545090 0.675602
v -0.713628 10.543509 0.203435
v -0.540530 11.163189 -0.324457
v 0.128239 12.426548 -0.032889
v -0.126010 13.307072 -0.134366
v 0.164892 12.391085 0.206434
v -0.003992 12.228237 0.370904
v -0.247579 11.872398 0.401634
v -0.418161 12.302910 0.177368
v -0.352737 12.566978 -0.061284
v -0.100067 -2.981533 -0.894170
v 0.640912 -2.981533 -0.537333
v 0.823919 -2.981533 0.264472
v 0.311145 -2.981533 0.907470
v -0.511280 -2.981533 0.907470
v -1.024054 -2.981533 0.264472
v -0.841047 -2.981533 -0.537333
v -0.100067 -1.378264 -0.678729
v 0.472474 -1.378264 -0.403008
v 0.613880 -1.378264 0.216532
v 0.217669 -1.378264 0.713365
v -0.417804 -1.378264 0.713365
v -0.814015 -1.378264 0.216532
v -0.672609 -1.378264 -0.403008
v -0.100067 -1.263367 -0.223068
v 0.116223 -1.263367 -0.118907
v 0.169643 -1.263367 0.115138
v 0.019965 -1.263367 0.302829
v -0.220100 -1.263367 0.302829
v -0.369778 -1.263367 0.115138
v -0.316358 -1.263367 -0.118907
v 0.099792 -22.936020 -0.726967
v 0.063242 -11.921426 -0.499101
v 0.585558 -22.936020 -0.501648
v 0.377899 -10.328593 -0.368766
v 0.908550 -22.936020 0.001587
v 0.508233 -10.967691 -0.054109
v 0.511699 -22.936020 0.641691
v 0.377899 -12.285312 0.260547
v -0.001144 -22.936020 0.736701
v 0.063242 -13.570476 0.390882
v -0.492861 -22.936020 0.394585
v -0.251414 -13.491756 0.260547
v -0.648399 -22.936020 -0.084608
v -0.381749 -12.832220 -0.054109
v -0.362688 -22.936020 -0.500100
v -0.251414 -12.612449 -0.368766
v 0.056618 -16.988895 -0.566164
v 0.409650 -15.771996 -0.405254
v 0.571023 -14.946210 -0.044039
v 0.422907 -16.768816 0.380456
v 0.053007 -19.494570 0.539720
v -0.348999 -19.494568 0.320678
v -0.517265 -19.494568 -0.067923
v -0.273896 -19.494568 -0.387677
v 0.122725 -2.717745 -0.131442
v -0.050802 -3.596161 -0.203319
v 0.194602 -3.070196 0.042085
v 0.122725 -3.796838 0.215612
v -0.050802 -4.505580 0.287489
v -0.224329 -4.462169 0.215612
v -0.296207 -4.098446 0.042085
v -0.224329 -3.977249 -0.131442
v -0.032085 1.202172 0.008848
v -0.134925 0.681584 -0.033750
v 0.010512 0.993293 0.111688
v -0.032085 0.562653 0.214527
v -0.134925 0.142621 0.257125
v -0.237765 0.168349 0.214527
v -0.280362 0.383906 0.111688
v -0.237765 0.455733 0.008848
v 0.746425 3.768328 -0.192379
v -0.189552 -9.961398 -0.210688
v -0.093714 -11.479019 -0.304427
v 0.063862 -10.553575 -0.317054
v 0.063962 -8.581846 -0.261112
v -0.119744 -8.748119 -0.186203
v -0.222717 -4.947352 -0.571829
v -0.161619 -4.869862 -0.603090
v -0.166777 -6.070407 -0.631290
v -0.219949 -6.419520 -0.636302
v -0.274243 -5.608751 -0.583525
v -0.347030 -0.248981 -0.795980
v -0.307133 0.103481 -0.790906
v -0.292223 0.123176 -0.805908
v -0.304896 -0.785565 -0.820710
v -0.322479 -0.680640 -0.823135
v -0.155634 -9.583245 -0.457358
v -0.241738 -8.333853 -0.377024
v -0.177800 -7.342701 -0.358261
v -0.067339 -7.237493 -0.407084
v -0.064474 -8.749503 -0.449584
v -0.221924 -4.149984 -0.725077
v -0.213009 -3.095341 -0.703575
v -0.251028 -3.135717 -0.680394
v -0.296740 -3.642649 -0.688779
v -0.257302 -4.272079 -0.728795
v -0.111070 -8.990668 0.297619
v -0.236700 -7.407974 0.239371
v -0.196587 -6.030634 0.229027
v -0.012335 -5.960989 0.282333
v 0.022897 -7.724103 0.280106
v -0.156383 -8.181122 0.399582
v -0.270863 -6.600049 0.348675
v -0.234557 -5.348677 0.337831
v -0.067469 -5.283929 0.383708
v -0.032784 -6.522274 0.436464
v -0.224933 -6.048689 0.550349
v -0.314342 -4.725241 0.514416
v -0.286278 -3.746567 0.502489
v -0.156347 -3.692420 0.532286
v -0.128811 -4.662459 0.579464
v -0.295913 -3.599918 0.705432
v -0.365322 -2.570591 0.680908
v -0.343721 -1.805770 0.668132
v -0.242929 -1.759937 0.685318
v -0.221000 -2.519566 0.728122
v -0.362441 -0.352335 0.847319
v -0.410437 0.362057 0.835012
v -0.395756 0.897890 0.821327
v -0.326165 0.934821 0.825011
v -0.310240 0.400492 0.863131
v -0.229088 -2.235033 0.642385
vn 0.4093 -0.3314 -0.8501
vn 0.9198 -0.3315 -0.2098
vn 0.7308 -0.3117 0.6073
vn 0.0949 -0.4176 0.9037
vn -0.7584 -0.4028 0.5125
vn 0.7518 -0.1906 0.6313
vn -0.9199 -0.3314 -0.2100
vn -0.4094 -0.3314 -0.8501
vn -0.0000 -0.0321 -0.9995
vn 0.4364 -0.0529 -0.8982
vn -0.9678 -0.1209 -0.2209
vn 0.1002 -0.1567 0.9825
vn -0.4307 -0.1209 -0.8944
vn 0.9667 -0.0693 -0.2462
vn -0.7898 -0.1143 0.6027
vn 0.4514 -0.0957 -0.8872
vn 0.9588 -0.1567 -0.2370
vn -0.9706 -0.0661 -0.2313
vn 0.0667 -0.0359 0.9971
vn 0.9676 -0.0645 -0.2440
vn -0.4189 -0.0844 -0.9041
vn -0.7675 -0.0887 0.6349
vn 0.7509 -0.0445 0.6589
vn -0.9867 0.0206 -0.1614
vn -0.3723 -0.1509 -0.9158
vn -0.7223 -0.1547 0.6740
vn 0.7387 -0.1577 0.6554
vn 0.3712 -0.1557 -0.9154
vn -0.9358 -0.1512 -0.3186
vn 0.0766 -0.1550 0.9849
vn -0.6482 0.1307 0.7502
vn 0.0680 0.0297 0.9972
vn 0.9755 0.0310 -0.2177
vn -0.4749 0.0238 -0.8797
vn -0.7763 0.0198 0.6300
vn 0.6855 0.0309 0.7274
vn 0.4684 0.0264 -0.8831
vn 0.9156 0.1723 -0.3634
vn 0.3746 0.1996 0.9054
vn 0.8337 0.2062 -0.5123
vn -0.9556 0.1398 -0.2593
vn 0.2577 0.1631 0.9524
vn 0.9080 0.2381 -0.3449
vn -0.8526 0.2598 -0.4535
vn -0.9479 0.1766 -0.2652
vn -0.5958 0.1115 -0.7954
vn -0.6770 0.0865 0.7308
vn 0.7226 0.0879 0.6857
vn 0.8618 0.2200 -0.4571
vn -0.9493 0.1070 -0.2957
vn 0.0864 0.0656 0.9941
vn -0.8988 0.2080 -0.3859
vn 0.0433 0.1632 0.9856
vn 0.9627 0.0477 -0.2665
vn -0.6186 0.1321 -0.7745
vn -0.3156 0.2894 0.9037
vn 0.7774 0.1112 0.6191
vn 0.6008 0.0562 -0.7974
vn -0.6571 0.1194 0.7443
vn 0.6221 0.1391 0.7705
vn 0.9015 0.1892 -0.3893
vn -0.9798 0.1588 -0.1218
vn -0.0324 0.1170 0.9926
vn 0.9747 0.1581 -0.1579
vn -0.1007 0.4968 0.8620
vn 0.4307 -0.1202 0.8944
vn 0.4337 -0.0321 0.9005
vn -0.9744 -0.0321 0.2224
vn 0.7814 -0.0321 -0.6232
vn -0.4337 -0.0321 0.9005
vn -0.7814 -0.0321 -0.6232
vn 0.9744 -0.0321 0.2224
vn 0.7762 -0.1202 -0.6190
vn -0.7762 -0.1202 -0.6190
vn -0.4307 -0.1202 0.8944
vn 0.9679 -0.1202 0.2209
vn -0.0000 -0.1202 -0.9928
vn -0.9679 -0.1202 0.2209
vn 0.2628 -0.9630 0.0600
vn -0.0000 -0.9630 -0.2695
vn 0.1169 -0.9630 0.2428
vn 0.2107 -0.9630 -0.1680
vn -0.2107 -0.9630 -0.1680
vn -0.0000 -1.0000 -0.0000
vn -0.2628 -0.9630 0.0600
vn 0.3640 0.0100 -0.9314
vn 0.9170 0.0103 -0.3987
vn 0.9080 0.0180 0.4185
vn 0.2575 0.0258 0.9659
vn -0.4364 0.0197 0.8996
vn -0.9140 0.0183 0.4053
vn -0.8633 0.0113 -0.5046
vn -0.4618 0.0075 -0.8870
vn -0.5221 0.0273 -0.8524
vn -0.8111 0.0369 -0.5837
vn -0.9361 0.0403 0.3493
vn -0.5311 0.0486 0.8459
vn 0.1378 0.0477 0.9893
vn 0.8625 0.0369 0.5047
vn 0.8591 0.0308 -0.5108
vn 0.3885 0.0246 -0.9211
vn 0.2139 0.0376 -0.9761
vn -0.9270 0.0132 -0.3748
vn -0.4329 0.0272 -0.9010
vn -0.3815 0.0057 0.9244
vn 0.8750 0.0289 0.4833
vn -0.4310 0.0261 -0.9020
vn -0.9203 0.0047 0.3911
vn 0.3300 0.0149 0.9439
vn 0.9501 0.0415 -0.3092
vn -0.9258 -0.0026 0.3780
vn 0.3394 0.0123 0.9406
vn 0.9537 0.0483 -0.2969
vn -0.9261 0.0091 -0.3772
vn -0.3829 -0.0009 0.9238
vn 0.8708 0.0310 0.4907
vn 0.1905 0.0426 -0.9808
vn -0.9117 -0.0330 -0.4095
vn 0.1230 -0.0245 -0.9921
vn 0.8192 0.0168 -0.5732
vn 0.4228 0.0621 0.9041
vn -0.9029 -0.0273 -0.4289
vn -0.8035 0.0371 0.5942
vn 0.3413 -0.0339 0.9393
vn 0.4337 -0.0432 -0.9000
vn 0.3595 -0.0534 -0.9316
vn -0.3865 0.0241 0.9220
vn 0.2807 0.1293 0.9510
vn 0.8062 0.0021 -0.5916
vn 0.9302 0.0088 -0.3669
vn -0.7628 0.0414 0.6453
vn 0.2918 -0.0371 -0.9558
vn 0.5551 0.0390 0.8309
vn -0.9285 -0.0394 -0.3691
vn 0.3406 0.0904 0.9359
vn 0.9050 0.0037 -0.4254
vn -0.6063 0.0368 0.7944
vn 0.9738 0.0265 0.2256
vn 0.1625 0.0869 -0.9829
vn 0.2061 0.1045 -0.9729
vn 0.4158 -0.0497 0.9081
vn -0.9309 -0.0545 0.3611
vn -0.8936 0.0224 -0.4483
vn 0.2447 -0.0373 0.9689
vn -0.8818 0.0206 -0.4713
vn -0.9177 -0.0518 0.3939
vn 0.3950 -0.0467 0.9175
vn 0.9807 0.0363 0.1920
vn 0.9995 0.0301 0.0131
vn 0.0944 0.0563 -0.9939
vn -0.8661 0.0176 -0.4996
vn -0.8132 -0.0425 0.5805
vn 0.9921 0.0346 0.1202
vn 0.6598 -0.0630 0.7488
vn -0.9759 -0.0508 -0.2121
vn -0.9848 -0.0692 0.1596
vn -0.8563 0.0134 -0.5162
vn -0.1169 -0.9630 0.2428
vn 0.2096 0.1635 -0.9640
vt 0.144958 0.802256
vt 0.126069 0.843645
vt 0.372960 0.790738
vt 0.107304 0.780053
vt 0.399533 0.822486
vt 0.077508 0.818135
vt 0.341067 0.808819
vt 0.357518 0.845722
vt 0.305009 0.821766
vt 0.312878 0.859981
vt 0.266088 0.829754
vt 0.269245 0.853984
vt 0.225704 0.827020
vt 0.221661 0.868994
vt 0.185016 0.818234
vt 0.173693 0.860342
vt 0.108108 0.887419
vt 0.051595 0.875816
vt 0.428047 0.870652
vt 0.371363 0.886166
vt 0.328373 0.904716
vt 0.275891 0.897250
vt 0.218331 0.913173
vt 0.163100 0.904715
vt 0.078013 0.966506
vt 0.142475 0.392369
vt 0.025258 0.941681
vt 0.028568 0.038825
vt 0.451254 0.932215
vt 0.159334 0.458885
vt 0.394342 0.950791
vt 0.036666 0.111246
vt 0.342138 0.962349
vt 0.035454 0.175004
vt 0.283250 0.966519
vt 0.049301 0.237331
vt 0.222288 0.980371
vt 0.071774 0.281332
vt 0.150128 0.980051
vt 0.103073 0.344644
vt 0.050354 0.030835
vt 0.180551 0.450557
vt 0.162086 0.382779
vt 0.058375 0.104618
vt 0.057392 0.167489
vt 0.070033 0.228709
vt 0.092541 0.271237
vt 0.122660 0.335416
vt 0.312710 0.360351
vt 0.130970 0.024398
vt 0.275784 0.309195
vt 0.141634 0.079614
vt 0.155284 0.127589
vt 0.188094 0.168542
vt 0.212333 0.216779
vt 0.240171 0.275166
vt 0.248468 0.018060
vt 0.413216 0.263137
vt 0.380347 0.242252
vt 0.259529 0.057171
vt 0.274424 0.094612
vt 0.308376 0.130194
vt 0.328234 0.176102
vt 0.350864 0.203031
vt 0.355333 0.014697
vt 0.454176 0.226015
vt 0.449362 0.190518
vt 0.368797 0.053099
vt 0.364323 0.079333
vt 0.387081 0.110141
vt 0.408538 0.144185
vt 0.432637 0.173388
vt 0.534871 0.165118
vt 0.480858 0.028783
vt 0.531225 0.135173
vt 0.475836 0.050862
vt 0.461719 0.070272
vt 0.465148 0.089473
vt 0.477222 0.110838
vt 0.513472 0.118325
vt 0.580547 0.118738
vt 0.548431 0.042498
vt 0.572508 0.104484
vt 0.568934 0.043530
vt 0.546046 0.052591
vt 0.539890 0.063144
vt 0.547909 0.074739
vt 0.539202 0.073503
vt 0.565986 0.080765
vt 0.546644 0.081439
vt 0.580162 0.084675
vt 0.560228 0.085716
vt 0.584212 0.056605
vt 0.176819 0.741645
vt 0.146197 0.717776
vt 0.345119 0.740162
vt 0.319354 0.755025
vt 0.292035 0.764983
vt 0.264056 0.768996
vt 0.235255 0.766603
vt 0.206158 0.757637
vt 0.214907 0.696001
vt 0.307235 0.694148
vt 0.204145 0.670820
vt 0.293239 0.712251
vt 0.278035 0.720147
vt 0.261990 0.722255
vt 0.245600 0.719299
vt 0.229577 0.710989
vt 0.825558 0.838603
vt 0.234054 0.684474
vt 0.817728 0.844847
vt 0.287148 0.691582
vt 0.229379 0.672433
vt 0.807963 0.842618
vt 0.281642 0.700340
vt 0.272236 0.704460
vt 0.803618 0.833595
vt 0.261653 0.704684
vt 0.807963 0.824571
vt 0.251014 0.701378
vt 0.817728 0.822342
vt 0.241357 0.694626
vt 0.825558 0.828587
vt 0.835843 0.974585
vt 0.733520 0.021973
vt 0.917281 0.008133
vt 0.916596 0.477227
vt 0.805236 0.484137
vt 0.813817 0.978322
vt 0.894684 0.007984
vt 0.903333 0.541750
vt 0.790818 0.968658
vt 0.869732 0.008144
vt 0.888678 0.516361
vt 0.789329 0.937272
vt 0.839070 0.009546
vt 0.871698 0.462871
vt 0.804713 0.921883
vt 0.818193 0.011010
vt 0.853424 0.410143
vt 0.829704 0.922020
vt 0.794389 0.013426
vt 0.839652 0.414703
vt 0.846378 0.934817
vt 0.774211 0.015819
vt 0.828483 0.443278
vt 0.846378 0.955854
vt 0.754067 0.018759
vt 0.815571 0.453950
vt 0.775379 0.272376
vt 0.914418 0.259191
vt 0.898009 0.311871
vt 0.881470 0.348499
vt 0.858178 0.271119
vt 0.831931 0.155759
vt 0.811982 0.157849
vt 0.793609 0.160051
vt 0.776292 0.162528
vt 0.909458 0.849441
vt 0.855187 0.818714
vt 0.917281 0.813818
vt 0.901312 0.835499
vt 0.891665 0.806787
vt 0.881604 0.778964
vt 0.874189 0.781435
vt 0.868023 0.796854
vt 0.860941 0.802517
vt 0.912286 0.986907
vt 0.879857 0.986116
vt 0.917159 0.986631
vt 0.907071 0.986786
vt 0.901489 0.986211
vt 0.897411 0.985432
vt 0.893050 0.985146
vt 0.889022 0.985093
vt 0.884264 0.985884
vt 0.798120 0.733673
vt 0.946566 0.177612
vt 0.802588 0.670268
vt 0.977925 0.177172
vt 0.935149 0.176894
vt 0.809334 0.708851
vt 0.970567 0.178529
vt 0.809334 0.791145
vt 0.963129 0.179509
vt 0.800978 0.784304
vt 0.955823 0.177215
vt 0.960340 0.439883
vt 0.964267 0.440127
vt 0.971079 0.439278
vt 0.977352 0.437952
vt 0.949267 0.436241
vt 0.955716 0.437522
vt 0.968436 0.651598
vt 0.971554 0.652858
vt 0.973880 0.653388
vt 0.976404 0.653505
vt 0.980855 0.652792
vt 0.964822 0.650068
vt 0.978089 0.331014
vt 0.940694 0.332663
vt 0.950033 0.330241
vt 0.957497 0.331954
vt 0.965733 0.331349
vt 0.972364 0.331859
vt 0.974025 0.515378
vt 0.969848 0.515182
vt 0.965362 0.514729
vt 0.961616 0.513354
vt 0.956745 0.513188
vt 0.977763 0.515677
vt 0.972930 0.696242
vt 0.963580 0.695885
vt 0.957377 0.697541
vt 0.988791 0.699288
vt 0.949669 0.701456
vt 0.982921 0.696235
vt 0.973016 0.725946
vt 0.966511 0.725707
vt 0.961354 0.726864
vt 0.987068 0.728941
vt 0.954323 0.730321
vt 0.982123 0.728303
vt 0.975663 0.788925
vt 0.970112 0.791255
vt 0.967141 0.794224
vt 0.961778 0.796853
vt 0.986351 0.795840
vt 0.982257 0.793746
vt 0.978836 0.872442
vt 0.975344 0.872911
vt 0.973249 0.874663
vt 0.969086 0.876790
vt 0.986321 0.875539
vt 0.983100 0.874447
vt 0.983222 0.987111
vt 0.980773 0.987499
vt 0.979213 0.988331
vt 0.988791 0.989891
vt 0.976342 0.989985
vt 0.986135 0.988954
s 0
usemtl arbol
f 1/1/1 2/2/1 4/6/1 3/4/1
f 3/3/2 4/5/2 6/8/2 5/7/2
f 5/7/3 6/8/3 8/10/3 7/9/3
f 7/9/4 8/10/4 10/12/4 9/11/4
f 9/11/5 10/12/5 12/14/5 11/13/5
f 8/10/6 6/8/6 17/20/6 18/21/6
f 11/13/7 12/14/7 14/16/7 13/15/7
f 13/15/8 14/16/8 2/2/8 1/1/8
f 7/9/9 9/11/9 75/99/9 74/98/9
f 16/18/10 15/17/10 22/25/10 23/27/10
f 14/16/11 12/14/11 20/23/11 21/24/11
f 10/12/12 8/10/12 18/21/12 19/22/12
f 2/2/13 14/16/13 21/24/13 15/17/13
f 6/8/14 4/5/14 16/19/14 17/20/14
f 12/14/15 10/12/15 19/22/15 20/23/15
f 4/6/16 2/2/16 15/17/16 16/18/16
f 24/32/17 23/28/17 29/41/17 31/44/17
f 21/24/18 20/23/18 27/37/18 28/39/18
f 19/22/19 18/21/19 25/33/19 26/35/19
f 17/20/20 16/19/20 23/29/20 24/31/20
f 15/17/21 21/24/21 28/39/21 22/25/21
f 20/23/22 19/22/22 26/35/22 27/37/22
f 18/21/23 17/20/23 24/31/23 25/33/23
f 35/48/24 34/47/24 41/55/24 42/56/24
f 22/26/25 28/40/25 35/48/25 30/43/25
f 27/38/26 26/36/26 33/46/26 34/47/26
f 25/34/27 24/32/27 31/44/27 32/45/27
f 23/30/28 22/26/28 30/43/28 29/42/28
f 28/40/29 27/38/29 34/47/29 35/48/29
f 26/36/30 25/34/30 32/45/30 33/46/30
f 41/55/31 40/54/31 47/62/31 48/63/31
f 33/46/32 32/45/32 39/53/32 40/54/32
f 31/44/33 29/41/33 36/50/33 38/52/33
f 30/43/34 35/48/34 42/56/34 37/51/34
f 34/47/35 33/46/35 40/54/35 41/55/35
f 32/45/36 31/44/36 38/52/36 39/53/36
f 29/42/37 30/43/37 37/51/37 36/49/37
f 45/60/38 43/57/38 50/65/38 52/68/38
f 39/53/39 38/52/39 45/60/39 46/61/39
f 36/49/40 37/51/40 44/59/40 43/58/40
f 42/56/41 41/55/41 48/63/41 49/64/41
f 40/54/42 39/53/42 46/61/42 47/62/42
f 38/52/43 36/50/43 43/57/43 45/60/43
f 37/51/44 42/56/44 49/64/44 44/59/44
f 56/72/45 55/71/45 62/79/45 63/80/45
f 44/59/46 49/64/46 56/72/46 51/67/46
f 48/63/47 47/62/47 54/70/47 55/71/47
f 46/61/48 45/60/48 52/68/48 53/69/48
f 43/58/49 44/59/49 51/67/49 50/66/49
f 49/64/50 48/63/50 55/71/50 56/72/50
f 47/62/51 46/61/51 53/69/51 54/70/51
f 58/75/52 63/80/52 70/92/52 65/83/52
f 54/70/53 53/69/53 60/77/53 61/78/53
f 52/68/54 50/65/54 57/74/54 59/76/54
f 51/67/55 56/72/55 63/80/55 58/75/55
f 55/71/56 54/70/56 61/78/56 62/79/56
f 53/69/57 52/68/57 59/76/57 60/77/57
f 50/66/58 51/67/58 58/75/58 57/73/58
f 62/79/59 61/78/59 68/88/59 69/90/59
f 60/77/60 59/76/60 66/85/60 67/86/60
f 57/73/61 58/75/61 65/83/61 64/81/61
f 63/80/62 62/79/62 69/90/62 70/92/62
f 61/78/63 60/77/63 67/86/63 68/88/63
f 59/76/64 57/74/64 64/82/64 66/85/64
f 64/82/65 65/84/65 70/93/65 69/91/65 68/89/65 67/87/65 66/85/65
f 77/101/66 71/94/66 78/102/66 84/109/66
f 13/15/67 1/1/67 71/94/67 77/101/67
f 3/3/68 5/7/68 73/97/68 72/96/68
f 9/11/69 11/13/69 76/100/69 75/99/69
f 1/1/70 3/4/70 72/95/70 71/94/70
f 5/7/71 7/9/71 74/98/71 73/97/71
f 11/13/72 13/15/72 77/101/72 76/100/72
f 75/99/73 76/100/73 83/108/73 82/107/73
f 73/97/74 74/98/74 81/106/74 80/105/74
f 71/94/75 72/95/75 79/104/75 78/102/75
f 76/100/76 77/101/76 84/109/76 83/108/76
f 74/98/77 75/99/77 82/107/77 81/106/77
f 72/96/78 73/97/78 80/105/78 79/103/78
f 84/109/79 91/123/79 90/121/79 83/108/79
f 82/107/80 89/119/80 88/117/80 81/106/80
f 78/102/81 85/111/81 91/123/81 84/109/81
f 83/108/82 90/121/82 89/119/82 82/107/82
f 81/106/83 88/117/83 87/116/83 80/105/83
f 85/110/84 86/112/84 87/115/84 88/118/84 89/120/84 90/122/84 91/124/84
f 80/105/85 87/116/85 86/113/85 79/103/85
f 108/152/86 93/128/86 95/132/86 109/153/86
f 109/153/87 95/132/87 97/135/87 110/154/87
f 110/154/88 97/135/88 99/138/88 111/155/88
f 111/155/89 99/138/89 101/141/89 112/156/89
f 112/156/90 101/141/90 103/144/90 113/157/90
f 113/157/91 103/144/91 105/147/91 114/158/91
f 114/158/92 105/147/92 107/150/92 115/159/92
f 115/159/93 107/150/93 93/129/93 108/151/93
f 92/125/84 94/130/84 96/133/84 98/136/84 100/139/84 102/142/84 104/145/84 106/148/84
f 106/149/94 115/159/94 108/151/94 92/126/94
f 104/146/95 114/158/95 115/159/95 106/149/95
f 102/143/96 113/157/96 114/158/96 104/146/96
f 100/140/97 112/156/97 113/157/97 102/143/97
f 98/137/98 111/155/98 112/156/98 100/140/98
f 96/134/99 110/154/99 111/155/99 98/137/99
f 94/131/100 109/153/100 110/154/100 96/134/100
f 92/127/101 108/152/101 109/153/101 94/131/101
f 93/128/102 117/162/102 116/160/102 95/132/102
f 107/150/103 105/147/103 122/167/103 123/168/103
f 117/161/104 123/168/104 131/177/104 125/170/104
f 101/141/105 120/165/105 121/166/105 103/144/105
f 97/135/106 118/163/106 119/164/106 99/138/106
f 107/150/107 123/168/107 117/161/107 93/129/107
f 103/144/108 121/166/108 122/167/108 105/147/108
f 99/138/109 119/164/109 120/165/109 101/141/109
f 95/132/110 116/160/110 118/163/110 97/135/110
f 122/167/111 121/166/111 129/175/111 130/176/111
f 120/165/112 119/164/112 127/173/112 128/174/112
f 118/163/113 116/160/113 124/169/113 126/172/113
f 123/168/114 122/167/114 130/176/114 131/177/114
f 121/166/115 120/165/115 128/174/115 129/175/115
f 119/164/116 118/163/116 126/172/116 127/173/116
f 116/160/117 117/162/117 125/171/117 124/169/117
f 141/193/118 142/194/118 156/210/118 157/211/118
f 157/212/119 147/199/119 146/198/119 153/207/119
f 135/184/120 152/206/120 151/205/120 136/186/120
f 138/189/121 139/190/121 154/208/121 155/209/121
f 157/211/122 156/210/122 143/195/122 147/200/122
f 137/188/123 150/204/123 149/203/123 133/179/123
f 133/178/124 134/180/124 135/183/124 136/185/124 137/187/124
f 140/191/125 152/206/125 148/201/125 141/192/125
f 148/201/126 152/206/126 135/184/126 134/181/126
f 156/210/127 155/209/127 144/196/127 143/195/127
f 151/205/128 150/204/128 137/188/128 136/186/128
f 154/208/129 153/207/129 146/198/129 145/197/129
f 152/206/130 140/191/130 139/190/130 151/205/130
f 150/204/131 138/189/131 142/194/131 149/203/131
f 140/191/132 141/192/132 157/212/132 153/207/132
f 155/209/133 154/208/133 145/197/133 144/196/133
f 142/194/134 141/193/134 148/202/134 149/203/134
f 138/189/135 150/204/135 151/205/135 139/190/135
f 139/190/136 140/191/136 153/207/136 154/208/136
f 142/194/137 138/189/137 155/209/137 156/210/137
f 162/218/138 161/216/138 166/222/138 167/224/138
f 170/227/139 175/233/139 176/234/139 171/228/139
f 165/221/140 170/227/140 171/228/140 166/223/140
f 167/224/141 172/230/141 168/225/141 163/219/141
f 164/220/142 163/219/142 168/225/142 169/226/142
f 160/215/143 159/214/143 164/220/143 165/221/143
f 173/231/144 177/236/144 182/242/144 178/237/144
f 165/221/145 164/220/145 169/226/145 170/227/145
f 169/226/146 168/225/146 173/231/146 174/232/146
f 168/225/147 172/230/147 177/236/147 173/231/147
f 167/224/148 166/222/148 171/229/148 172/230/148
f 177/236/149 176/235/149 181/240/149 182/242/149
f 176/234/150 175/233/150 180/239/150 181/241/150
f 170/227/151 169/226/151 174/232/151 175/233/151
f 173/231/152 178/237/152 179/238/152 174/232/152
f 172/230/153 171/229/153 176/235/153 177/236/153
f 158/213/154 162/218/154 167/224/154 163/219/154
f 133/179/155 149/203/155 148/202/155 134/182/155
f 158/213/156 163/219/156 164/220/156 159/214/156
f 175/233/157 174/232/157 179/238/157 180/239/157
f 78/102/158 79/104/158 86/114/158 85/111/158
f 161/217/159 160/215/159 165/221/159 166/223/159
