# Blender 3.4.1
# www.blender.org
mtllib bolas.mtl
o bolas
v 0.000000 0.707107 -0.707107
v 0.000000 0.000000 -1.000000
v 0.000000 -0.707107 -0.707107
v 0.000000 -1.000000 0.000000
v 0.672498 0.707107 -0.218508
v 0.951056 0.000000 -0.309017
v 0.672498 -0.707107 -0.218508
v 0.415627 0.707107 0.572061
v 0.587785 0.000000 0.809017
v 0.415627 -0.707107 0.572061
v 0.000000 1.000000 0.000000
v -0.415627 0.707107 0.572061
v -0.587785 0.000000 0.809017
v -0.415627 -0.707107 0.572061
v -0.672498 0.707107 -0.218508
v -0.951056 0.000000 -0.309017
v -0.672498 -0.707107 -0.218508
v 0.603720 1.446716 -2.685761
v 1.010797 1.918900 -3.134446
v 1.756926 2.007796 -3.293750
v 2.405033 1.661330 -3.070355
v 0.943682 1.563699 -1.932980
v 1.491576 2.084339 -2.069853
v 2.096888 2.124779 -2.540969
v 1.379427 0.879622 -1.737777
v 2.107812 1.116908 -1.793793
v 2.532632 1.440702 -2.345765
v 0.774155 0.867843 -2.210529
v 1.308770 0.339857 -2.369916
v 2.007888 0.353564 -2.687773
v 2.461976 0.900937 -2.977905
v 0.829357 0.690340 -2.955803
v 1.329896 0.849223 -3.516343
v 1.982563 1.251420 -3.563791
v 0.645273 2.303009 -0.709050
v 1.124786 2.959701 -0.688547
v 1.919189 3.095454 -0.798516
v 2.563130 2.630745 -0.974538
v 1.022494 1.763058 -0.120352
v 1.658259 2.196095 0.143998
v 2.296411 2.555503 -0.209818
v 1.403700 1.100281 -0.562865
v 2.197365 1.258787 -0.481810
v 2.677616 1.892726 -0.652331
v 0.761540 1.510060 -0.848014
v 1.262076 1.230613 -1.425051
v 1.997078 1.443104 -1.701125
v 2.535993 2.023058 -1.514517
v 0.793342 1.973940 -1.515398
v 1.334188 2.494327 -1.828896
v 2.067259 2.766385 -1.604864
v 0.797052 3.320123 0.600200
v 1.429095 3.830055 0.554498
v 2.237472 3.749058 0.594024
v 2.748648 3.124579 0.695625
v 0.918994 2.921841 1.379244
v 1.601547 3.266799 1.656233
v 2.359415 3.350776 1.373068
v 1.166574 2.088195 1.223852
v 1.951679 2.087845 1.436475
v 2.606995 2.517130 1.217676
v 0.711586 2.517973 0.704359
v 1.197645 1.971256 0.348770
v 1.995619 1.922468 0.198922
v 2.638066 2.400190 0.342594
v 0.969268 2.732629 -0.036668
v 1.672645 2.999213 -0.346170
v 2.409688 3.161564 -0.042844
v 1.330721 0.693298 -1.161086
v 1.890670 1.252028 -1.350493
v 2.694550 1.241795 -1.474066
v 3.271458 0.668594 -1.459417
v 1.642620 0.345632 -0.411249
v 2.331763 0.760354 -0.290063
v 3.006449 0.894129 -0.724229
v 1.930405 -0.470704 -0.587838
v 2.738752 -0.394120 -0.539798
v 3.294234 0.077793 -0.900818
v 1.342712 -0.107098 -1.016797
v 1.796366 -0.627562 -1.446813
v 2.549192 -0.615950 -1.754572
v 3.160195 -0.079065 -1.759793
v 1.425741 0.091831 -1.801100
v 2.025049 0.401426 -2.255609
v 2.789570 0.640328 -2.114079
v 2.219898 -0.029388 1.170993
v 3.088052 0.135211 1.139323
v 3.589361 0.787157 0.814604
v 3.430165 1.544550 0.387053
v 1.960014 0.003233 0.247100
v 2.720520 0.181344 -0.167260
v 3.329477 0.819779 -0.109289
v 1.447317 0.803757 0.111138
v 1.995458 1.313456 -0.359539
v 2.816781 1.620303 -0.245251
v 1.493452 0.389781 0.891063
v 1.390338 1.265887 0.951002
v 1.914876 1.967007 0.828209
v 2.759801 2.082433 0.594613
v 1.867819 0.750975 1.606028
v 2.590137 1.238811 1.754556
v 3.237282 1.567520 1.249639
v 3.617173 -0.478994 1.124346
v 2.935435 -0.047414 1.021540
v 2.335567 -0.041861 0.472244
v 2.168964 -0.465589 -0.201770
v 4.046753 -0.356465 0.362207
v 3.542954 0.125869 -0.056287
v 2.765148 0.080668 -0.289894
v 4.019243 -1.113958 -0.091506
v 3.504047 -0.945388 -0.697935
v 2.737637 -0.676825 -0.743608
v 3.981428 -1.083788 0.720440
v 3.572659 -1.704643 0.390222
v 2.872483 -1.780744 -0.016668
v 2.291054 -1.267510 -0.261879
v 3.324167 -1.312214 1.141660
v 2.521061 -1.225765 1.046026
v 2.042561 -0.875081 0.489559
v -0.144597 1.072328 -1.591500
v 0.466437 1.591395 -1.728629
v 1.271333 1.575853 -1.612450
v 1.798595 1.034805 -1.311019
v -0.071770 0.903486 -0.727442
v 0.569430 1.352616 -0.506666
v 1.344160 1.407010 -0.748391
v 0.223810 0.076152 -0.634920
v 0.987443 0.182590 -0.375820
v 1.639740 0.579677 -0.655870
v -0.203834 0.322714 -1.281392
v 0.333661 -0.266325 -1.441797
v 1.142797 -0.301747 -1.516916
v 1.749592 0.237199 -1.462747
v 0.105973 0.349345 -2.032996
v 0.820797 0.568943 -2.352998
v 1.521904 0.852870 -2.053946
v 0.053497 1.791873 0.505699
v 0.688312 2.271079 0.335493
v 1.479578 2.148342 0.192553
v 1.963782 1.495561 0.160612
v 0.320551 1.356923 1.226747
v 1.065982 1.655967 1.355209
v 1.746631 1.713392 0.913601
v 0.479535 0.518911 0.996817
v 1.290819 0.470838 1.030038
v 1.905615 0.875380 0.683671
v -0.053000 0.991437 0.603467
v 0.310739 0.435940 0.133664
v 1.052106 0.353500 -0.190644
v 1.736819 0.792410 -0.179482
v 0.047434 1.222674 -0.169863
v 0.679736 1.466110 -0.619897
v 1.473514 1.579144 -0.483009
v 0.510556 0.273071 0.246256
v 1.107191 0.824466 0.206411
v 1.916216 0.791889 0.128847
v 2.463713 0.194424 0.058999
v 0.755029 -0.235467 0.925985
v 1.452928 0.105285 1.167693
v 2.160688 0.283352 0.808575
v 1.015952 -1.015393 0.603428
v 1.821929 -0.997697 0.711529
v 2.421611 -0.496575 0.486019
v 0.475811 -0.539296 0.225040
v 0.932738 -0.988876 -0.275652
v 1.704247 -0.960196 -0.531678
v 2.338398 -0.470058 -0.393061
v 0.620387 -0.192561 -0.496396
v 1.262515 0.165963 -0.843857
v 2.026046 0.326257 -0.613805
vn 0.5573 -0.3177 -0.7671
vn 0.2679 0.8901 -0.3687
vn 0.2679 -0.8901 -0.3687
vn 0.5573 0.3177 -0.7671
vn 0.4334 -0.8901 0.1408
vn 0.9018 0.3177 0.2930
vn 0.9018 -0.3177 0.2930
vn 0.4334 0.8901 0.1408
vn -0.0000 0.8901 0.4557
vn -0.0000 -0.8901 0.4557
vn -0.0000 0.3177 0.9482
vn -0.0000 -0.3177 0.9482
vn -0.9018 -0.3177 0.2930
vn -0.4334 0.8901 0.1408
vn -0.4334 -0.8901 0.1408
vn -0.9018 0.3177 0.2930
vn -0.5573 -0.3177 -0.7671
vn -0.2679 0.8901 -0.3687
vn -0.2679 -0.8901 -0.3687
vn -0.5573 0.3177 -0.7671
vn -0.1370 0.9863 -0.0914
vn -0.9132 0.0618 0.4028
vn 0.5333 0.7656 -0.3598
vn -0.6534 0.7351 0.1808
vn 0.8412 0.5405 0.0164
vn -0.0128 0.2668 0.9637
vn 0.5035 0.5180 0.6914
vn -0.6053 -0.1633 0.7791
vn -0.4604 -0.6490 0.6056
vn 0.9861 0.0548 -0.1570
vn 0.2887 -0.7438 0.6028
vn 0.8050 -0.4926 0.3306
vn 0.3508 -0.6489 -0.6752
vn -0.6787 -0.7241 0.1222
vn 0.7678 -0.0204 -0.6404
vn -0.1656 -0.9001 -0.4030
vn -0.2314 0.2651 -0.9360
vn -0.9586 -0.2848 -0.0032
vn 0.4879 0.4189 -0.7658
vn -0.7478 0.0139 -0.6638
vn -0.0293 0.7272 0.6858
vn -0.8980 -0.2003 0.3917
vn 0.6109 0.7383 0.2857
vn -0.5680 0.3921 0.7236
vn 0.8952 0.2875 0.3405
vn 0.0235 -0.5458 0.8376
vn 0.5621 -0.2107 0.7998
vn -0.6138 -0.6511 0.4465
vn -0.5240 -0.8507 -0.0425
vn 0.9850 0.0880 -0.1485
vn 0.2103 -0.9610 -0.1798
vn 0.7489 -0.6259 -0.2176
vn 0.2730 0.0554 -0.9604
vn -0.7527 -0.5232 -0.3995
vn 0.7562 0.4154 -0.5055
vn -0.2657 -0.2797 -0.9226
vn -0.2080 0.8917 -0.4021
vn -0.9839 -0.1213 -0.1312
vn 0.5250 0.8174 -0.2372
vn -0.7467 0.5566 -0.3643
vn 0.0676 0.8926 0.4457
vn -0.9669 0.1314 0.2185
vn 0.7392 0.6395 0.2112
vn -0.5414 0.7112 0.4484
vn 0.8777 0.1777 0.4450
vn -0.2532 -0.2494 0.9347
vn 0.3558 -0.0681 0.9321
vn -0.8284 -0.3303 0.4523
vn -0.7240 -0.6866 0.0660
vn 0.9822 -0.1786 0.0587
vn -0.0360 -0.9907 0.1311
vn 0.5731 -0.8094 0.1285
vn 0.4192 -0.3068 -0.8545
vn -0.7980 -0.4451 -0.4064
vn 0.9082 0.0630 -0.4137
vn -0.1898 -0.4882 -0.8519
vn 0.1068 0.7450 -0.6584
vn -0.9481 0.0605 -0.3122
vn 0.7581 0.5686 -0.3195
vn -0.5022 0.5637 -0.6558
vn 0.0723 0.9160 0.3946
vn -0.9115 0.0597 0.4068
vn 0.7039 0.7094 0.0361
vn -0.5043 0.6841 0.5270
vn 0.9287 0.2731 0.2510
vn -0.0367 -0.2236 0.9740
vn 0.5400 0.0083 0.8416
vn -0.6868 -0.3766 0.6217
vn -0.6292 -0.7414 0.2336
vn 0.9863 -0.0917 -0.1372
vn 0.0832 -0.9825 0.1664
vn 0.6599 -0.7506 0.0341
vn 0.2663 -0.3119 -0.9120
vn -0.8183 -0.5305 -0.2212
vn 0.7971 0.1192 -0.5919
vn -0.3103 -0.5439 -0.7797
vn -0.0968 0.7181 -0.6892
vn -0.9928 -0.0354 -0.1141
vn 0.6226 0.6143 -0.4848
vn -0.6735 0.4862 -0.5569
vn 0.7152 -0.6618 -0.2246
vn -0.5304 -0.8393 0.1196
vn 0.9619 0.0504 -0.2688
vn 0.1826 -0.9794 -0.0859
vn 0.6955 0.3377 -0.6342
vn -0.3717 -0.3818 -0.8462
vn 0.1610 -0.0642 -0.9849
vn -0.7967 -0.5520 -0.2459
vn -0.9932 -0.1167 -0.0032
vn 0.4991 0.7731 -0.3915
vn -0.7803 0.5240 -0.3413
vn -0.2477 0.8416 -0.4799
vn 0.0540 0.8038 0.5925
vn -0.8482 -0.1349 0.5123
vn 0.6441 0.7549 0.1239
vn -0.4787 0.4862 0.7311
vn 0.6491 -0.1254 0.7503
vn -0.5621 -0.5815 0.5881
vn 0.9301 0.3083 0.1998
vn 0.1164 -0.4430 0.8889
vn -0.0901 0.9900 0.1084
vn 0.8460 0.1725 0.5046
vn -0.6721 0.6903 -0.2678
vn 0.4518 0.8052 0.3841
vn -0.5214 0.4523 -0.7236
vn 0.7653 0.3100 -0.5640
vn 0.2235 0.4949 -0.8397
vn 0.9967 -0.0655 0.0488
vn 0.8190 -0.5708 0.0593
vn -0.6991 -0.0530 -0.7131
vn 0.3956 -0.7413 -0.5422
vn -0.1463 -0.5565 -0.8179
vn -0.6883 -0.7111 0.1437
vn 0.5584 -0.6451 0.5216
vn -0.9596 -0.1273 -0.2509
vn -0.1464 -0.8959 0.4195
vn -0.6536 0.2447 0.7162
vn 0.5751 -0.1857 0.7967
vn -0.9429 0.3321 0.0243
vn -0.1117 0.0599 0.9919
vn -0.0088 0.9813 0.1925
vn -0.9867 0.1223 0.1071
vn 0.6905 0.7187 0.0822
vn -0.6075 0.7684 0.2013
vn 0.8285 0.3453 0.4408
vn -0.3202 -0.0085 0.9473
vn 0.2785 0.2044 0.9384
vn -0.8486 -0.2511 0.4656
vn -0.6967 -0.6896 0.1978
vn 0.9805 -0.0932 0.1730
vn -0.0041 -0.9207 0.3902
vn 0.5946 -0.7078 0.3814
vn 0.5027 -0.4948 -0.7089
vn -0.7408 -0.5872 -0.3262
vn 0.9363 0.0092 -0.3510
vn -0.0960 -0.7077 -0.7000
vn 0.1298 0.5491 -0.8256
vn -0.9201 -0.0854 -0.3823
vn 0.7571 0.5110 -0.4071
vn -0.4689 0.3362 -0.8167
vn 0.2152 0.8694 0.4447
vn -0.8861 0.1705 0.4310
vn 0.8031 0.5928 0.0601
vn -0.3878 0.7187 0.5772
vn 0.9628 0.1157 0.2442
vn -0.0556 -0.2740 0.9601
vn 0.5474 -0.1233 0.8277
vn -0.7264 -0.3066 0.6151
vn -0.7301 -0.6518 0.2054
vn 0.9591 -0.2295 -0.1655
vn -0.0632 -0.9922 0.1077
vn 0.5398 -0.8414 -0.0247
vn 0.2028 -0.2926 -0.9345
vn -0.8920 -0.3880 -0.2319
vn 0.7972 0.0342 -0.6028
vn -0.4002 -0.4434 -0.8021
vn 0.0022 0.7647 -0.6443
vn -0.9884 0.1202 -0.0924
vn 0.7008 0.5425 -0.4633
vn -0.6008 0.6140 -0.5119
vn 0.0880 0.8125 0.5763
vn -0.9331 0.0305 0.3584
vn 0.7319 0.6451 0.2194
vn -0.5064 0.5932 0.6259
vn 0.9214 0.1622 0.3532
vn -0.1123 -0.4116 0.9044
vn 0.4821 -0.1922 0.8548
vn -0.7436 -0.4524 0.4923
vn -0.6770 -0.7348 0.0419
vn 0.9880 -0.1202 -0.0971
vn 0.0263 -0.9991 -0.0326
vn 0.6207 -0.7798 -0.0823
vn 0.3122 -0.1381 -0.9399
vn -0.8253 -0.4264 -0.3703
vn 0.8397 0.1882 -0.5094
vn -0.2822 -0.3575 -0.8903
vn -0.0170 0.8460 -0.5329
vn -0.9835 0.0466 -0.1747
vn 0.6815 0.6612 -0.3138
vn -0.6114 0.6266 -0.4833
vt 0.600000 0.750000
vt 0.600000 0.500000
vt 0.600000 0.250000
vt 0.500000 0.000000
vt 0.300000 0.000000
vt 0.100000 0.000000
vt 0.900000 0.000000
vt 0.700000 0.000000
vt 0.400000 0.750000
vt 0.400000 0.500000
vt 0.400000 0.250000
vt 0.200000 0.750000
vt 0.200000 0.500000
vt 0.200000 0.250000
vt 0.500000 1.000000
vt 0.300000 1.000000
vt 0.100000 1.000000
vt 0.900000 1.000000
vt 0.700000 1.000000
vt 0.000000 0.750000
vt 1.000000 0.750000
vt 0.000000 0.500000
vt 1.000000 0.500000
vt 0.000000 0.250000
vt 1.000000 0.250000
vt 0.800000 0.750000
vt 0.800000 0.500000
vt 0.800000 0.250000
vt 0.600000 0.750000
vt 0.600000 0.500000
vt 0.600000 0.250000
vt 0.500000 0.000000
vt 0.300000 0.000000
vt 0.100000 0.000000
vt 0.900000 0.000000
vt 0.700000 0.000000
vt 0.400000 0.750000
vt 0.400000 0.500000
vt 0.400000 0.250000
vt 0.200000 0.750000
vt 0.200000 0.500000
vt 0.200000 0.250000
vt 0.500000 1.000000
vt 0.300000 1.000000
vt 0.100000 1.000000
vt 0.900000 1.000000
vt 0.700000 1.000000
vt 0.000000 0.750000
vt 1.000000 0.750000
vt 0.000000 0.500000
vt 1.000000 0.500000
vt 0.000000 0.250000
vt 1.000000 0.250000
vt 0.800000 0.750000
vt 0.800000 0.500000
vt 0.800000 0.250000
vt 0.600000 0.750000
vt 0.600000 0.500000
vt 0.600000 0.250000
vt 0.500000 0.000000
vt 0.300000 0.000000
vt 0.100000 0.000000
vt 0.900000 0.000000
vt 0.700000 0.000000
vt 0.400000 0.750000
vt 0.400000 0.500000
vt 0.400000 0.250000
vt 0.200000 0.750000
vt 0.200000 0.500000
vt 0.200000 0.250000
vt 0.500000 1.000000
vt 0.300000 1.000000
vt 0.100000 1.000000
vt 0.900000 1.000000
vt 0.700000 1.000000
vt 0.000000 0.750000
vt 1.000000 0.750000
vt 0.000000 0.500000
vt 1.000000 0.500000
vt 0.000000 0.250000
vt 1.000000 0.250000
vt 0.800000 0.750000
vt 0.800000 0.500000
vt 0.800000 0.250000
vt 0.600000 0.750000
vt 0.600000 0.500000
vt 0.600000 0.250000
vt 0.500000 0.000000
vt 0.300000 0.000000
vt 0.100000 0.000000
vt 0.900000 0.000000
vt 0.700000 0.000000
vt 0.400000 0.750000
vt 0.400000 0.500000
vt 0.400000 0.250000
vt 0.200000 0.750000
vt 0.200000 0.500000
vt 0.200000 0.250000
vt 0.500000 1.000000
vt 0.300000 1.000000
vt 0.100000 1.000000
vt 0.900000 1.000000
vt 0.700000 1.000000
vt 0.000000 0.750000
vt 1.000000 0.750000
vt 0.000000 0.500000
vt 1.000000 0.500000
vt 0.000000 0.250000
vt 1.000000 0.250000
vt 0.800000 0.750000
vt 0.800000 0.500000
vt 0.800000 0.250000
vt 0.600000 0.750000
vt 0.600000 0.500000
vt 0.600000 0.250000
vt 0.500000 0.000000
vt 0.300000 0.000000
vt 0.100000 0.000000
vt 0.900000 0.000000
vt 0.700000 0.000000
vt 0.400000 0.750000
vt 0.400000 0.500000
vt 0.400000 0.250000
vt 0.200000 0.750000
vt 0.200000 0.500000
vt 0.200000 0.250000
vt 0.500000 1.000000
vt 0.300000 1.000000
vt 0.100000 1.000000
vt 0.900000 1.000000
vt 0.700000 1.000000
vt 0.000000 0.750000
vt 1.000000 0.750000
vt 0.000000 0.500000
vt 1.000000 0.500000
vt 0.000000 0.250000
vt 1.000000 0.250000
vt 0.800000 0.750000
vt 0.800000 0.500000
vt 0.800000 0.250000
vt 0.600000 0.750000
vt 0.600000 0.500000
vt 0.600000 0.250000
vt 0.500000 0.000000
vt 0.300000 0.000000
vt 0.100000 0.000000
vt 0.900000 0.000000
vt 0.700000 0.000000
vt 0.400000 0.750000
vt 0.400000 0.500000
vt 0.400000 0.250000
vt 0.200000 0.750000
vt 0.200000 0.500000
vt 0.200000 0.250000
vt 0.500000 1.000000
vt 0.300000 1.000000
vt 0.100000 1.000000
vt 0.900000 1.000000
vt 0.700000 1.000000
vt 0.000000 0.750000
vt 1.000000 0.750000
vt 0.000000 0.500000
vt 1.000000 0.500000
vt 0.000000 0.250000
vt 1.000000 0.250000
vt 0.800000 0.750000
vt 0.800000 0.500000
vt 0.800000 0.250000
vt 0.600000 0.750000
vt 0.600000 0.500000
vt 0.600000 0.250000
vt 0.500000 0.000000
vt 0.300000 0.000000
vt 0.100000 0.000000
vt 0.900000 0.000000
vt 0.700000 0.000000
vt 0.400000 0.750000
vt 0.400000 0.500000
vt 0.400000 0.250000
vt 0.200000 0.750000
vt 0.200000 0.500000
vt 0.200000 0.250000
vt 0.500000 1.000000
vt 0.300000 1.000000
vt 0.100000 1.000000
vt 0.900000 1.000000
vt 0.700000 1.000000
vt 0.000000 0.750000
vt 1.000000 0.750000
vt 0.000000 0.500000
vt 1.000000 0.500000
vt 0.000000 0.250000
vt 1.000000 0.250000
vt 0.800000 0.750000
vt 0.800000 0.500000
vt 0.800000 0.250000
vt 0.600000 0.750000
vt 0.600000 0.500000
vt 0.600000 0.250000
vt 0.500000 0.000000
vt 0.300000 0.000000
vt 0.100000 0.000000
vt 0.900000 0.000000
vt 0.700000 0.000000
vt 0.400000 0.750000
vt 0.400000 0.500000
vt 0.400000 0.250000
vt 0.200000 0.750000
vt 0.200000 0.500000
vt 0.200000 0.250000
vt 0.500000 1.000000
vt 0.300000 1.000000
vt 0.100000 1.000000
vt 0.900000 1.000000
vt 0.700000 1.000000
vt 0.000000 0.750000
vt 1.000000 0.750000
vt 0.000000 0.500000
vt 1.000000 0.500000
vt 0.000000 0.250000
vt 1.000000 0.250000
vt 0.800000 0.750000
vt 0.800000 0.500000
vt 0.800000 0.250000
vt 0.600000 0.750000
vt 0.600000 0.500000
vt 0.600000 0.250000
vt 0.500000 0.000000
vt 0.300000 0.000000
vt 0.100000 0.000000
vt 0.900000 0.000000
vt 0.700000 0.000000
vt 0.400000 0.750000
vt 0.400000 0.500000
vt 0.400000 0.250000
vt 0.200000 0.750000
vt 0.200000 0.500000
vt 0.200000 0.250000
vt 0.500000 1.000000
vt 0.300000 1.000000
vt 0.100000 1.000000
vt 0.900000 1.000000
vt 0.700000 1.000000
vt 0.000000 0.750000
vt 1.000000 0.750000
vt 0.000000 0.500000
vt 1.000000 0.500000
vt 0.000000 0.250000
vt 1.000000 0.250000
vt 0.800000 0.750000
vt 0.800000 0.500000
vt 0.800000 0.250000
vt 0.600000 0.750000
vt 0.600000 0.500000
vt 0.600000 0.250000
vt 0.500000 0.000000
vt 0.300000 0.000000
vt 0.100000 0.000000
vt 0.900000 0.000000
vt 0.700000 0.000000
vt 0.400000 0.750000
vt 0.400000 0.500000
vt 0.400000 0.250000
vt 0.200000 0.750000
vt 0.200000 0.500000
vt 0.200000 0.250000
vt 0.500000 1.000000
vt 0.300000 1.000000
vt 0.100000 1.000000
vt 0.900000 1.000000
vt 0.700000 1.000000
vt 0.000000 0.750000
vt 1.000000 0.750000
vt 0.000000 0.500000
vt 1.000000 0.500000
vt 0.000000 0.250000
vt 1.000000 0.250000
vt 0.800000 0.750000
vt 0.800000 0.500000
vt 0.800000 0.250000
s 0
usemtl Bolas
f 3/3/1 2/2/1 6/10/1 7/11/1
f 1/1/2 11/15/2 5/9/2
f 4/4/3 3/3/3 7/11/3
f 2/2/4 1/1/4 5/9/4 6/10/4
f 4/5/5 7/11/5 10/14/5
f 6/10/6 5/9/6 8/12/6 9/13/6
f 7/11/7 6/10/7 9/13/7 10/14/7
f 5/9/8 11/16/8 8/12/8
f 8/12/9 11/17/9 12/20/9
f 4/6/10 10/14/10 14/24/10
f 9/13/11 8/12/11 12/20/11 13/22/11
f 10/14/12 9/13/12 13/22/12 14/24/12
f 14/25/13 13/23/13 16/27/13 17/28/13
f 12/21/14 11/18/14 15/26/14
f 4/7/15 14/25/15 17/28/15
f 13/23/16 12/21/16 15/26/16 16/27/16
f 17/28/17 16/27/17 2/2/17 3/3/17
f 15/26/18 11/19/18 1/1/18
f 4/8/19 17/28/19 3/3/19
f 16/27/20 15/26/20 1/1/20 2/2/20
f 20/31/21 19/30/21 23/38/21 24/39/21
f 18/29/22 28/43/22 22/37/22
f 21/32/23 20/31/23 24/39/23
f 19/30/24 18/29/24 22/37/24 23/38/24
f 21/33/25 24/39/25 27/42/25
f 23/38/26 22/37/26 25/40/26 26/41/26
f 24/39/27 23/38/27 26/41/27 27/42/27
f 22/37/28 28/44/28 25/40/28
f 25/40/29 28/45/29 29/48/29
f 21/34/30 27/42/30 31/52/30
f 26/41/31 25/40/31 29/48/31 30/50/31
f 27/42/32 26/41/32 30/50/32 31/52/32
f 31/53/33 30/51/33 33/55/33 34/56/33
f 29/49/34 28/46/34 32/54/34
f 21/35/35 31/53/35 34/56/35
f 30/51/36 29/49/36 32/54/36 33/55/36
f 34/56/37 33/55/37 19/30/37 20/31/37
f 32/54/38 28/47/38 18/29/38
f 21/36/39 34/56/39 20/31/39
f 33/55/40 32/54/40 18/29/40 19/30/40
f 37/59/41 36/58/41 40/66/41 41/67/41
f 35/57/42 45/71/42 39/65/42
f 38/60/43 37/59/43 41/67/43
f 36/58/44 35/57/44 39/65/44 40/66/44
f 38/61/45 41/67/45 44/70/45
f 40/66/46 39/65/46 42/68/46 43/69/46
f 41/67/47 40/66/47 43/69/47 44/70/47
f 39/65/48 45/72/48 42/68/48
f 42/68/49 45/73/49 46/76/49
f 38/62/50 44/70/50 48/80/50
f 43/69/51 42/68/51 46/76/51 47/78/51
f 44/70/52 43/69/52 47/78/52 48/80/52
f 48/81/53 47/79/53 50/83/53 51/84/53
f 46/77/54 45/74/54 49/82/54
f 38/63/55 48/81/55 51/84/55
f 47/79/56 46/77/56 49/82/56 50/83/56
f 51/84/57 50/83/57 36/58/57 37/59/57
f 49/82/58 45/75/58 35/57/58
f 38/64/59 51/84/59 37/59/59
f 50/83/60 49/82/60 35/57/60 36/58/60
f 54/87/61 53/86/61 57/94/61 58/95/61
f 52/85/62 62/99/62 56/93/62
f 55/88/63 54/87/63 58/95/63
f 53/86/64 52/85/64 56/93/64 57/94/64
f 55/89/65 58/95/65 61/98/65
f 57/94/66 56/93/66 59/96/66 60/97/66
f 58/95/67 57/94/67 60/97/67 61/98/67
f 56/93/68 62/100/68 59/96/68
f 59/96/69 62/101/69 63/104/69
f 55/90/70 61/98/70 65/108/70
f 60/97/71 59/96/71 63/104/71 64/106/71
f 61/98/72 60/97/72 64/106/72 65/108/72
f 65/109/73 64/107/73 67/111/73 68/112/73
f 63/105/74 62/102/74 66/110/74
f 55/91/75 65/109/75 68/112/75
f 64/107/76 63/105/76 66/110/76 67/111/76
f 68/112/77 67/111/77 53/86/77 54/87/77
f 66/110/78 62/103/78 52/85/78
f 55/92/79 68/112/79 54/87/79
f 67/111/80 66/110/80 52/85/80 53/86/80
f 71/115/81 70/114/81 74/122/81 75/123/81
f 69/113/82 79/127/82 73/121/82
f 72/116/83 71/115/83 75/123/83
f 70/114/84 69/113/84 73/121/84 74/122/84
f 72/117/85 75/123/85 78/126/85
f 74/122/86 73/121/86 76/124/86 77/125/86
f 75/123/87 74/122/87 77/125/87 78/126/87
f 73/121/88 79/128/88 76/124/88
f 76/124/89 79/129/89 80/132/89
f 72/118/90 78/126/90 82/136/90
f 77/125/91 76/124/91 80/132/91 81/134/91
f 78/126/92 77/125/92 81/134/92 82/136/92
f 82/137/93 81/135/93 84/139/93 85/140/93
f 80/133/94 79/130/94 83/138/94
f 72/119/95 82/137/95 85/140/95
f 81/135/96 80/133/96 83/138/96 84/139/96
f 85/140/97 84/139/97 70/114/97 71/115/97
f 83/138/98 79/131/98 69/113/98
f 72/120/99 85/140/99 71/115/99
f 84/139/100 83/138/100 69/113/100 70/114/100
f 88/143/101 87/142/101 91/150/101 92/151/101
f 86/141/102 96/155/102 90/149/102
f 89/144/103 88/143/103 92/151/103
f 87/142/104 86/141/104 90/149/104 91/150/104
f 89/145/105 92/151/105 95/154/105
f 91/150/106 90/149/106 93/152/106 94/153/106
f 92/151/107 91/150/107 94/153/107 95/154/107
f 90/149/108 96/156/108 93/152/108
f 93/152/109 96/157/109 97/160/109
f 89/146/110 95/154/110 99/164/110
f 94/153/111 93/152/111 97/160/111 98/162/111
f 95/154/112 94/153/112 98/162/112 99/164/112
f 99/165/113 98/163/113 101/167/113 102/168/113
f 97/161/114 96/158/114 100/166/114
f 89/147/115 99/165/115 102/168/115
f 98/163/116 97/161/116 100/166/116 101/167/116
f 102/168/117 101/167/117 87/142/117 88/143/117
f 100/166/118 96/159/118 86/141/118
f 89/148/119 102/168/119 88/143/119
f 101/167/120 100/166/120 86/141/120 87/142/120
f 105/171/121 104/170/121 108/178/121 109/179/121
f 103/169/122 113/183/122 107/177/122
f 106/172/123 105/171/123 109/179/123
f 104/170/124 103/169/124 107/177/124 108/178/124
f 106/173/125 109/179/125 112/182/125
f 108/178/126 107/177/126 110/180/126 111/181/126
f 109/179/127 108/178/127 111/181/127 112/182/127
f 107/177/128 113/184/128 110/180/128
f 110/180/129 113/185/129 114/188/129
f 106/174/130 112/182/130 116/192/130
f 111/181/131 110/180/131 114/188/131 115/190/131
f 112/182/132 111/181/132 115/190/132 116/192/132
f 116/193/133 115/191/133 118/195/133 119/196/133
f 114/189/134 113/186/134 117/194/134
f 106/175/135 116/193/135 119/196/135
f 115/191/136 114/189/136 117/194/136 118/195/136
f 119/196/137 118/195/137 104/170/137 105/171/137
f 117/194/138 113/187/138 103/169/138
f 106/176/139 119/196/139 105/171/139
f 118/195/140 117/194/140 103/169/140 104/170/140
f 122/199/141 121/198/141 125/206/141 126/207/141
f 120/197/142 130/211/142 124/205/142
f 123/200/143 122/199/143 126/207/143
f 121/198/144 120/197/144 124/205/144 125/206/144
f 123/201/145 126/207/145 129/210/145
f 125/206/146 124/205/146 127/208/146 128/209/146
f 126/207/147 125/206/147 128/209/147 129/210/147
f 124/205/148 130/212/148 127/208/148
f 127/208/149 130/213/149 131/216/149
f 123/202/150 129/210/150 133/220/150
f 128/209/151 127/208/151 131/216/151 132/218/151
f 129/210/152 128/209/152 132/218/152 133/220/152
f 133/221/153 132/219/153 135/223/153 136/224/153
f 131/217/154 130/214/154 134/222/154
f 123/203/155 133/221/155 136/224/155
f 132/219/156 131/217/156 134/222/156 135/223/156
f 136/224/157 135/223/157 121/198/157 122/199/157
f 134/222/158 130/215/158 120/197/158
f 123/204/159 136/224/159 122/199/159
f 135/223/160 134/222/160 120/197/160 121/198/160
f 139/227/161 138/226/161 142/234/161 143/235/161
f 137/225/162 147/239/162 141/233/162
f 140/228/163 139/227/163 143/235/163
f 138/226/164 137/225/164 141/233/164 142/234/164
f 140/229/165 143/235/165 146/238/165
f 142/234/166 141/233/166 144/236/166 145/237/166
f 143/235/167 142/234/167 145/237/167 146/238/167
f 141/233/168 147/240/168 144/236/168
f 144/236/169 147/241/169 148/244/169
f 140/230/170 146/238/170 150/248/170
f 145/237/171 144/236/171 148/244/171 149/246/171
f 146/238/172 145/237/172 149/246/172 150/248/172
f 150/249/173 149/247/173 152/251/173 153/252/173
f 148/245/174 147/242/174 151/250/174
f 140/231/175 150/249/175 153/252/175
f 149/247/176 148/245/176 151/250/176 152/251/176
f 153/252/177 152/251/177 138/226/177 139/227/177
f 151/250/178 147/243/178 137/225/178
f 140/232/179 153/252/179 139/227/179
f 152/251/180 151/250/180 137/225/180 138/226/180
f 156/255/181 155/254/181 159/262/181 160/263/181
f 154/253/182 164/267/182 158/261/182
f 157/256/183 156/255/183 160/263/183
f 155/254/184 154/253/184 158/261/184 159/262/184
f 157/257/185 160/263/185 163/266/185
f 159/262/186 158/261/186 161/264/186 162/265/186
f 160/263/187 159/262/187 162/265/187 163/266/187
f 158/261/188 164/268/188 161/264/188
f 161/264/189 164/269/189 165/272/189
f 157/258/190 163/266/190 167/276/190
f 162/265/191 161/264/191 165/272/191 166/274/191
f 163/266/192 162/265/192 166/274/192 167/276/192
f 167/277/193 166/275/193 169/279/193 170/280/193
f 165/273/194 164/270/194 168/278/194
f 157/259/195 167/277/195 170/280/195
f 166/275/196 165/273/196 168/278/196 169/279/196
f 170/280/197 169/279/197 155/254/197 156/255/197
f 168/278/198 164/271/198 154/253/198
f 157/260/199 170/280/199 156/255/199
f 169/279/200 168/278/200 154/253/200 155/254/200
