# Blender 3.4.1
# www.blender.org
mtllib cumulo_nev.mtl
o Icosphere.007
v 0.225103 0.410798 0.636265
v -0.520807 0.454504 0.428174
v -0.589339 0.454504 -0.428174
v 0.225103 0.390748 -0.622939
v 0.728461 0.454501 0.000000
v 0.000000 0.918499 0.000000
v 0.951060 0.000000 0.309013
v 0.951060 0.000000 -0.309013
v 0.000000 0.000000 1.000000
v 0.587787 0.000000 0.809017
v -0.951060 0.000000 0.309013
v -0.587787 0.000000 0.809017
v -0.587787 0.000000 -0.809017
v -0.951060 0.000000 -0.309013
v 0.587787 0.000000 -0.809017
v 0.000000 0.000000 -1.000000
v 0.416691 0.518452 0.407219
v -0.214093 0.379896 0.619470
v -0.718107 0.385114 0.000000
v -0.214093 0.654101 -0.658894
v 0.462663 0.518452 -0.265919
v 0.101211 0.850654 0.311502
v 0.327535 0.712520 0.000000
v -0.283205 0.855691 0.192517
v -0.264981 0.951307 -0.192517
v 0.101211 0.850654 -0.311502
v 0.755776 0.259226 0.358116
v -0.586160 0.587591 0.096258
vn 0.4429 0.6099 0.6571
vn -0.3068 0.6106 0.7301
vn -0.7959 0.5880 -0.1441
vn 0.4080 0.5847 -0.7012
vn 0.5126 0.7965 -0.3208
vn 0.5323 0.8465 -0.0114
vn 0.6781 0.7136 -0.1762
vn 0.5859 0.5567 -0.5890
vn 0.2203 0.9655 -0.1387
vn 0.0594 0.8448 -0.5319
vn -0.6218 0.6280 -0.4680
vn -0.0531 0.9697 0.2383
vn -0.7960 0.5877 -0.1451
vn -0.6772 0.6271 0.3848
vn -0.0586 0.9713 0.2306
vn -0.2212 0.6333 0.7416
vn -0.0718 0.5793 0.8120
vn 0.5323 0.8465 0.0114
vn 0.6853 0.7042 0.1856
vn 0.5208 0.8093 0.2717
vn 0.6220 0.6252 -0.4714
vn 0.6284 0.6299 -0.4565
vn 0.4614 0.6924 -0.5547
vn 0.3758 0.5222 -0.7655
vn -0.2874 0.3672 -0.8846
vn -0.6308 0.4971 -0.5958
vn -0.7923 0.5933 -0.1421
vn -0.8556 0.5176 -0.0000
vn -0.7358 0.6346 0.2362
vn -0.2888 0.6395 0.7125
vn -0.2438 0.6143 0.7505
vn -0.0759 0.6840 0.7255
vn 0.4152 0.6389 0.6476
vn 0.7242 0.4459 0.5261
vn 0.6008 0.7202 0.3469
vn 0.2484 0.5947 -0.7646
vn -0.0000 -1.0000 -0.0000
vn -0.7266 0.4398 -0.5279
vn -0.6901 0.5218 0.5014
vn 0.2564 0.5582 0.7891
vn 0.8981 0.4398 -0.0000
vn 0.5527 0.6168 0.5605
vn 0.7965 0.5543 0.2415
vn -0.6812 0.7174 0.1459
vn -0.8550 0.4008 0.3291
vt 0.362484 0.576802
vt 0.291845 0.576802
vt 0.645041 0.576802
vt 0.574402 0.576802
vt 0.503763 0.576802
vt 0.433124 0.576802
vt 0.468443 0.637978
vt 0.539082 0.637978
vt 0.609721 0.637978
vt 0.327165 0.637978
vt 0.397804 0.637978
vt 0.415464 0.546215
vt 0.450783 0.546215
vt 0.344825 0.546215
vt 0.380144 0.546215
vt 0.627381 0.546215
vt 0.309505 0.546215
vt 0.662700 0.546215
vt 0.556742 0.546215
vt 0.592061 0.546215
vt 0.486103 0.546215
vt 0.521422 0.546215
vt 0.397804 0.576802
vt 0.327165 0.576802
vt 0.609721 0.576802
vt 0.539082 0.576802
vt 0.468443 0.576802
vt 0.344825 0.607390
vt 0.380144 0.607390
vt 0.450783 0.607390
vt 0.415464 0.607390
vt 0.309505 0.607390
vt 0.627381 0.607390
vt 0.556742 0.607390
vt 0.592061 0.607390
vt 0.486103 0.607390
vt 0.521422 0.607390
vt 0.406634 0.561509
vt 0.618551 0.592096
s 0
usemtl Ice
f 1/1/1 17/23/1 22/29/1
f 2/2/2 18/24/2 24/32/2
f 3/4/3 19/25/3 25/35/3
f 4/5/4 20/26/4 26/37/4
f 5/6/5 21/27/5 23/30/5
f 23/30/6 26/36/6 6/7/6
f 23/30/7 21/27/7 26/36/7
f 21/27/8 4/5/8 26/36/8
f 26/37/9 25/34/9 6/8/9
f 26/37/10 20/26/10 25/34/10
f 20/26/11 3/4/11 25/34/11
f 25/35/12 24/33/12 6/9/12
f 25/35/13 19/25/13 28/39/13
f 2/3/14 24/33/14 28/39/14
f 24/32/15 22/28/15 6/10/15
f 24/32/16 18/24/16 22/28/16
f 18/24/17 1/1/17 22/28/17
f 22/29/18 23/31/18 6/11/18
f 22/29/19 17/23/19 23/31/19
f 17/23/20 5/6/20 23/31/20
f 8/13/21 21/27/21 5/6/21
f 8/13/22 15/21/22 21/27/22
f 15/21/23 4/5/23 21/27/23
f 16/22/24 20/26/24 4/5/24
f 16/22/25 13/19/25 20/26/25
f 13/19/26 3/4/26 20/26/26
f 14/20/27 19/25/27 3/4/27
f 14/20/28 11/16/28 19/25/28
f 11/16/29 2/3/29 19/25/29
f 12/17/30 18/24/30 2/2/30
f 12/17/31 9/14/31 18/24/31
f 9/14/32 1/1/32 18/24/32
f 10/15/33 17/23/33 1/1/33
f 10/15/34 7/12/34 27/38/34
f 5/6/35 17/23/35 27/38/35
f 15/21/36 16/22/36 4/5/36
f 8/13/37 7/12/37 10/15/37 9/14/37 12/17/37 11/16/37 14/20/37 13/19/37 16/22/37 15/21/37
f 13/19/38 14/20/38 3/4/38
f 11/16/39 12/18/39 2/3/39
f 9/14/40 10/15/40 1/1/40
f 7/12/41 8/13/41 5/6/41
f 17/23/42 10/15/42 27/38/42
f 7/12/43 5/6/43 27/38/43
f 24/33/44 25/35/44 28/39/44
f 19/25/45 2/3/45 28/39/45
