# Blender 3.3.1
# www.blender.org
mtllib flor1.mtl
o Cylinder.006
v 0.149858 0.400746 -0.218898
v 0.023257 0.045121 -0.008792
v 0.175709 0.242227 -0.066156
v 0.264276 0.405459 0.064855
v -0.007327 0.043713 0.012814
v 0.107243 0.238254 0.137273
v -0.000846 0.399444 0.253044
v -0.108276 0.238276 0.137186
v -0.258529 0.403868 0.047751
v -0.011043 0.043921 -0.031974
v -0.176572 0.242552 -0.066921
v -0.152941 0.405913 -0.213311
v 0.000042 0.241026 -0.193663
v -0.000485 0.403768 0.260321
v -0.000485 0.047641 -0.009556
v -0.000952 0.160649 -0.169837
v 0.093239 0.160310 -0.138556
v 0.146746 0.154507 -0.061057
v 0.203815 0.282039 0.051764
v 0.151164 0.160310 0.039717
v 0.096254 0.166781 0.123593
v 0.093239 0.160310 0.119444
v -0.000485 0.282039 0.194015
v -0.000485 0.160310 0.149897
v -0.097224 0.166781 0.123593
v -0.094209 0.160310 0.119444
v -0.200576 0.287882 0.039787
v -0.153845 0.160310 0.033051
v -0.149623 0.157394 -0.060954
v -0.116246 0.274658 -0.170407
v -0.094209 0.160310 -0.138556
v 0.000569 -1.124416 -0.111558
v 0.072001 -1.124416 -0.081970
v 0.101589 -1.124416 -0.010538
v 0.072001 -1.124416 0.060895
v 0.000569 -1.124416 0.090483
v -0.070864 -1.124416 0.060895
v -0.100452 -1.124416 -0.010538
v -0.070864 -1.124416 -0.081970
v 0.010151 0.048394 -0.020119
v 0.000569 0.048394 -0.024088
v 0.014120 0.048394 -0.010537
v 0.010151 0.048394 -0.000955
v 0.000569 0.048394 0.003014
v -0.009013 0.048394 -0.000955
v -0.012982 0.048394 -0.010537
v -0.009013 0.048394 -0.020119
v 0.005795 0.082989 -0.010541
vn 0.1419 -0.2829 -0.9486
vn 0.8369 -0.3028 -0.4559
vn -0.6227 0.6858 -0.3766
vn -0.9391 -0.3423 -0.0316
vn 0.9183 -0.3955 -0.0175
vn 0.9184 -0.3856 -0.0887
vn 0.7051 -0.3437 0.6203
vn 0.3060 -0.3790 0.8734
vn -0.3067 -0.3786 0.8733
vn -0.7628 -0.3437 0.5478
vn -0.9206 -0.3882 -0.0422
vn -0.7572 0.6093 -0.2353
vn -0.7592 -0.3475 -0.5504
vn -0.2762 -0.3311 -0.9023
vn -0.5234 0.5883 0.6164
vn 0.0403 -0.9992 -0.0080
vn 0.5653 0.6965 -0.4419
vn -0.2122 -0.7381 -0.6405
vn 0.7506 0.5912 -0.2952
vn 0.0338 0.5979 -0.8009
vn -0.4306 0.5888 0.6840
vn 0.4070 0.5762 0.7087
vn -0.0331 0.5978 -0.8009
vn -0.7528 0.6090 -0.2498
vn 0.5444 0.5776 0.6083
vn 0.7772 0.5956 -0.2029
vn -0.6282 -0.7780 0.0129
vn -0.3014 -0.3093 -0.9019
vn -0.5272 -0.7472 -0.4046
vn -0.7697 -0.3046 -0.5611
vn -0.7881 -0.3344 0.5168
vn -0.5447 -0.7497 0.3760
vn -0.2677 -0.3450 0.8996
vn -0.2079 -0.7399 0.6397
vn 0.2677 -0.3450 0.8996
vn 0.2042 -0.7507 0.6283
vn 0.4911 -0.7641 0.4183
vn 0.7548 -0.3940 0.5245
vn 0.4608 -0.7724 -0.4372
vn 0.6663 -0.7456 0.0137
vn 0.7546 -0.3608 -0.5480
vn 0.2044 -0.7544 -0.6238
vn 0.2923 -0.3643 -0.8842
vn 0.9217 0.0687 -0.3818
vn 0.9217 0.0687 0.3818
vn 0.3818 0.0687 0.9217
vn -0.3818 0.0687 0.9217
vn -0.9217 0.0687 0.3818
vn -0.9217 0.0687 -0.3818
vn -0.3818 0.0687 -0.9217
vn -0.0000 -1.0000 -0.0000
vn 0.3818 0.0687 -0.9217
vn -0.0000 1.0000 -0.0000
vt 0.920227 0.165043
vt 0.956801 0.067931
vt 0.972676 0.157073
vt 0.847971 0.102143
vt 0.959491 0.090237
vt 0.945160 0.131757
vt 0.959374 0.112528
vt 0.943656 0.090463
vt 0.887668 0.039722
vt 0.847628 0.167393
vt 0.959257 0.134819
vt 0.920190 0.056738
vt 0.880865 0.048863
vt 0.959023 0.179401
vt 0.841537 0.056736
vt 0.958906 0.201692
vt 0.818188 0.090501
vt 0.817512 0.171407
vt 0.847212 0.246460
vt 0.848209 0.056844
vt 0.958788 0.223982
vt 0.816489 0.131783
vt 0.958671 0.246273
vt 0.841613 0.164891
vt 0.959726 0.045655
vt 0.958554 0.268564
vt 0.880865 0.178079
vt 0.959140 0.157110
vt 0.880865 0.044046
vt 0.917309 0.060704
vt 0.917309 0.161027
vt 0.821896 0.130026
vt 0.880865 0.048863
vt 0.939833 0.130026
vt 0.844420 0.161027
vt 0.844420 0.060704
vt 0.939833 0.091706
vt 0.880865 0.172868
vt 0.821896 0.091706
vt 0.889413 0.268201
vt 0.890585 0.045291
vt 0.885306 0.067555
vt 0.861047 0.089719
vt 0.922223 0.112332
vt 0.885071 0.112137
vt 0.922106 0.134623
vt 0.884954 0.134428
vt 0.921988 0.156914
vt 0.884837 0.156719
vt 0.921871 0.179205
vt 0.884720 0.179010
vt 0.921754 0.201496
vt 0.884602 0.201301
vt 0.873196 0.223532
vt 0.921520 0.246078
vt 0.884368 0.245883
vt 0.320372 0.545783
vt 0.406376 0.500811
vt 0.450980 0.545783
vt 0.422431 0.494161
vt 0.434654 0.545783
vt 0.418328 0.545783
vt 0.429081 0.478106
vt 0.402002 0.545783
vt 0.422431 0.462051
vt 0.385676 0.545783
vt 0.406376 0.455401
vt 0.369350 0.545783
vt 0.390321 0.462051
vt 0.353024 0.545783
vt 0.383671 0.478106
vt 0.336698 0.545783
vt 0.390321 0.494161
vt 0.434654 0.611086
vt 0.375129 0.494161
vt 0.320372 0.611086
vt 0.450980 0.611086
vt 0.359075 0.500811
vt 0.418328 0.611086
vt 0.381779 0.478106
vt 0.402002 0.611086
vt 0.375129 0.462051
vt 0.385676 0.611086
vt 0.359075 0.455401
vt 0.369350 0.611086
vt 0.343020 0.462051
vt 0.353024 0.611086
vt 0.336370 0.478106
vt 0.336698 0.611086
vt 0.343020 0.494161
s 0
usemtl Material.001
f 13/25/1 1/2/1 16/41/1
f 1/2/2 3/5/2 18/43/2
f 7/13/3 8/15/3 14/29/3
f 27/52/4 29/54/4 28/53/4
f 18/43/5 19/44/5 20/45/5
f 19/44/6 18/43/6 3/5/6 4/7/6
f 6/11/7 21/46/7 19/44/7 4/7/7
f 14/28/8 23/48/8 21/46/8 6/11/8
f 25/50/9 23/48/9 14/28/9 8/14/9
f 27/52/10 25/50/10 8/14/10 9/16/10
f 11/21/11 29/54/11 27/52/11 9/16/11
f 15/30/12 6/12/12 4/8/12
f 30/55/13 29/54/13 11/21/13 12/23/13
f 13/26/14 16/40/14 30/55/14 12/23/14
f 15/31/15 1/1/15 13/27/15
f 2/3/16 5/9/16 10/18/16
f 7/13/17 14/29/17 6/12/17
f 10/19/18 31/56/18 16/40/18
f 15/32/19 11/22/19 9/17/19
f 15/33/20 7/13/20 6/12/20
f 15/34/21 3/6/21 1/1/21
f 15/35/22 12/24/22 11/22/22
f 15/36/23 8/15/23 7/13/23
f 15/37/24 4/8/24 3/6/24
f 15/38/25 13/27/25 12/24/25
f 15/39/26 9/17/26 8/15/26
f 10/19/27 5/10/27 28/53/27 29/54/27
f 31/56/28 30/55/28 16/40/28
f 10/19/29 29/54/29 31/56/29
f 29/54/30 30/55/30 31/56/30
f 28/53/31 26/51/31 25/50/31 27/52/31
f 26/51/32 28/53/32 5/10/32
f 26/51/33 24/49/33 23/48/33 25/50/33
f 24/49/34 26/51/34 5/10/34
f 23/48/35 24/49/35 22/47/35 21/46/35
f 5/10/36 22/47/36 24/49/36
f 22/47/37 5/10/37 2/4/37 20/45/37
f 21/46/38 22/47/38 20/45/38 19/44/38
f 2/4/39 10/20/39 17/42/39 18/43/39
f 2/4/40 18/43/40 20/45/40
f 17/42/41 1/2/41 18/43/41
f 16/41/42 17/42/42 10/20/42
f 16/41/43 1/2/43 17/42/43
f 42/79/44 34/62/44 33/61/44 40/74/44
f 43/81/45 35/64/45 34/62/45 42/79/45
f 35/64/46 43/81/46 44/83/46 36/66/46
f 44/83/47 45/85/47 37/68/47 36/66/47
f 45/85/48 46/87/48 38/70/48 37/68/48
f 46/87/49 47/89/49 39/72/49 38/70/49
f 47/89/50 41/76/50 32/57/50 39/72/50
f 36/67/51 37/69/51 38/71/51 39/73/51 32/58/51 33/60/51 34/63/51 35/65/51
f 40/74/52 33/61/52 32/59/52 41/77/52
f 44/84/53 43/82/53 42/80/53 40/75/53 41/78/53 47/90/53 46/88/53 45/86/53
