# Blender 3.4.1
# www.blender.org
mtllib less_bolas.mtl
o less_bolas
v 0.000000 0.707107 -0.707107
v 0.000000 0.000000 -1.000000
v 0.000000 -0.707107 -0.707107
v 0.000000 -1.000000 0.000000
v 0.672498 0.707107 -0.218508
v 0.951056 0.000000 -0.309017
v 0.672498 -0.707107 -0.218508
v 0.415627 0.707107 0.572061
v 0.587785 0.000000 0.809017
v 0.415627 -0.707107 0.572061
v 0.000000 1.000000 0.000000
v -0.415627 0.707107 0.572061
v -0.587785 0.000000 0.809017
v -0.415627 -0.707107 0.572061
v -0.672498 0.707107 -0.218508
v -0.951057 0.000000 -0.309017
v -0.672498 -0.707107 -0.218508
v -0.144597 1.072328 -1.591500
v 0.466437 1.591395 -1.728629
v 1.271333 1.575853 -1.612450
v 1.798595 1.034805 -1.311019
v -0.071770 0.903486 -0.727442
v 0.569430 1.352616 -0.506666
v 1.344160 1.407010 -0.748391
v 0.223810 0.076152 -0.634920
v 0.987443 0.182590 -0.375820
v 1.639740 0.579677 -0.655870
v -0.203834 0.322714 -1.281392
v 0.333661 -0.266325 -1.441797
v 1.142797 -0.301747 -1.516916
v 1.749592 0.237199 -1.462747
v 0.105973 0.349345 -2.032996
v 0.820797 0.568943 -2.352998
v 1.521904 0.852870 -2.053946
v 0.053497 1.791873 0.505699
v 0.688312 2.271079 0.335493
v 1.479578 2.148342 0.192553
v 1.963782 1.495561 0.160612
v 0.320551 1.356923 1.226747
v 1.065982 1.655967 1.355209
v 1.746631 1.713392 0.913601
v 0.479535 0.518911 0.996817
v 1.290820 0.470838 1.030038
v 1.905615 0.875380 0.683671
v -0.053000 0.991437 0.603467
v 0.310739 0.435940 0.133664
v 1.052106 0.353500 -0.190644
v 1.736819 0.792410 -0.179482
v 0.047434 1.222674 -0.169863
v 0.679736 1.466110 -0.619897
v 1.473514 1.579144 -0.483009
v 0.510556 0.273071 0.246256
v 1.107191 0.824466 0.206411
v 1.916216 0.791889 0.128847
v 2.463713 0.194424 0.058999
v 0.755029 -0.235467 0.925985
v 1.452928 0.105285 1.167693
v 2.160688 0.283352 0.808575
v 1.015952 -1.015393 0.603428
v 1.821929 -0.997697 0.711529
v 2.421611 -0.496575 0.486019
v 0.475811 -0.539296 0.225040
v 0.932739 -0.988876 -0.275652
v 1.704247 -0.960196 -0.531678
v 2.338398 -0.470058 -0.393061
v 0.620387 -0.192561 -0.496396
v 1.262516 0.165963 -0.843857
v 2.026047 0.326257 -0.613805
vn 0.5573 -0.3177 -0.7671
vn 0.2679 0.8901 -0.3687
vn 0.2679 -0.8901 -0.3687
vn 0.5573 0.3177 -0.7671
vn 0.4334 -0.8901 0.1408
vn 0.9018 0.3177 0.2930
vn 0.9018 -0.3177 0.2930
vn 0.4334 0.8901 0.1408
vn -0.0000 0.8901 0.4557
vn -0.0000 -0.8901 0.4557
vn -0.0000 0.3177 0.9482
vn -0.0000 -0.3177 0.9482
vn -0.9018 -0.3177 0.2930
vn -0.4334 0.8901 0.1408
vn -0.4334 -0.8901 0.1408
vn -0.9018 0.3177 0.2930
vn -0.5573 -0.3177 -0.7671
vn -0.2679 0.8901 -0.3687
vn -0.2679 -0.8901 -0.3687
vn -0.5573 0.3177 -0.7671
vn -0.0088 0.9813 0.1925
vn -0.9867 0.1223 0.1071
vn 0.6905 0.7187 0.0822
vn -0.6075 0.7684 0.2013
vn 0.8285 0.3453 0.4408
vn -0.3202 -0.0085 0.9473
vn 0.2785 0.2044 0.9384
vn -0.8486 -0.2511 0.4656
vn -0.6967 -0.6896 0.1978
vn 0.9805 -0.0932 0.1730
vn -0.0041 -0.9207 0.3902
vn 0.5946 -0.7078 0.3814
vn 0.5027 -0.4948 -0.7089
vn -0.7408 -0.5872 -0.3262
vn 0.9363 0.0092 -0.3510
vn -0.0960 -0.7077 -0.7000
vn 0.1298 0.5491 -0.8256
vn -0.9201 -0.0854 -0.3823
vn 0.7571 0.5110 -0.4071
vn -0.4689 0.3362 -0.8167
vn 0.2152 0.8694 0.4447
vn -0.8861 0.1705 0.4310
vn 0.8031 0.5928 0.0601
vn -0.3878 0.7187 0.5772
vn 0.9628 0.1157 0.2442
vn -0.0556 -0.2740 0.9601
vn 0.5474 -0.1233 0.8277
vn -0.7264 -0.3066 0.6151
vn -0.7301 -0.6518 0.2054
vn 0.9591 -0.2295 -0.1655
vn -0.0632 -0.9922 0.1077
vn 0.5398 -0.8414 -0.0247
vn 0.2028 -0.2926 -0.9345
vn -0.8920 -0.3880 -0.2319
vn 0.7972 0.0342 -0.6028
vn -0.4002 -0.4434 -0.8021
vn 0.0022 0.7647 -0.6443
vn -0.9884 0.1202 -0.0924
vn 0.7008 0.5425 -0.4633
vn -0.6008 0.6140 -0.5119
vn 0.0880 0.8125 0.5763
vn -0.9331 0.0305 0.3584
vn 0.7319 0.6451 0.2194
vn -0.5064 0.5932 0.6259
vn 0.9214 0.1622 0.3532
vn -0.1123 -0.4116 0.9044
vn 0.4821 -0.1922 0.8548
vn -0.7436 -0.4524 0.4923
vn -0.6770 -0.7348 0.0419
vn 0.9880 -0.1202 -0.0971
vn 0.0263 -0.9991 -0.0326
vn 0.6207 -0.7798 -0.0823
vn 0.3122 -0.1381 -0.9399
vn -0.8253 -0.4264 -0.3703
vn 0.8397 0.1882 -0.5094
vn -0.2822 -0.3575 -0.8903
vn -0.0170 0.8460 -0.5329
vn -0.9835 0.0466 -0.1747
vn 0.6815 0.6612 -0.3138
vn -0.6114 0.6266 -0.4833
vt 0.600000 0.750000
vt 0.600000 0.500000
vt 0.600000 0.250000
vt 0.500000 0.000000
vt 0.300000 0.000000
vt 0.100000 0.000000
vt 0.900000 0.000000
vt 0.700000 0.000000
vt 0.400000 0.750000
vt 0.400000 0.500000
vt 0.400000 0.250000
vt 0.200000 0.750000
vt 0.200000 0.500000
vt 0.200000 0.250000
vt 0.500000 1.000000
vt 0.300000 1.000000
vt 0.100000 1.000000
vt 0.900000 1.000000
vt 0.700000 1.000000
vt 0.000000 0.750000
vt 1.000000 0.750000
vt 0.000000 0.500000
vt 1.000000 0.500000
vt 0.000000 0.250000
vt 1.000000 0.250000
vt 0.800000 0.750000
vt 0.800000 0.500000
vt 0.800000 0.250000
vt 0.600000 0.750000
vt 0.600000 0.500000
vt 0.600000 0.250000
vt 0.500000 0.000000
vt 0.300000 0.000000
vt 0.100000 0.000000
vt 0.900000 0.000000
vt 0.700000 0.000000
vt 0.400000 0.750000
vt 0.400000 0.500000
vt 0.400000 0.250000
vt 0.200000 0.750000
vt 0.200000 0.500000
vt 0.200000 0.250000
vt 0.500000 1.000000
vt 0.300000 1.000000
vt 0.100000 1.000000
vt 0.900000 1.000000
vt 0.700000 1.000000
vt 0.000000 0.750000
vt 1.000000 0.750000
vt 0.000000 0.500000
vt 1.000000 0.500000
vt 0.000000 0.250000
vt 1.000000 0.250000
vt 0.800000 0.750000
vt 0.800000 0.500000
vt 0.800000 0.250000
vt 0.600000 0.750000
vt 0.600000 0.500000
vt 0.600000 0.250000
vt 0.500000 0.000000
vt 0.300000 0.000000
vt 0.100000 0.000000
vt 0.900000 0.000000
vt 0.700000 0.000000
vt 0.400000 0.750000
vt 0.400000 0.500000
vt 0.400000 0.250000
vt 0.200000 0.750000
vt 0.200000 0.500000
vt 0.200000 0.250000
vt 0.500000 1.000000
vt 0.300000 1.000000
vt 0.100000 1.000000
vt 0.900000 1.000000
vt 0.700000 1.000000
vt 0.000000 0.750000
vt 1.000000 0.750000
vt 0.000000 0.500000
vt 1.000000 0.500000
vt 0.000000 0.250000
vt 1.000000 0.250000
vt 0.800000 0.750000
vt 0.800000 0.500000
vt 0.800000 0.250000
vt 0.600000 0.750000
vt 0.600000 0.500000
vt 0.600000 0.250000
vt 0.500000 0.000000
vt 0.300000 0.000000
vt 0.100000 0.000000
vt 0.900000 0.000000
vt 0.700000 0.000000
vt 0.400000 0.750000
vt 0.400000 0.500000
vt 0.400000 0.250000
vt 0.200000 0.750000
vt 0.200000 0.500000
vt 0.200000 0.250000
vt 0.500000 1.000000
vt 0.300000 1.000000
vt 0.100000 1.000000
vt 0.900000 1.000000
vt 0.700000 1.000000
vt 0.000000 0.750000
vt 1.000000 0.750000
vt 0.000000 0.500000
vt 1.000000 0.500000
vt 0.000000 0.250000
vt 1.000000 0.250000
vt 0.800000 0.750000
vt 0.800000 0.500000
vt 0.800000 0.250000
s 0
usemtl Bolas
f 3/3/1 2/2/1 6/10/1 7/11/1
f 1/1/2 11/15/2 5/9/2
f 4/4/3 3/3/3 7/11/3
f 2/2/4 1/1/4 5/9/4 6/10/4
f 4/5/5 7/11/5 10/14/5
f 6/10/6 5/9/6 8/12/6 9/13/6
f 7/11/7 6/10/7 9/13/7 10/14/7
f 5/9/8 11/16/8 8/12/8
f 8/12/9 11/17/9 12/20/9
f 4/6/10 10/14/10 14/24/10
f 9/13/11 8/12/11 12/20/11 13/22/11
f 10/14/12 9/13/12 13/22/12 14/24/12
f 14/25/13 13/23/13 16/27/13 17/28/13
f 12/21/14 11/18/14 15/26/14
f 4/7/15 14/25/15 17/28/15
f 13/23/16 12/21/16 15/26/16 16/27/16
f 17/28/17 16/27/17 2/2/17 3/3/17
f 15/26/18 11/19/18 1/1/18
f 4/8/19 17/28/19 3/3/19
f 16/27/20 15/26/20 1/1/20 2/2/20
f 20/31/21 19/30/21 23/38/21 24/39/21
f 18/29/22 28/43/22 22/37/22
f 21/32/23 20/31/23 24/39/23
f 19/30/24 18/29/24 22/37/24 23/38/24
f 21/33/25 24/39/25 27/42/25
f 23/38/26 22/37/26 25/40/26 26/41/26
f 24/39/27 23/38/27 26/41/27 27/42/27
f 22/37/28 28/44/28 25/40/28
f 25/40/29 28/45/29 29/48/29
f 21/34/30 27/42/30 31/52/30
f 26/41/31 25/40/31 29/48/31 30/50/31
f 27/42/32 26/41/32 30/50/32 31/52/32
f 31/53/33 30/51/33 33/55/33 34/56/33
f 29/49/34 28/46/34 32/54/34
f 21/35/35 31/53/35 34/56/35
f 30/51/36 29/49/36 32/54/36 33/55/36
f 34/56/37 33/55/37 19/30/37 20/31/37
f 32/54/38 28/47/38 18/29/38
f 21/36/39 34/56/39 20/31/39
f 33/55/40 32/54/40 18/29/40 19/30/40
f 37/59/41 36/58/41 40/66/41 41/67/41
f 35/57/42 45/71/42 39/65/42
f 38/60/43 37/59/43 41/67/43
f 36/58/44 35/57/44 39/65/44 40/66/44
f 38/61/45 41/67/45 44/70/45
f 40/66/46 39/65/46 42/68/46 43/69/46
f 41/67/47 40/66/47 43/69/47 44/70/47
f 39/65/48 45/72/48 42/68/48
f 42/68/49 45/73/49 46/76/49
f 38/62/50 44/70/50 48/80/50
f 43/69/51 42/68/51 46/76/51 47/78/51
f 44/70/52 43/69/52 47/78/52 48/80/52
f 48/81/53 47/79/53 50/83/53 51/84/53
f 46/77/54 45/74/54 49/82/54
f 38/63/55 48/81/55 51/84/55
f 47/79/56 46/77/56 49/82/56 50/83/56
f 51/84/57 50/83/57 36/58/57 37/59/57
f 49/82/58 45/75/58 35/57/58
f 38/64/59 51/84/59 37/59/59
f 50/83/60 49/82/60 35/57/60 36/58/60
f 54/87/61 53/86/61 57/94/61 58/95/61
f 52/85/62 62/99/62 56/93/62
f 55/88/63 54/87/63 58/95/63
f 53/86/64 52/85/64 56/93/64 57/94/64
f 55/89/65 58/95/65 61/98/65
f 57/94/66 56/93/66 59/96/66 60/97/66
f 58/95/67 57/94/67 60/97/67 61/98/67
f 56/93/68 62/100/68 59/96/68
f 59/96/69 62/101/69 63/104/69
f 55/90/70 61/98/70 65/108/70
f 60/97/71 59/96/71 63/104/71 64/106/71
f 61/98/72 60/97/72 64/106/72 65/108/72
f 65/109/73 64/107/73 67/111/73 68/112/73
f 63/105/74 62/102/74 66/110/74
f 55/91/75 65/109/75 68/112/75
f 64/107/76 63/105/76 66/110/76 67/111/76
f 68/112/77 67/111/77 53/86/77 54/87/77
f 66/110/78 62/103/78 52/85/78
f 55/92/79 68/112/79 54/87/79
f 67/111/80 66/110/80 52/85/80 53/86/80
