# Blender 3.3.1
# www.blender.org
mtllib margarita2.mtl
o Cube
v -0.045916 -0.291491 -0.056726
v -0.048493 -0.238273 -0.153481
v 0.051511 -0.280946 -0.071709
v 0.004746 -0.231608 -0.188887
v 0.051187 -0.234574 -0.154742
v -0.005981 -0.227602 -0.185289
v 0.004459 -0.337143 -0.005659
v 0.017416 -0.759490 -0.063509
v 0.069640 -0.759873 -0.043844
v 0.094375 -0.758424 0.010481
v 0.069673 -0.760078 0.064829
v 0.017416 -0.759490 0.084472
v -0.033777 -0.760594 0.062395
v -0.033778 -0.760620 -0.041435
v -0.015528 -0.189325 -0.006425
v 0.014297 -0.258206 0.001595
v -0.053037 -0.760318 0.010481
v -0.009573 -0.142537 0.026776
v 0.005960 0.086742 0.018556
v -0.011031 0.086640 0.001569
v -0.049104 0.092809 0.075183
v -0.130026 0.139288 0.098235
v -0.074340 0.092514 -0.012520
v -0.177939 0.145950 0.055929
v -0.156916 0.142984 0.002257
v -0.171698 0.149956 0.065367
v -0.000710 0.047911 0.013161
v -0.052343 0.107301 -0.047551
v -0.053507 0.157030 -0.137199
v 0.039573 0.110101 -0.053388
v -0.000267 0.163695 -0.172605
v 0.046174 0.160729 -0.138460
v -0.010995 0.167701 -0.169007
v -0.001025 0.056298 0.010489
v 0.122474 0.159063 -0.087401
v 0.070512 0.108614 0.030259
v 0.174179 0.165728 -0.049790
v 0.158308 0.162762 0.005624
v 0.167076 0.169734 -0.058597
v 0.125510 0.153705 0.096821
v 0.002798 0.104640 0.090574
v 0.108708 0.160367 0.158491
v 0.051269 0.157402 0.163327
v 0.114420 0.164373 0.148724
v -0.044635 0.151118 0.160071
v -0.072715 0.104344 0.039327
v -0.108526 0.157781 0.158220
v -0.126715 0.154815 0.103523
v -0.097691 0.161786 0.161479
v -0.160077 0.153464 0.018712
v -0.179310 0.160129 -0.042265
v -0.133613 0.157163 -0.077400
v -0.178831 0.164134 -0.030960
v -0.128282 0.141633 -0.084265
v -0.003100 0.095233 -0.065878
v -0.104042 0.148298 -0.143430
v -0.046443 0.145332 -0.141189
v -0.110908 0.152304 -0.134437
v 0.041352 0.096607 0.071953
v 0.041212 0.141872 0.158492
v -0.011176 0.148537 0.195145
v -0.058411 0.145571 0.162107
v -0.000537 0.152542 0.191295
v 0.071537 0.098447 -0.012003
v 0.156756 0.147235 0.015015
v 0.172414 0.153897 0.076985
v 0.124758 0.150932 0.109413
v 0.172592 0.157903 0.065672
v 0.053366 0.145197 -0.135881
v 0.116949 0.151864 -0.129021
v 0.130787 0.148899 -0.073065
v 0.106403 0.155870 -0.133121
v 0.032997 0.120179 0.018326
v -0.002172 0.130375 0.041595
v 0.036190 0.089514 -0.019418
v -0.034910 0.121049 0.032207
v -0.040235 0.120179 -0.005468
v -0.000724 0.120179 -0.028086
v 0.035354 0.088101 0.039669
v -0.020289 0.088162 0.057734
v -0.054710 0.088019 0.010413
v -0.020313 0.087891 -0.028838
vn -0.1759 0.8359 0.5200
vn -0.4369 -0.4960 -0.7504
vn 0.2547 0.8321 0.4926
vn -0.9362 0.0512 -0.3476
vn 0.9002 0.1368 -0.4135
vn -0.3963 0.0688 -0.9155
vn 0.3094 -0.8259 -0.4713
vn 0.6789 -0.0197 0.7340
vn 0.5184 0.8547 0.0270
vn -0.6125 -0.4960 0.6155
vn 0.4233 0.8580 -0.2909
vn -0.1796 0.8313 0.5259
vn 0.2577 0.8273 0.4991
vn -0.5552 0.8316 0.0145
vn 0.5517 -0.4960 -0.6705
vn -0.3619 0.8135 0.4552
vn -0.2126 0.8231 -0.5266
vn 0.8227 -0.4960 0.2777
vn -0.6247 0.7698 -0.1308
vn 0.4289 0.8461 -0.3165
vn -0.0768 -0.4960 0.8649
vn 0.1171 0.8477 -0.5173
vn 0.4415 0.8445 0.3031
vn -0.8422 -0.4960 0.2114
vn 0.5310 0.8431 -0.0845
vn 0.1446 0.8555 0.4971
vn -0.7825 -0.4960 -0.3765
vn 0.4172 0.8592 0.2962
vn 0.1499 0.8524 -0.5009
vn 0.4545 -0.4960 0.7398
vn -0.2792 0.8281 -0.4861
vn -0.4298 0.8379 -0.3365
vn 0.8531 -0.4960 -0.1622
vn -0.5518 0.8299 0.0826
vn -0.4597 0.8413 0.2843
vn 0.1444 -0.4961 -0.8562
vn -0.1545 0.8456 0.5110
vn 0.1903 0.9719 -0.1383
vn 0.6294 0.6284 -0.4573
vn -0.0836 0.9858 -0.1460
vn -0.2785 0.9603 0.0172
vn 0.1661 -0.0779 -0.9830
vn -0.7520 0.0130 -0.6590
vn -0.8051 0.0964 0.5853
vn 0.3011 0.2251 0.9267
vn 0.9963 0.0839 0.0161
vn 0.9237 0.1465 0.3541
vn -0.2686 -0.8345 -0.4811
vn 0.1368 0.8695 0.4746
vn -0.2034 -0.8602 -0.4677
vn -0.3355 0.8219 0.4603
vn 0.2567 0.9285 -0.2684
vn 0.4070 0.1201 -0.9055
vn 0.0095 -1.0000 -0.0005
vn -0.9359 0.0567 0.3475
vn 0.3510 0.1024 0.9308
vn -0.3963 0.0683 0.9156
vn 0.5133 0.0376 -0.8574
vn -0.7641 0.0311 -0.6444
vn -0.8426 0.0536 0.5359
vn -0.5113 -0.8525 -0.1084
vn 0.3172 -0.8208 -0.4750
vn -0.4017 -0.8616 0.3103
vn 0.4251 0.8678 -0.2573
vn -0.4017 -0.8581 0.3198
vn 0.5203 0.8539 -0.0088
vn -0.3255 0.9285 -0.1788
vn 0.5536 -0.8226 0.1300
vn -0.2728 -0.8294 -0.4876
vn 0.1408 0.8665 0.4788
vn -0.2070 -0.8567 -0.4725
vn -0.3604 0.8136 0.4562
vn 0.0615 -0.8165 0.5741
vn 0.3489 -0.8142 -0.4641
vn -0.3957 0.8714 0.2899
vn 0.3658 -0.8624 -0.3500
vn -0.5512 0.8173 -0.1681
vn 0.3409 0.9285 0.1473
vn -0.4885 -0.8414 0.2310
vn 0.6262 -0.7697 0.1241
vn -0.3984 0.8779 -0.2656
vn 0.4493 -0.8669 0.2160
vn 0.0099 0.8064 -0.5914
vn -0.0167 0.9285 0.3710
vn -0.3650 -0.8363 -0.4091
vn -0.0914 -0.8506 0.5178
vn 0.1620 0.8678 -0.4698
vn -0.1040 -0.8581 0.5029
vn 0.4522 0.8454 -0.2842
vn -0.3646 0.9285 0.0709
vn -0.0449 -0.8507 -0.5237
vn -0.5237 -0.8452 0.1063
vn 0.4897 0.8719 0.0024
vn -0.5004 -0.8634 0.0635
vn 0.3597 0.8352 0.4160
vn -0.1866 0.9285 -0.3211
vn -0.2315 -0.8522 0.4691
vn -0.4281 -0.8624 -0.2703
vn 0.3747 0.8719 0.3152
vn -0.4252 -0.8634 -0.2715
vn 0.1042 0.8547 0.5086
vn 0.0621 0.9285 -0.3662
vn 0.3460 -0.8300 0.4373
vn 0.2952 -0.8288 0.4753
vn -0.1365 0.8777 -0.4593
vn 0.2071 -0.8667 0.4537
vn 0.1481 0.8524 -0.5015
vn -0.2502 0.9285 0.2744
vn 0.5238 -0.8332 -0.1771
vn 0.5463 -0.8314 -0.1012
vn -0.4893 0.8716 -0.0306
vn 0.5048 -0.8625 -0.0348
vn -0.3413 0.8292 -0.4427
vn 0.1677 0.9285 0.3314
vn 0.1310 -0.8488 -0.5122
vn -0.1982 0.8663 0.4585
vn 0.1433 -0.8566 -0.4958
vn -0.5189 0.8344 0.1859
vn 0.3690 0.9285 -0.0421
vn -0.4730 0.3062 -0.8262
vn -0.8835 0.4542 0.1144
vn -0.3639 0.4648 0.8072
vn 0.5764 0.4816 0.6602
vn 0.0097 -0.9999 -0.0049
vt 0.587427 0.033664
vt 0.638037 0.111342
vt 0.521427 0.055211
vt 0.590815 0.174171
vt 0.588936 0.094660
vt 0.545329 0.169342
vt 0.510658 0.095100
vt 0.540301 0.116018
vt 0.552280 0.174305
vt 0.510820 0.087558
vt 0.638037 0.050840
vt 0.058260 0.496502
vt 0.127373 0.605096
vt 0.087345 0.508900
vt 0.127373 0.627392
vt 0.119557 0.518236
vt 0.110552 0.644309
vt 0.086745 0.642708
vt 0.152365 0.525592
vt 0.072039 0.625936
vt 0.188776 0.528861
vt 0.073083 0.603682
vt 0.225240 0.530720
vt 0.028701 0.482957
vt 0.111909 0.589058
vt 0.190055 0.141963
vt 0.193037 0.191520
vt 0.089785 0.589173
vt 0.261484 0.529732
vt 0.000297 0.467613
vt 0.232566 0.125106
vt 0.175298 0.116145
vt 0.261484 0.000297
vt 0.223271 0.062919
vt 0.953988 0.836727
vt 0.717353 0.585882
vt 0.959040 0.846213
vt 0.923925 0.696365
vt 0.698852 0.960107
vt 0.944319 0.811474
vt 0.906271 0.779167
vt 0.943170 0.821790
vt 0.768881 0.858038
vt 0.950982 0.848672
vt 0.633259 0.421945
vt 0.482541 0.528565
vt 0.508781 0.983560
vt 0.696846 0.970635
vt 0.755366 0.421354
vt 0.647955 0.496566
vt 0.040602 0.959647
vt 0.228489 0.945331
vt 0.767530 0.454639
vt 0.958608 0.446208
vt 0.970828 0.634433
vt 0.970828 0.841143
vt 0.906109 0.620747
vt 0.563291 0.732575
vt 0.468475 0.545630
vt 0.633259 0.713386
vt 0.713851 0.753283
vt 0.705310 0.640985
vt 0.713851 0.964756
vt 0.649383 0.740920
vt 0.246652 0.727079
vt 0.638632 0.507583
vt 0.755366 0.627552
vt 0.978072 0.224394
vt 0.246652 0.938593
vt 0.182327 0.714238
vt 0.978072 0.438928
vt 0.916687 0.211490
vt 0.863795 0.239324
vt 0.407202 0.792786
vt 0.869612 0.250068
vt 0.832841 0.096111
vt 0.452195 0.642364
vt 0.854424 0.214625
vt 0.815508 0.181843
vt 0.853294 0.225146
vt 0.670537 0.262047
vt 0.860620 0.250418
vt 0.262078 0.672087
vt 0.450164 0.653370
vt 0.672608 0.722685
vt 0.858014 0.715705
vt 0.247247 0.957480
vt 0.436145 0.945085
vt 0.880100 0.029264
vt 0.467881 0.434692
vt 0.880100 0.242929
vt 0.815221 0.016165
vt 0.467881 0.646769
vt 0.399445 0.421945
vt 0.878912 0.497715
vt 0.453677 0.726726
vt 0.878912 0.707852
vt 0.816358 0.483953
vt 0.453677 0.938910
vt 0.388387 0.714238
vt 0.458158 0.652891
vt 0.420812 0.497314
vt 0.486061 0.541086
vt 0.442715 0.618625
vt 0.404041 0.587258
vt 0.441801 0.628940
vt 0.477343 0.535544
vt 0.578782 0.651906
vt 0.861356 0.703319
vt 0.507243 0.558450
vt 0.555743 0.567666
vt 0.503195 0.549015
vt 0.866380 0.712913
vt 0.832050 0.561675
vt 0.438360 0.934418
vt 0.851791 0.677805
vt 0.813679 0.644985
vt 0.850561 0.688192
vt 0.444292 0.945306
vt 0.429345 0.910563
vt 0.390856 0.878239
vt 0.428245 0.920957
vt 0.704775 0.970950
vt 0.667885 0.818712
vt 0.961897 0.435253
vt 0.689844 0.936347
vt 0.651457 0.904180
vt 0.688759 0.946705
vt 0.650376 0.504841
vt 0.201122 0.787622
vt 0.643998 0.500735
vt 0.665668 0.517537
vt 0.700938 0.524453
vt 0.662761 0.510651
vt 0.230928 0.934403
vt 0.931956 0.291313
vt 0.236776 0.945016
vt 0.221619 0.910316
vt 0.183025 0.878269
vt 0.220578 0.920696
vt 0.967695 0.446190
vt 0.952748 0.410427
vt 0.913919 0.377115
vt 0.951517 0.420995
vt 0.378651 0.256521
vt 0.402610 0.249354
vt 0.327972 0.171709
vt 0.338199 0.254798
vt 0.498068 0.277922
vt 0.416460 0.234800
vt 0.405492 0.214430
vt 0.365560 0.211041
vt 0.385850 0.289778
vt 0.498068 0.314822
vt 0.438598 0.263894
vt 0.463501 0.326604
vt 0.438598 0.205545
vt 0.441585 0.297381
vt 0.391601 0.177910
vt 0.462697 0.272568
s 0
usemtl Material.013
f 6/10/1 7/11/1 5/8/1
f 2/4/2 6/9/2 4/6/2
f 6/10/3 1/1/3 7/11/3
f 17/30/4 15/26/4 14/24/4
f 9/14/5 16/27/5 10/16/5
f 14/24/6 15/26/6 8/12/6
f 3/5/7 7/11/7 4/6/7 5/8/7
f 16/27/8 19/33/8 18/31/8
f 26/42/9 27/43/9 25/41/9
f 22/37/10 26/42/10 24/40/10
f 26/42/11 21/35/11 27/44/11
f 33/80/12 34/81/12 32/79/12
f 29/75/2 33/80/2 31/78/2
f 33/80/13 28/73/13 34/82/13
f 39/106/14 34/83/14 38/105/14
f 35/101/15 39/106/15 37/104/15
f 39/106/16 30/77/16 34/84/16
f 44/112/17 27/45/17 43/111/17
f 40/107/18 44/112/18 42/110/18
f 44/112/19 36/103/19 27/46/19
f 49/118/20 34/85/20 48/117/20
f 45/113/21 49/118/21 47/116/21
f 49/118/22 41/109/22 34/86/22
f 53/122/23 34/87/23 52/121/23
f 50/119/24 53/122/24 51/120/24
f 53/122/25 46/115/25 34/88/25
f 58/128/26 27/47/26 57/127/26
f 54/123/27 58/128/27 56/126/27
f 58/128/28 23/39/28 27/48/28
f 63/134/29 27/49/29 62/133/29
f 60/131/30 63/134/30 61/132/30
f 63/134/31 59/129/31 27/50/31
f 68/140/32 27/51/32 67/139/32
f 65/137/33 68/140/33 66/138/33
f 68/140/34 64/135/34 27/52/34
f 72/144/35 27/53/35 71/143/35
f 69/141/36 72/144/36 70/142/36
f 72/144/37 55/125/37 27/54/37
f 73/145/38 78/152/38 74/146/38
f 73/145/39 75/148/39 78/152/39
f 78/152/40 77/151/40 74/146/40
f 77/151/41 76/150/41 74/146/41
f 75/147/42 82/159/42 78/152/42
f 82/159/43 81/157/43 77/151/43
f 81/157/44 80/155/44 76/150/44
f 80/155/45 79/153/45 74/146/45
f 79/153/46 75/148/46 73/145/46
f 16/27/47 18/31/47 11/19/47 10/16/47
f 4/6/48 7/11/48 1/2/48
f 2/3/49 1/1/49 6/10/49
f 2/4/50 4/6/50 1/2/50
f 5/8/51 7/11/51 3/5/51
f 6/10/52 5/8/52 4/7/52
f 16/27/53 9/14/53 8/12/53 15/26/53
f 11/18/54 12/20/54 13/22/54 17/28/54 14/25/54 8/13/54 9/15/54 10/17/54
f 17/29/55 13/23/55 18/31/55
f 12/21/56 11/19/56 18/31/56
f 13/23/57 12/21/57 18/31/57
f 20/34/58 19/33/58 16/27/58 15/26/58
f 15/26/59 17/30/59 20/34/59
f 20/34/60 17/30/60 18/32/60 19/33/60
f 23/38/61 27/55/61 24/40/61 25/41/61
f 30/76/62 34/89/62 31/78/62 32/79/62
f 24/40/63 27/56/63 21/35/63
f 22/37/64 21/35/64 26/42/64
f 22/37/65 24/40/65 21/35/65
f 25/41/66 27/57/66 23/38/66
f 26/42/67 25/41/67 24/40/67
f 36/102/68 34/90/68 37/104/68 38/105/68
f 31/78/69 34/91/69 28/73/69
f 29/75/70 28/73/70 33/80/70
f 29/75/71 31/78/71 28/73/71
f 32/79/72 34/92/72 30/76/72
f 33/80/52 32/79/52 31/78/52
f 41/108/73 27/58/73 42/110/73 43/111/73
f 37/104/74 34/93/74 30/77/74
f 35/101/75 30/77/75 39/106/75
f 35/101/76 37/104/76 30/77/76
f 38/105/77 34/94/77 36/102/77
f 39/106/78 38/105/78 37/104/78
f 46/114/79 34/95/79 47/116/79 48/117/79
f 42/110/80 27/59/80 36/103/80
f 40/107/81 36/103/81 44/112/81
f 40/107/82 42/110/82 36/103/82
f 43/111/83 27/60/83 41/108/83
f 44/112/84 43/111/84 42/110/84
f 28/74/85 34/96/85 51/120/85 52/121/85
f 47/116/86 34/97/86 41/109/86
f 45/113/87 41/109/87 49/118/87
f 45/113/88 47/116/88 41/109/88
f 48/117/89 34/98/89 46/114/89
f 49/118/90 48/117/90 47/116/90
f 55/124/91 27/61/91 56/126/91 57/127/91
f 51/120/92 34/99/92 46/115/92
f 50/119/93 46/115/93 53/122/93
f 50/119/94 51/120/94 46/115/94
f 52/121/95 34/100/95 28/74/95
f 53/122/96 52/121/96 51/120/96
f 21/36/97 27/62/97 61/132/97 62/133/97
f 56/126/98 27/63/98 23/39/98
f 54/123/99 23/39/99 58/128/99
f 54/123/100 56/126/100 23/39/100
f 57/127/101 27/64/101 55/124/101
f 58/128/102 57/127/102 56/126/102
f 59/130/103 27/65/103 66/138/103 67/139/103
f 61/132/104 27/66/104 59/129/104
f 60/131/105 59/129/105 63/134/105
f 60/131/106 61/132/106 59/129/106
f 62/133/107 27/67/107 21/36/107
f 63/134/108 62/133/108 61/132/108
f 64/136/109 27/68/109 70/142/109 71/143/109
f 66/138/110 27/69/110 64/135/110
f 65/137/111 64/135/111 68/140/111
f 65/137/112 66/138/112 64/135/112
f 67/139/113 27/70/113 59/130/113
f 68/140/114 67/139/114 66/138/114
f 70/142/115 27/71/115 55/125/115
f 69/141/116 55/125/116 72/144/116
f 69/141/117 70/142/117 55/125/117
f 71/143/118 27/72/118 64/136/118
f 72/144/119 71/143/119 70/142/119
f 77/151/120 78/152/120 82/159/120
f 76/150/121 77/151/121 81/157/121
f 80/155/122 74/146/122 76/150/122
f 79/153/123 73/145/123 74/146/123
f 80/156/124 81/158/124 82/160/124 75/149/124 79/154/124
