# Blender 3.4.1
# www.blender.org
mtllib monton_aire_nev.mtl
o Cube.237
v -1.000002 -1.000000 1.000000
v -1.000002 -1.000000 -1.000000
v 1.000002 -1.000000 1.000000
v 1.000002 -1.000000 -1.000000
v -1.000002 -1.000000 -0.333333
v -1.000002 -1.000000 0.333333
v 1.000002 -1.000000 0.333333
v 1.000002 -1.000000 -0.333333
v 0.160544 -1.000000 -1.000000
v 0.160544 -1.000000 1.000000
v 0.160544 -1.000000 -0.333333
v 0.160544 -1.000000 0.333333
v -1.000002 0.577889 1.000000
v -1.000002 0.577889 -1.000000
v 1.000002 0.577889 -1.000000
v 1.000002 0.577889 0.333333
v -1.000002 0.577889 -0.333333
v 0.160544 0.577889 1.000000
v 0.160544 0.577889 -1.000000
v -1.000002 -0.195433 -1.000000
v 1.000002 -0.195433 -1.000000
v 1.000002 -0.689435 -1.000000
v 1.000002 -0.195433 -0.333333
v 1.000002 -0.689435 -0.333333
v 1.000002 -0.195433 0.333333
v 1.000002 -0.689435 0.333333
v -1.000002 -0.195433 0.333333
v -1.000002 -0.689435 0.333333
v -1.000002 -0.195433 -0.333333
v -1.000002 -0.689435 -0.333333
v 0.160544 -0.195433 1.000000
v 0.160544 -0.689435 1.000000
v 0.160544 -0.195433 -1.000000
v 0.160544 -0.195433 1.147860
v -1.000002 -0.689435 1.000000
v -1.000002 -0.195433 1.000000
v 1.000002 -1.000000 1.202027
v 0.160544 -1.000000 1.202027
v 0.160544 -0.689435 1.202027
v 1.182629 -1.000000 1.000000
v 1.182629 -1.000000 0.333333
v 1.182629 -0.689435 0.333333
v 1.182629 -0.195433 0.333333
v 1.182629 -1.000000 1.202027
v 1.110942 -0.637470 -1.000000
v -1.055090 -0.296968 1.000000
v 1.110942 -0.689435 -1.000000
v 1.110942 -1.000000 -1.000000
v 1.110942 -1.000000 -0.333333
v 1.110942 -1.000000 0.333333
v 1.110942 -0.689435 -0.333333
v 1.110942 -0.689435 0.333333
v -1.000002 -1.000000 -1.115961
v 0.160544 -1.000000 -1.115961
v 1.000002 -0.689435 -1.115961
v 1.000002 -1.000000 -1.115961
v 1.000002 -0.637470 -1.000000
v 1.000002 -0.154428 -0.333333
v 0.160544 -0.195433 -1.115961
v 1.110942 -0.689435 -1.115961
v 1.110942 -1.000000 -1.115961
v 0.160544 -0.689435 1.147860
v -1.000002 -0.689435 1.147860
v -1.055090 -0.143440 1.000000
v -1.127399 -1.000000 -1.000000
v -1.127399 -1.000000 -0.333333
v -1.127399 -0.689435 -0.333333
v -1.127399 -0.195433 1.000000
v -0.999447 0.464249 -1.000889
v 0.099679 0.603588 -1.179844
v -1.127399 -0.195433 0.333333
v -1.127399 -0.689435 0.333333
v -1.127399 -0.195433 -0.333333
v -1.127399 -1.000000 -1.115961
v 1.000002 -0.637470 -1.115961
v -1.220285 0.465170 -1.001792
v -1.220285 0.603047 -1.002004
v -1.217029 0.462919 1.315288
v -1.231609 0.462919 1.009223
v -1.218012 0.602539 1.022819
v -1.217029 0.602386 1.315288
v -1.000002 0.462919 1.000000
v 1.000002 0.462919 -1.000000
v 1.000002 0.462919 0.333333
v -1.000002 0.462919 -0.333333
v 0.160544 0.462919 1.000000
v 0.160544 0.462919 -1.000000
v 0.160544 0.462919 1.202027
v 1.182629 0.462919 0.333333
v 1.182629 0.462919 1.202027
v 1.000002 0.462919 -1.115961
v 0.160544 0.462919 -1.115961
v -1.126395 0.462919 1.003681
v -1.127399 0.462919 -0.333333
v 1.295891 0.602386 1.315288
v 1.000002 0.462919 0.249909
v 1.295891 0.462919 1.315288
v 0.099739 0.467607 -1.004234
v 1.030428 0.465263 -1.179729
v 1.000002 -0.296968 -1.000000
v 1.000002 -0.296968 -0.333333
v 1.000002 -0.296968 0.333333
v 0.160544 -0.143440 1.000000
v 0.160544 -0.296968 1.000000
v -1.000002 -0.296968 1.000000
v -1.055090 -0.195433 1.000000
v 1.182629 -0.296968 0.333333
v 1.110942 -0.634955 0.333333
v 1.110942 -0.296968 -1.000000
v 1.110942 -0.296968 -0.333333
v 1.000002 -0.154428 -1.000000
v 0.160544 -0.296968 -1.115961
v 0.160544 -0.296968 1.147860
v -1.000002 -0.296968 1.147860
v -1.000002 -0.143440 1.000000
v -1.127399 -0.296968 -0.333333
v -1.127399 -0.296968 -1.115961
v -1.000002 -0.137083 -0.333333
v -1.127399 -0.137083 -0.333333
v -1.000002 -0.137083 -1.000000
v 0.160544 -0.137083 -1.000000
v 0.160544 -0.137083 -1.115961
v 0.160544 -0.296968 -1.219392
v 0.160544 -0.137083 -1.219392
v -1.226430 -0.296968 -0.333333
v -1.226430 -0.137083 -0.333333
v -1.226430 -0.137083 -1.219392
v -1.226430 -0.296968 -1.219392
v 1.188388 -0.296968 -0.257483
v 1.000002 -0.154428 -0.257483
v 1.000002 -0.195433 -0.257483
v 1.000002 -0.296968 -0.257483
v 1.188388 -0.154428 -0.257483
v 1.000002 -0.195433 -1.060992
v 1.000002 -0.296968 -1.060992
v 1.000002 -0.154428 -1.060992
v 1.188388 -0.296968 -1.060992
v 1.188388 -0.154428 -1.060992
v 0.160544 -0.143440 1.199230
v 0.160544 -0.296968 1.199230
v -1.055090 -0.296968 1.199230
v -1.055090 -0.143440 1.199230
v 1.000002 -0.634955 0.333333
v 1.000002 -0.634955 -0.333333
v 1.110942 -0.634955 -0.333333
v 1.178427 -0.689435 -0.333333
v 1.178427 -0.689435 0.333333
v 1.178427 -0.634955 -0.333333
v 1.178427 -0.634955 0.333333
v 1.000002 -0.637470 -1.149932
v 1.000002 -0.689435 -1.149932
v 1.149085 -0.689435 -1.000000
v 1.149085 -0.637470 -1.000000
v 1.149085 -0.689435 -1.149932
v 1.149085 -0.637470 -1.149932
v -1.221634 0.603402 -1.179618
v -1.221574 0.467421 -1.179613
v 1.295891 0.602386 -1.179620
v 1.295891 0.462919 -1.179620
vn -0.0000 -1.0000 -0.0000
vn -0.0000 -0.0000 1.0000
vn -0.0000 -0.0000 -1.0000
vn -1.0000 0.0006 0.0003
vn -1.0000 -0.0000 -0.0000
vn 0.0002 1.0000 0.0003
vn 1.0000 -0.0000 -0.0000
vn -0.9988 0.0490 -0.0022
vn -0.9985 0.0474 0.0260
vn 0.0145 -0.0028 0.9999
vn -0.0032 -1.0000 -0.0007
vn -0.0064 -1.0000 -0.0014
vn -0.0000 -0.0004 -1.0000
vn -0.0018 -0.9999 -0.0128
vn -0.0000 1.0000 -0.0000
vn -1.0000 -0.0002 0.0074
vt 0.188596 0.161805
vt 0.262685 0.213606
vt 0.117006 0.202709
vt 0.212209 0.280648
vt 0.672867 0.091617
vt 0.240093 0.193728
vt 0.211756 0.175718
vt 0.628754 0.112086
vt 0.147963 0.236476
vt 0.182311 0.261277
vt 0.238652 0.253828
vt 0.629317 0.087098
vt 0.149140 0.184289
vt 0.207615 0.231546
vt 0.177288 0.208640
vt 0.180119 0.072064
vt 0.384218 0.193919
vt 0.237832 0.419776
vt 0.057549 0.301860
vt 0.330594 0.112417
vt 0.087426 0.126623
vt 0.389787 0.368460
vt 0.307037 0.210992
vt 0.553937 0.775360
vt 0.665636 0.156102
vt 0.224992 0.328403
vt 0.584677 0.866517
vt 0.566336 0.888186
vt 0.534809 0.883327
vt 0.661730 0.140738
vt 0.164830 0.304359
vt 0.532851 0.859542
vt 0.168361 0.274727
vt 0.614995 0.125625
vt 0.119228 0.264753
vt 0.140030 0.251034
vt 0.624955 0.119056
vt 0.225474 0.142593
vt 0.665867 0.067133
vt 0.218280 0.164998
vt 0.662422 0.077861
vt 0.692758 0.077819
vt 0.281636 0.164910
vt 0.595421 0.768684
vt 0.677264 0.086345
vt 0.249276 0.182716
vt 0.619644 0.073460
vt 0.128938 0.155806
vt 0.624756 0.080855
vt 0.139613 0.171251
vt 0.308268 0.309441
vt 0.484542 0.766021
vt 0.137835 0.154639
vt 0.646902 0.073042
vt 0.185865 0.154933
vt 0.522543 0.826815
vt 0.644630 0.061536
vt 0.181120 0.130903
vt 0.097468 0.189696
vt 0.604576 0.089687
vt 0.137104 0.183100
vt 0.623554 0.086528
vt 0.618663 0.082010
vt 0.116642 0.209166
vt 0.613757 0.099010
vt 0.140135 0.234898
vt 0.625006 0.111330
vt 0.620383 0.115193
vt 0.611969 0.121744
vt 0.103875 0.201309
vt 0.607644 0.095247
vt 0.559709 0.884037
vt 0.556921 0.881313
vt 0.514500 0.828666
vt 0.559308 0.887329
vt 0.556383 0.888935
vt 0.659903 0.139605
vt 0.659633 0.134006
vt 0.212453 0.282256
vt 0.181095 0.264149
vt 0.644618 0.125336
vt 0.630212 0.114289
vt 0.151008 0.241078
vt 0.173962 0.276427
vt 0.641203 0.131215
vt 0.163036 0.271198
vt 0.587798 0.857059
vt 0.579906 0.873642
vt 0.145101 0.253198
vt 0.627383 0.120093
vt 0.143823 0.264233
vt 0.585575 0.832991
vt 0.684935 0.101611
vt 0.265296 0.214599
vt 0.250100 0.261312
vt 0.677659 0.123978
vt 0.663449 0.140130
vt 0.542326 0.884986
vt 0.544512 0.887337
vt 0.215450 0.282674
vt 0.661068 0.134206
vt 0.566738 0.884894
vt 0.535553 0.879958
vt 0.552347 0.875362
vt 0.541737 0.857685
vt 0.704567 0.146096
vt 0.306297 0.307506
vt 0.481898 0.754164
vt 0.661663 0.139244
vt 0.550605 0.887388
vt 0.660473 0.134591
vt 0.214208 0.283478
vt 0.141754 0.168245
vt 0.625781 0.079416
vt 0.181703 0.154180
vt 0.644909 0.072681
vt 0.160032 0.140663
vt 0.519276 0.818820
vt 0.264021 0.214108
vt 0.684324 0.101376
vt 0.245343 0.193065
vt 0.675381 0.091300
vt 0.680319 0.086364
vt 0.255657 0.182756
vt 0.185437 0.128755
vt 0.646697 0.060507
vt 0.584027 0.798223
vt 0.512860 0.865808
vt 0.500748 0.861503
vt 0.232584 0.141936
vt 0.669272 0.066819
vt 0.222947 0.164834
vt 0.664657 0.077782
vt 0.690484 0.076796
vt 0.596394 0.756381
vt 0.265342 0.213944
vt 0.684957 0.101297
vt 0.543069 0.881617
vt 0.546127 0.880143
vt 0.573857 0.804869
vt 0.512860 0.865808
vt 0.572878 0.798177
vt 0.503460 0.868261
vt 0.589338 0.721075
vt 0.597673 0.712354
vt 0.506516 0.798885
vt 0.509463 0.792607
vt 0.591984 0.710700
vt 0.587697 0.715872
vt 0.175738 0.085037
vt 0.642053 0.039574
vt 0.666250 0.190347
vt 0.226272 0.399924
vt 0.591836 0.140770
vt 0.480307 0.716894
vt 0.070861 0.296383
vt 0.714738 0.059759
vt 0.327541 0.127192
vt 0.591830 0.795368
vt 0.095376 0.133431
vt 0.603574 0.062746
vt 0.603564 0.708176
vt 0.379416 0.349075
vt 0.521836 0.871023
vt 0.602507 0.070194
vt 0.595559 0.724883
vt 0.593680 0.130922
vt 0.488055 0.730133
vt 0.590296 0.095485
vt 0.538186 0.736879
vt 0.677076 0.189887
vt 0.456732 0.841099
vt 0.739475 0.176441
vt 0.379203 0.370880
vt 0.510559 0.852533
vt 0.648399 0.038534
vt 0.597673 0.712354
vt 0.499581 0.801679
vt 0.707326 0.056031
vt 0.581264 0.812671
vt 0.537542 0.720456
vt 0.485900 0.719796
vt 0.537895 0.728541
vt 0.512860 0.865808
vt 0.485900 0.719796
vt 0.462718 0.848761
vt 0.664843 0.151324
vt 0.591047 0.852718
vt 0.161859 0.296222
vt 0.529511 0.838525
vt 0.122845 0.262683
vt 0.616727 0.124634
vt 0.139095 0.150620
vt 0.459013 0.804367
vt 0.620939 0.074885
vt 0.131642 0.158783
vt 0.515545 0.831661
vt 0.645807 0.065383
vt 0.183579 0.138937
vt 0.519915 0.823018
vt 0.172995 0.138903
vt 0.611642 0.118693
vt 0.145330 0.253942
vt 0.143888 0.264052
vt 0.586673 0.833176
vt 0.661157 0.150514
vt 0.581548 0.846152
vt 0.168637 0.298205
vt 0.638653 0.141642
vt 0.546832 0.835729
vt 0.578749 0.862885
vt 0.696902 0.139841
vt 0.483748 0.740564
vt 0.456061 0.826091
vt 0.137671 0.157118
vt 0.623826 0.074088
vt 0.507888 0.828838
vt 0.642535 0.067448
vt 0.174115 0.128898
vt 0.517835 0.814397
vt 0.688116 0.079181
vt 0.595662 0.745045
vt 0.701232 0.099289
vt 0.554386 0.739253
vt 0.591063 0.765787
vt 0.591270 0.759100
vt 0.553742 0.771285
vt 0.488079 0.763297
vt 0.488453 0.757618
vt 0.491378 0.745332
vt 0.492323 0.753477
vt 0.589290 0.748504
vt 0.588279 0.755576
vt 0.554225 0.754033
vt 0.553795 0.745803
vt 0.547664 0.842492
vt 0.542104 0.851177
vt 0.540322 0.849346
vt 0.539780 0.842927
vt 0.548558 0.848258
vt 0.581905 0.857921
vt 0.585319 0.853499
vt 0.579647 0.858544
vt 0.578305 0.850020
vt 0.575806 0.854616
vt 0.457291 0.814464
vt 0.456183 0.823797
vt 0.508683 0.826163
vt 0.508920 0.821632
vt 0.143861 0.255171
vt 0.586065 0.831069
vt 0.165722 0.274457
vt 0.573956 0.875619
vt 0.162483 0.272488
vt 0.577140 0.873093
vt 0.576957 0.871861
vt 0.583301 0.864816
vt 0.144014 0.264186
vt 0.585749 0.833346
vt 0.579499 0.867281
vt 0.144069 0.264026
vt 0.586285 0.833520
vt 0.545271 0.882103
vt 0.544528 0.885472
vt 0.556891 0.887034
vt 0.557293 0.883742
vt 0.551067 0.885598
vt 0.551057 0.884186
vt 0.500748 0.861503
vt 0.506099 0.856887
vt 0.494200 0.721176
vt 0.492936 0.725283
s 0
usemtl pared_nieve
f 12/15/1 7/9/1 3/3/1 10/13/1
f 9/11/1 4/4/1 8/10/1 11/14/1
f 11/14/1 8/10/1 7/9/1 12/15/1
f 5/6/1 11/14/1 12/15/1 6/7/1
f 2/2/1 9/11/1 11/14/1 5/6/1
f 6/7/1 12/15/1 10/13/1 1/1/1
f 37/59/1 3/3/1 40/64/1 44/70/1
f 5/5/2 30/45/2 67/123/2 66/122/2
f 53/94/1 2/2/1 65/119/1 74/136/1
f 20/23/3 14/17/3 19/22/3 87/163/3 33/51/3
f 7/8/3 26/37/3 42/68/3 41/67/3
f 22/28/2 47/75/2 45/72/2 57/102/2
f 31/48/2 86/160/2 18/21/2 13/16/2 82/150/2 36/58/2
f 2/2/1 5/6/1 66/121/1 65/119/1
f 72/133/4 71/131/4 68/126/4 93/176/4 94/179/4 73/134/4 116/221/4 67/123/4
f 4/4/1 9/11/1 54/95/1 56/100/1
f 74/137/3 117/223/3 112/212/3 54/96/3 53/93/3
f 10/13/2 32/50/2 35/55/2 1/1/2
f 24/33/5 26/36/5 143/250/5 144/252/5
f 26/36/2 7/9/2 50/83/2 52/89/2
f 21/27/5 23/32/5 58/105/5 111/211/5
f 116/222/2 73/135/2 119/226/2 126/233/2 125/232/2
f 116/221/5 117/223/5 74/137/5 65/120/5 66/122/5 67/123/5
f 55/98/5 22/29/5 57/103/5 75/138/5
f 20/24/2 33/52/2 121/228/2 120/227/2
f 32/49/5 10/12/5 38/62/5 39/63/5
f 80/147/6 81/149/6 95/181/6 158/271/6 70/129/6 156/269/6 77/142/6
f 9/11/1 2/2/1 53/94/1 54/95/1
f 26/36/2 52/89/2 108/203/2 143/250/2
f 95/181/7 97/183/7 159/272/7 158/271/7
f 114/217/1 113/214/1 140/247/1 141/248/1
f 10/13/1 3/3/1 37/59/1 38/61/1
f 31/47/5 104/195/5 32/49/5 39/63/5 88/165/5 86/161/5
f 28/40/5 30/46/5 5/6/5 6/7/5 1/1/5 35/55/5
f 36/56/3 105/197/3 46/74/3 106/200/3
f 102/192/3 25/34/3 43/69/3 107/202/3
f 3/3/1 7/9/1 41/66/1 40/64/1
f 89/167/7 90/169/7 44/71/7 40/65/7 41/67/7 42/68/7 107/202/7 43/69/7
f 49/81/7 51/85/7 52/90/7 50/82/7
f 47/77/7 48/78/7 61/111/7 60/109/7
f 7/9/1 8/10/1 49/80/1 50/83/1
f 8/10/1 4/4/1 48/79/1 49/80/1
f 101/189/2 24/33/2 51/84/2 110/208/2
f 47/77/7 109/206/7 110/209/7 51/85/7 49/81/7 48/78/7
f 45/72/2 47/75/2 152/265/2 153/266/2
f 56/101/3 55/97/3 60/109/3 61/111/3
f 21/25/7 100/187/7 22/30/7 55/97/7 91/171/7 83/152/7
f 105/197/1 114/217/1 141/248/1 46/74/1
f 85/157/3 29/42/3 73/134/3 94/179/3
f 48/79/1 4/4/1 56/100/1 61/112/1
f 30/46/1 28/40/1 72/132/1 67/124/1
f 51/86/3 24/33/3 144/252/3 145/254/3
f 105/198/5 35/54/5 63/116/5 114/218/5
f 104/196/7 31/48/7 34/53/7 113/215/7
f 35/55/1 32/50/1 62/113/1 63/115/1
f 59/106/3 92/173/3 91/171/3 55/97/3 56/101/3 54/96/3 112/212/3
f 142/249/5 64/118/5 106/200/5 46/74/5 141/248/5
f 77/142/8 76/140/8 79/146/8 80/147/8
f 27/38/1 36/58/1 68/125/1 71/130/1
f 35/55/5 105/199/5 36/58/5 27/38/5 28/40/5
f 80/148/9 79/145/9 78/144/9 81/149/9
f 88/165/2 39/63/2 38/62/2 37/60/2 44/71/2 90/169/2
f 36/57/10 82/151/10 93/176/10 68/126/10
f 33/51/5 87/163/5 92/174/5 59/107/5
f 86/162/1 88/166/1 90/170/1 97/183/1 78/144/1 79/145/1 93/177/1
f 115/219/3 36/58/3 106/201/3 64/117/3
f 25/34/3 84/154/3 89/167/3 43/69/3
f 29/43/5 85/158/5 17/20/5 14/17/5 20/23/5
f 96/182/11 99/185/11 159/272/11 97/183/11 90/170/11 89/168/11 84/155/11
f 21/26/7 83/153/7 15/18/7 16/19/7 84/156/7 25/35/7 102/191/7 26/36/7 24/33/7 101/189/7 23/31/7
f 76/140/12 69/127/12 85/159/12 94/180/12 93/178/12 79/146/12
f 70/129/13 158/271/13 159/272/13 99/186/13 157/270/13 156/269/13
f 92/175/14 87/164/14 98/184/14 69/128/14 76/141/14 157/270/14 99/186/14 91/172/14
f 31/48/3 36/58/3 115/219/3 103/193/3
f 28/41/2 27/39/2 71/131/2 72/133/2
f 32/50/7 104/196/7 113/215/7 62/113/7
f 62/114/2 113/216/2 114/218/2 63/116/2
f 154/267/1 152/265/1 47/76/1 60/110/1
f 110/210/1 129/236/1 132/239/1 101/190/1
f 26/37/3 102/192/3 107/202/3 42/68/3
f 55/98/5 75/138/5 150/263/5 151/264/5
f 140/247/2 139/246/2 142/249/2 141/248/2
f 109/207/1 100/188/1 135/242/1 137/244/1
f 151/264/1 154/267/1 60/110/1 55/99/1
f 58/105/15 130/237/15 133/240/15 138/245/15 136/243/15 111/211/15
f 22/30/3 100/187/3 109/206/3 47/77/3
f 73/135/2 29/44/2 118/225/2 119/226/2
f 29/44/7 20/24/7 120/227/7 118/225/7
f 33/52/7 59/108/7 122/229/7 121/228/7
f 122/229/7 59/108/7 112/213/7 123/230/7 124/231/7
f 124/231/15 127/234/15 126/233/15 119/226/15 118/225/15 120/227/15 121/228/15 122/229/15
f 123/230/3 128/235/3 127/234/3 124/231/3
f 117/224/1 116/222/1 125/232/1 128/235/1
f 45/73/15 153/266/15 155/268/15 150/263/15 75/139/15 57/104/15
f 126/233/5 127/234/5 128/235/5 125/232/5
f 130/237/2 131/238/2 132/239/2 129/236/2 133/240/2
f 58/105/5 23/32/5 131/238/5 130/237/5
f 147/259/7 146/257/7 148/260/7 149/262/7
f 108/204/2 52/91/2 147/258/2 149/261/2
f 23/32/5 101/190/5 132/239/5 131/238/5
f 138/245/3 137/244/3 135/242/3 134/241/3 136/243/3
f 100/188/5 21/27/5 134/241/5 135/242/5
f 21/27/5 111/211/5 136/243/5 134/241/5
f 138/245/7 133/240/7 129/236/7 137/244/7
f 52/92/1 51/87/1 146/257/1 147/259/1
f 51/88/3 145/255/3 148/260/3 146/257/3
f 108/205/15 149/262/15 148/260/15 145/256/15 144/253/15 143/251/15
f 150/263/3 155/268/3 154/267/3 151/264/3
f 152/265/7 154/267/7 155/268/7 153/266/7
f 110/210/1 109/207/1 137/244/1 129/236/1
f 112/213/1 117/224/1 128/235/1 123/230/1
f 115/220/15 64/118/15 142/249/15 139/246/15 103/194/15
f 76/141/16 77/143/16 156/269/16 157/270/16
f 97/183/2 95/181/2 81/149/2 78/144/2
