# Blender 3.3.1
# www.blender.org
mtllib Pino_fall.mtl
o Traa
v 0.053273 -2.722560 -2.484743
v -1.519765 -2.258029 -1.468466
v -2.609748 -2.711777 0.025249
v -1.519765 -2.258029 1.518964
v 0.026810 -2.707844 2.563476
v 1.467662 -2.258029 1.518964
v 2.462382 -2.711777 0.025249
v 1.467662 -2.258029 -1.468466
v -0.026052 4.277820 0.025249
v -0.026052 3.352111 0.770896
v 0.443573 3.423558 0.494874
v -0.771697 3.352111 0.025249
v -0.495676 3.423558 0.494874
v -0.026052 3.352111 -0.720397
v -0.495676 3.423558 -0.444375
v 0.443573 3.423558 -0.444375
v 0.719595 3.352111 0.025249
v 0.832339 1.884911 0.797696
v -0.810664 1.878948 0.871532
v -0.851018 1.881452 -0.791779
v 0.979101 2.088992 -0.011982
v -0.026052 2.087854 1.029881
v -1.030682 2.087854 0.025249
v -0.000813 2.088374 -0.979382
v 0.783039 1.881452 -0.791779
v 1.194630 0.343865 1.255458
v -1.265785 0.343865 1.255458
v -1.265785 0.343865 -1.204959
v 1.330860 0.705861 0.025249
v -0.080194 0.712574 1.393855
v -1.339377 0.836534 0.044695
v -0.160263 0.715539 -1.331663
v 1.232175 0.307944 -1.044233
v 1.539012 -1.174847 1.590314
v -1.645479 -1.329170 1.679937
v -1.774319 -1.403315 -1.599359
v 1.693774 -0.831144 -0.095974
v -0.026052 -0.825220 1.772447
v -1.773248 -0.825220 0.025249
v -0.026052 -0.825220 -1.721948
v 1.613630 -1.326891 -1.614434
v -0.012334 3.572104 0.435446
v -0.422530 3.572104 0.025249
v -0.051290 3.310945 -0.384947
v 0.264001 3.311466 -0.264804
v 0.228419 3.568644 0.359885
v -0.342741 3.574607 0.286049
v -0.316104 3.311466 -0.264804
v 0.397342 3.570965 0.062480
v 0.000655 2.189555 0.654106
v -0.737623 2.065594 0.005804
v 0.080725 2.186590 -0.615301
v 0.361905 2.232189 -0.588414
v 0.399450 2.196268 0.478187
v -0.506424 2.196268 0.478187
v -0.506424 2.196268 -0.427688
v 0.587063 2.196268 0.025249
v -0.026052 0.826706 0.849404
v -0.850205 0.826706 0.025249
v -0.026052 0.826706 -0.798905
v 0.556714 0.826706 -0.557516
v 0.631332 0.674662 0.682633
v -0.629071 0.828986 0.593010
v -0.500230 0.903131 -0.572590
v 0.825474 0.832631 0.146472
v 0.872994 -0.661495 0.924295
v -0.925096 -0.661495 0.924295
v -0.925096 -0.661495 -0.873796
v 1.245391 -0.661495 0.025249
v -0.126544 -0.665428 1.294532
v -1.297493 -0.661495 0.025249
v -0.153007 -0.650712 -1.272267
v 0.872994 -0.661495 -0.873796
v 0.096376 -1.910413 -0.302444
v -0.063178 -1.910413 -0.236355
v -0.129268 -1.910413 -0.076800
v -0.063178 -1.910413 0.082754
v 0.096376 -1.910413 0.148844
v 0.255931 -1.910413 0.082754
v 0.322021 -1.910413 -0.076800
v 0.255931 -1.910413 -0.236355
v 0.096376 -2.869605 -0.435695
v -0.157400 -2.869605 -0.330577
v -0.262518 -2.869605 -0.076800
v -0.157400 -2.869605 0.176977
v 0.096376 -2.869605 0.282094
v 0.350153 -2.869605 0.176977
v 0.455271 -2.869605 -0.076800
v 0.350153 -2.869605 -0.330577
v 0.096376 -3.926946 -0.554764
v -0.241594 -3.926946 -0.414771
v -0.381587 -3.926946 -0.076800
v -0.241594 -3.926946 0.261171
v 0.096376 -3.926946 0.401163
v 0.434347 -3.926946 0.261171
v 0.574340 -3.926946 -0.076800
v 0.434347 -3.926946 -0.414771
vn 0.3406 0.5898 0.7322
vn -0.7322 0.5898 0.3406
vn -0.3406 0.5898 -0.7322
vn 0.3406 0.5898 -0.7322
vn 0.7322 0.5898 0.3406
vn -0.3406 0.5898 0.7322
vn -0.7322 0.5898 -0.3406
vn 0.7322 0.5898 -0.3406
vn -0.0869 -0.9587 0.2709
vn 0.0973 -0.9532 0.2863
vn 0.1944 -0.8372 -0.5112
vn -0.5177 -0.8252 -0.2260
vn 0.1931 -0.9588 -0.2085
vn -0.2119 -0.9522 -0.2199
vn 0.5360 -0.8253 -0.1776
vn -0.1936 -0.8135 -0.5484
vn -0.2608 -0.8892 -0.3759
vn 0.3389 -0.9252 -0.1709
vn 0.2223 -0.8982 0.3794
vn -0.2290 -0.8254 0.5160
vn -0.3715 -0.8960 -0.2432
vn 0.2389 -0.8922 -0.3833
vn 0.3355 -0.9272 0.1664
vn -0.4231 -0.8749 0.2356
vn -0.3477 -0.8960 0.2761
vn 0.2722 -0.9234 0.2705
vn 0.2558 -0.9162 -0.3085
vn -0.2570 -0.9130 -0.3168
vn -0.2851 -0.8757 0.3898
vn 0.2448 -0.9100 0.3346
vn 0.2160 -0.9315 -0.2926
vn -0.2876 -0.9276 -0.2383
vn -0.2051 -0.8974 -0.3906
vn 0.4376 -0.8620 -0.2558
vn 0.2918 -0.8330 0.4701
vn -0.2486 -0.8675 0.4309
vn -0.4364 -0.8760 -0.2054
vn 0.2621 -0.8572 -0.4433
vn 0.4429 -0.8576 0.2616
vn -0.4234 -0.8686 0.2574
vn 0.3127 0.3464 0.8844
vn -0.8835 0.3552 0.3055
vn -0.3128 0.4177 -0.8530
vn 0.3172 0.4263 -0.8472
vn 0.8754 0.3643 0.3176
vn -0.3103 0.3717 0.8750
vn -0.8344 0.3965 -0.3829
vn 0.8213 0.3954 -0.4112
vn 0.8591 0.4408 -0.2601
vn -0.8618 0.4408 -0.2509
vn -0.2555 0.4535 0.8538
vn 0.8522 0.4531 0.2614
vn 0.2464 0.3568 -0.9011
vn -0.2562 0.4593 -0.8505
vn -0.8590 0.4460 0.2515
vn 0.2574 0.4459 0.8573
vn 0.2431 0.4982 0.8323
vn -0.8348 0.4942 0.2426
vn -0.2421 0.4903 -0.8372
vn 0.2433 0.5000 -0.8311
vn 0.8473 0.4738 0.2400
vn -0.2437 0.5026 0.8295
vn -0.8191 0.5184 -0.2456
vn 0.8301 0.5016 -0.2435
vn 0.8054 0.4609 -0.3728
vn -0.7878 0.4757 -0.3913
vn -0.3932 0.4564 0.7982
vn 0.8054 0.4609 0.3728
vn 0.3739 0.4743 -0.7970
vn -0.4004 0.4387 -0.8045
vn -0.7878 0.4757 0.3913
vn 0.3704 0.4826 0.7937
vn 0.2945 -0.9540 -0.0559
vn -0.3366 -0.9407 -0.0422
vn 0.0590 -0.9519 -0.3006
vn 0.2987 -0.9529 0.0527
vn -0.0413 -0.9404 0.3375
vn 0.0469 -0.9408 0.3356
vn -0.3402 -0.9395 0.0396
vn -0.0530 -0.9512 -0.3039
vn 0.9164 0.1273 -0.3796
vn 0.3796 0.1273 0.9164
vn -0.9164 0.1273 0.3796
vn -0.3796 0.1273 -0.9164
vn 0.3796 0.1273 -0.9164
vn 0.9164 0.1273 0.3796
vn -0.3796 0.1273 0.9164
vn -0.9164 0.1273 -0.3796
vn -0.3806 0.1035 0.9189
vn -0.9189 0.1035 -0.3806
vn 0.9189 0.1035 -0.3806
vn 0.3806 0.1035 0.9189
vn -0.9189 0.1035 0.3806
vn -0.3806 0.1035 -0.9189
vn 0.3806 0.1035 -0.9189
vn 0.9189 0.1035 0.3806
vn -0.0000 -1.0000 -0.0000
vt 0.161790 0.478889
vt 0.194060 0.451808
vt 0.227997 0.439048
vt 0.259809 0.433769
vt 0.291345 0.440854
vt 0.324685 0.455039
vt 0.355346 0.482864
vt 0.406467 0.546667
vt 0.110091 0.540112
vt 0.840070 0.147807
vt 0.863500 0.127592
vt 0.843144 0.113201
vt 0.862200 0.171275
vt 0.873842 0.149470
vt 0.812409 0.171596
vt 0.838571 0.187901
vt 0.801510 0.144036
vt 0.819481 0.122694
vt 0.481269 0.115830
vt 0.534470 0.114267
vt 0.534415 0.174509
vt 0.465674 0.139552
vt 0.508897 0.099964
vt 0.554688 0.145088
vt 0.500809 0.191404
vt 0.475643 0.166521
vt 0.211069 0.143951
vt 0.209156 0.180712
vt 0.175293 0.180358
vt 0.190230 0.131295
vt 0.222784 0.164665
vt 0.192038 0.192570
vt 0.163025 0.167573
vt 0.173338 0.145443
vt 0.755078 0.473377
vt 0.672170 0.471370
vt 0.673560 0.390467
vt 0.784377 0.427091
vt 0.712110 0.501509
vt 0.641592 0.429147
vt 0.715981 0.358553
vt 0.755428 0.390836
vt 0.915240 0.081515
vt 0.506701 0.136077
vt 0.915240 0.216181
vt 0.512312 0.142627
vt 0.770523 0.211733
vt 0.506496 0.151151
vt 0.764825 0.149465
vt 0.500750 0.148124
vt 0.863804 0.076547
vt 0.503105 0.137123
vt 0.914435 0.161225
vt 0.511679 0.138246
vt 0.826871 0.227266
vt 0.512028 0.149338
vt 0.790613 0.070831
vt 0.501257 0.141433
vt 0.502462 0.057809
vt 0.197739 0.163335
vt 0.587839 0.149584
vt 0.191668 0.171090
vt 0.480181 0.235792
vt 0.185651 0.162684
vt 0.431418 0.221355
vt 0.185881 0.159707
vt 0.432854 0.055755
vt 0.196388 0.159184
vt 0.588555 0.063021
vt 0.196292 0.168351
vt 0.588555 0.231894
vt 0.187358 0.168461
vt 0.426135 0.129641
vt 0.191628 0.157630
vt 0.264006 0.167898
vt 0.713566 0.446516
vt 0.185245 0.228955
vt 0.697146 0.430894
vt 0.119098 0.160758
vt 0.713832 0.414845
vt 0.105665 0.095758
vt 0.725852 0.419132
vt 0.261177 0.093817
vt 0.727940 0.444928
vt 0.254202 0.239379
vt 0.701247 0.442158
vt 0.111797 0.234205
vt 0.703709 0.418805
vt 0.200362 0.090574
vt 0.730479 0.433167
vt 0.815933 0.535783
vt 0.364221 0.383509
vt 0.597490 0.543825
vt 0.262108 0.351497
vt 0.600846 0.309556
vt 0.156102 0.376153
vt 0.820201 0.440954
vt 0.414866 0.405808
vt 0.697381 0.542868
vt 0.313498 0.349269
vt 0.596526 0.428302
vt 0.205058 0.345684
vt 0.699385 0.318190
vt 0.109367 0.395381
vt 0.820201 0.331729
vt 0.463069 0.445567
vt 0.055885 0.439824
vt 0.236243 0.543462
vt 0.923883 0.686062
vt 0.241281 0.536003
vt 0.923933 0.685607
vt 0.250104 0.534119
vt 0.923756 0.685486
vt 0.258070 0.531122
vt 0.923618 0.685656
vt 0.265873 0.534499
vt 0.894304 0.684836
vt 0.274648 0.536734
vt 0.893887 0.685365
vt 0.279402 0.544398
vt 0.882776 0.687413
vt 0.284730 0.555101
vt 0.230641 0.553948
vt 0.894077 0.685688
vt 0.921840 0.652749
vt 0.942933 0.647784
vt 0.943354 0.640560
vt 0.921996 0.635416
vt 0.891905 0.635689
vt 0.873279 0.641277
vt 0.873077 0.647969
vt 0.893056 0.652732
vt 0.926931 0.593589
vt 0.719025 0.904732
vt 0.952919 0.591472
vt 0.699107 0.924650
vt 0.952919 0.588480
vt 0.670939 0.924650
vt 0.926663 0.586345
vt 0.651021 0.904732
vt 0.889085 0.586328
vt 0.651021 0.876564
vt 0.863014 0.589004
vt 0.670939 0.856646
vt 0.863579 0.592012
vt 0.699107 0.856646
vt 0.890046 0.593613
vt 0.719025 0.876564
s 0
usemtl 1pino
f 11/12/1 9/10/1 10/11/1
f 13/14/2 9/10/2 12/13/2
f 15/16/3 9/10/3 14/15/3
f 14/15/4 9/10/4 16/17/4
f 17/18/5 9/10/5 11/12/5
f 10/11/6 9/10/6 13/14/6
f 12/13/7 9/10/7 15/16/7
f 16/17/8 9/10/8 17/18/8
f 45/49/9 16/17/9 17/18/9 49/57/9
f 43/45/10 12/13/10 15/16/10 48/55/10
f 42/43/11 10/11/11 13/14/11 47/53/11
f 49/57/12 17/18/12 11/12/12 46/51/12
f 44/47/13 14/15/13 16/17/13 45/49/13
f 48/55/14 15/16/14 14/15/14 44/47/14
f 47/53/15 13/14/15 12/13/15 43/45/15
f 46/51/16 11/12/16 10/11/16 42/43/16
f 54/67/17 18/19/17 22/23/17 50/59/17
f 55/69/18 19/20/18 23/24/18 51/61/18
f 56/71/19 20/21/19 24/25/19 52/63/19
f 52/63/20 24/25/20 25/26/20 53/65/20
f 57/73/21 21/22/21 18/19/21 54/67/21
f 50/59/22 22/23/22 19/20/22 55/69/22
f 51/61/23 23/24/23 20/21/23 56/71/23
f 53/65/24 25/26/24 21/22/24 57/73/24
f 61/81/25 33/34/25 29/30/25 65/89/25
f 59/77/26 31/32/26 28/29/26 64/87/26
f 58/75/27 30/31/27 27/28/27 63/85/27
f 65/89/28 29/30/28 26/27/28 62/83/28
f 60/79/29 32/33/29 33/34/29 61/81/29
f 64/87/30 28/29/30 32/33/30 60/79/30
f 63/85/31 27/28/31 31/32/31 59/77/31
f 62/83/32 26/27/32 30/31/32 58/75/32
f 66/91/33 34/35/33 38/39/33 70/99/33
f 67/93/34 35/36/34 39/40/34 71/101/34
f 68/95/35 36/37/35 40/41/35 72/103/35
f 72/103/36 40/41/36 41/42/36 73/105/36
f 69/97/37 37/38/37 34/35/37 66/91/37
f 70/99/38 38/39/38 35/36/38 67/93/38
f 71/101/39 39/40/39 36/37/39 68/95/39
f 73/105/40 41/42/40 37/38/40 69/97/40
f 18/19/41 46/52/41 42/44/41 22/23/41
f 19/20/42 47/54/42 43/46/42 23/24/42
f 20/21/43 48/56/43 44/48/43 24/25/43
f 24/25/44 44/48/44 45/50/44 25/26/44
f 21/22/45 49/58/45 46/52/45 18/19/45
f 22/23/46 42/44/46 47/54/46 19/20/46
f 23/24/47 43/46/47 48/56/47 20/21/47
f 25/26/48 45/50/48 49/58/48 21/22/48
f 33/34/49 53/66/49 57/74/49 29/30/49
f 31/32/50 51/62/50 56/72/50 28/29/50
f 30/31/51 50/60/51 55/70/51 27/28/51
f 29/30/52 57/74/52 54/68/52 26/27/52
f 32/33/53 52/64/53 53/66/53 33/34/53
f 28/29/54 56/72/54 52/64/54 32/33/54
f 27/28/55 55/70/55 51/62/55 31/32/55
f 26/27/56 54/68/56 50/60/56 30/31/56
f 34/35/57 62/84/57 58/76/57 38/39/57
f 35/36/58 63/86/58 59/78/58 39/40/58
f 36/37/59 64/88/59 60/80/59 40/41/59
f 40/41/60 60/80/60 61/82/60 41/42/60
f 37/38/61 65/90/61 62/84/61 34/35/61
f 38/39/62 58/76/62 63/86/62 35/36/62
f 39/40/63 59/78/63 64/88/63 36/37/63
f 41/42/64 61/82/64 65/90/64 37/38/64
f 8/8/65 73/106/65 69/98/65 7/7/65
f 3/3/66 71/102/66 68/96/66 2/2/66
f 5/5/67 70/100/67 67/94/67 4/4/67
f 7/7/68 69/98/68 66/92/68 6/6/68
f 1/1/69 72/104/69 73/107/69 8/9/69
f 2/2/70 68/96/70 72/104/70 1/1/70
f 4/4/71 67/94/71 71/102/71 3/3/71
f 6/6/72 66/92/72 70/100/72 5/5/72
f 2/2/73 75/110/73 76/112/73 3/3/73
f 7/7/74 80/120/74 81/122/74 8/8/74
f 5/5/75 78/116/75 79/118/75 6/6/75
f 3/3/76 76/112/76 77/114/76 4/4/76
f 1/1/77 74/108/77 75/110/77 2/2/77
f 8/9/78 81/123/78 74/108/78 1/1/78
f 6/6/79 79/118/79 80/120/79 7/7/79
f 4/4/80 77/114/80 78/116/80 5/5/80
f 80/121/81 88/131/81 89/132/81 81/124/81
f 78/117/82 86/129/82 87/130/82 79/119/82
f 76/113/83 84/127/83 85/128/83 77/115/83
f 74/109/84 82/125/84 83/126/84 75/111/84
f 81/124/85 89/132/85 82/125/85 74/109/85
f 79/119/86 87/130/86 88/131/86 80/121/86
f 77/115/87 85/128/87 86/129/87 78/117/87
f 75/111/88 83/126/88 84/127/88 76/113/88
f 85/128/89 93/139/89 94/141/89 86/129/89
f 83/126/90 91/135/90 92/137/90 84/127/90
f 88/131/91 96/145/91 97/147/91 89/132/91
f 86/129/92 94/141/92 95/143/92 87/130/92
f 84/127/93 92/137/93 93/139/93 85/128/93
f 82/125/94 90/133/94 91/135/94 83/126/94
f 89/132/95 97/147/95 90/133/95 82/125/95
f 87/130/96 95/143/96 96/145/96 88/131/96
f 90/134/97 97/148/97 96/146/97 95/144/97 94/142/97 93/140/97 92/138/97 91/136/97
