# Blender 3.3.1
# www.blender.org
mtllib seta.mtl
o seta
v 0.006891 0.169221 -2.203219
v 0.006891 0.302560 -2.757128
v 1.423976 0.169221 -1.687443
v 1.780022 0.302560 -2.111762
v 2.177991 0.169221 -0.381450
v 2.723485 0.302560 -0.477636
v 1.916124 0.169221 1.103670
v 2.395823 0.302560 1.380624
v 0.760906 0.169221 2.073013
v 0.950354 0.302560 2.593517
v -0.747124 0.169221 2.073013
v -0.936572 0.302560 2.593517
v -1.902342 0.169221 1.103670
v -2.382041 0.302560 1.380624
v -2.164209 0.169221 -0.381450
v -2.709702 0.302560 -0.477636
v -1.410194 0.169221 -1.687443
v -1.766240 0.302560 -2.111762
v 0.006891 0.235332 -1.649268
v 1.067902 0.235332 -1.263091
v 1.632454 0.235332 -0.285258
v 1.436387 0.235332 0.826693
v 0.571443 0.235332 1.552467
v -0.557661 0.235332 1.552467
v -1.422605 0.235332 0.826693
v -1.618672 0.235332 -0.285258
v -1.054120 0.235332 -1.263091
v 0.007206 -0.568766 -0.753893
v 1.729745 0.514101 -2.051844
v 0.006891 0.514101 -2.678911
v 2.646456 0.514101 -0.464053
v 2.328085 0.514101 1.341515
v 0.923602 0.514101 2.520017
v -0.909820 0.514101 2.520017
v -2.314303 0.514101 1.341515
v -2.632674 0.514101 -0.464053
v -1.715963 0.514101 -2.051844
v 1.423059 0.700051 -1.686350
v 0.006891 0.700051 -2.201793
v 2.176586 0.700051 -0.381203
v 1.914889 0.700051 1.102956
v 0.760418 0.700051 2.071672
v -0.746636 0.700051 2.071672
v -1.901107 0.700051 1.102956
v -2.162804 0.700051 -0.381203
v -1.409277 0.700051 -1.686350
v 0.912544 0.808089 -1.077942
v 0.006891 0.808089 -1.407573
v 1.394432 0.808089 -0.243288
v 1.227074 0.808089 0.705846
v 0.488779 0.808089 1.325349
v -0.474997 0.808089 1.325349
v -1.213292 0.808089 0.705846
v -1.380650 0.808089 -0.243288
v -0.898762 0.808089 -1.077942
v 0.450112 0.719758 -0.526839
v 0.006891 0.719758 -0.688158
v 0.685945 0.719758 -0.118364
v 0.604041 0.719758 0.346137
v 0.242724 0.719758 0.649318
v -0.228942 0.719758 0.649318
v -0.590259 0.719758 0.346137
v -0.672163 0.719758 -0.118364
v -0.436330 0.719758 -0.526839
v 0.006891 0.756723 0.001373
v 0.006891 0.246191 -0.544087
v 0.357505 0.246191 -0.416474
v 0.544062 0.246191 -0.093346
v 0.479271 0.246191 0.274100
v 0.193448 0.246191 0.513933
v -0.179666 0.246191 0.513933
v -0.465489 0.246191 0.274100
v -0.530280 0.246191 -0.093346
v -0.343723 0.246191 -0.416474
v 0.527898 -0.408292 -0.607135
v 0.706525 -0.568766 0.109156
v 0.288446 -0.408292 0.750859
v -0.251252 -0.568766 0.711895
v -0.673319 -0.408292 0.400806
v -0.736995 -0.568766 -0.129434
v -0.495593 -0.408292 -0.607135
v 0.006891 -0.389552 -0.270758
v 0.181813 -0.389552 -0.207092
v 0.274886 -0.389552 -0.045883
v 0.242562 -0.389552 0.137436
v 0.099965 -0.389552 0.257089
v -0.086182 -0.389552 0.257089
v -0.228779 -0.389552 0.137436
v -0.261104 -0.389552 -0.045883
v -0.168030 -0.389552 -0.207092
v 0.006891 -2.955583 -0.455569
v 0.300607 -2.955583 -0.348665
v 0.456889 -2.955583 -0.077975
v 0.402612 -2.955583 0.229841
v 0.163173 -2.955583 0.430753
v -0.149391 -2.955583 0.430753
v -0.388830 -2.955583 0.229841
v -0.443107 -2.955583 -0.077975
v -0.286825 -2.955583 -0.348665
vn -0.0000 -0.9952 -0.0976
vn -0.0000 -0.4140 -0.9103
vn 0.5851 -0.4140 -0.6973
vn 0.0627 -0.9952 -0.0747
vn 0.8965 -0.4140 -0.1581
vn 0.0961 -0.9952 -0.0169
vn 0.7883 -0.4140 0.4551
vn 0.0845 -0.9952 0.0488
vn 0.3113 -0.4140 0.8554
vn 0.0334 -0.9952 0.0917
vn -0.3113 -0.4140 0.8554
vn -0.0334 -0.9952 0.0917
vn -0.7883 -0.4140 0.4551
vn -0.0845 -0.9952 0.0488
vn -0.8965 -0.4140 -0.1581
vn -0.0961 -0.9952 -0.0169
vn -0.5851 -0.4140 -0.6973
vn -0.4836 0.6587 -0.5764
vn -0.0000 0.6587 -0.7524
vn -0.0627 -0.9952 -0.0747
vn 0.0661 -0.9971 -0.0381
vn 0.0261 -0.9971 -0.0717
vn -0.0261 -0.9971 -0.0717
vn -0.2489 -0.6920 0.6776
vn 0.2782 -0.7297 0.6246
vn -0.0661 -0.9971 -0.0381
vn -0.0490 -0.9971 0.0584
vn -0.0000 -0.9971 0.0763
vn -0.0751 -0.9971 0.0132
vn 0.0490 -0.9971 0.0584
vn 0.0751 -0.9971 0.0132
vn 0.6930 -0.7173 -0.0725
vn 0.4734 -0.7275 -0.4967
vn -0.4545 -0.7066 -0.5424
vn -0.7088 -0.6942 -0.1249
vn -0.6128 -0.7065 0.3541
vn 0.6250 -0.7194 0.3031
vn 0.6259 -0.4441 -0.6411
vn 0.7052 -0.6997 0.1145
vn 0.4596 -0.8626 -0.2116
vn 0.3888 -0.8027 -0.4523
vn -0.0022 -0.6920 -0.7219
vn 0.2573 0.6587 0.7070
vn 0.6516 0.6587 0.3762
vn 0.2381 0.9615 0.1375
vn 0.0940 0.9615 0.2583
vn -0.7410 0.6587 -0.1307
vn -0.6516 0.6587 0.3762
vn -0.2573 0.6587 0.7070
vn 0.4836 0.6587 -0.5764
vn 0.7410 0.6587 -0.1307
vn 0.2707 0.9615 -0.0477
vn 0.0345 0.9994 -0.0061
vn 0.0303 0.9994 0.0175
vn -0.0000 0.9615 -0.2749
vn 0.1767 0.9615 -0.2106
vn -0.2707 0.9615 -0.0477
vn -0.1767 0.9615 -0.2106
vn -0.0940 0.9615 0.2583
vn -0.2381 0.9615 0.1375
vn 0.0225 0.9994 -0.0268
vn -0.0345 0.9986 0.0412
vn -0.0529 0.9986 0.0093
vn -0.0303 0.9994 0.0175
vn -0.0345 0.9994 -0.0061
vn 0.0120 0.9994 0.0329
vn -0.0000 0.9994 -0.0350
vn -0.0225 0.9994 -0.0268
vn -0.0120 0.9994 0.0329
vn -0.0000 0.9986 0.0537
vn -0.0000 1.0000 -0.0000
vn 0.0345 0.9986 0.0412
vn 0.0184 0.9986 -0.0505
vn 0.0465 0.9986 -0.0269
vn -0.0465 0.9986 -0.0269
vn 0.0529 0.9986 0.0093
vn -0.0184 0.9986 -0.0505
vn 0.3745 -0.4461 0.8128
vn -0.0030 -0.7121 -0.7021
vn -0.5751 -0.4397 -0.6899
vn -0.6935 -0.7101 -0.1220
vn -0.2431 -0.7114 0.6594
vn -0.7764 -0.4400 0.4512
vn 0.3617 -0.8614 0.3565
vn 0.2113 -0.8027 0.5577
vn 0.2709 -0.6105 0.7443
vn 0.6859 -0.6105 0.3960
vn -0.1738 -0.8645 0.4716
vn -0.0020 -0.8646 -0.5025
vn -0.3824 -0.8037 -0.4559
vn -0.4940 -0.8651 -0.0870
vn -0.5151 -0.8037 0.2978
vn -0.0000 -0.6105 -0.7920
vn 0.5091 -0.6105 -0.6067
vn 0.7800 -0.6105 -0.1375
vn -0.2709 -0.6105 0.7443
vn -0.6859 -0.6105 0.3960
vn -0.7800 -0.6105 -0.1375
vn -0.5091 -0.6105 -0.6067
vt 0.831636 0.303486
vt 0.849762 0.334224
vt 0.711761 0.508290
vt 0.739410 0.321125
vt 0.733776 0.356312
vt 0.552576 0.318633
vt 0.657237 0.275947
vt 0.630483 0.299426
vt 0.308736 0.275694
vt 0.622798 0.188812
vt 0.587250 0.189837
vt 0.094356 0.399532
vt 0.651798 0.099795
vt 0.623779 0.077948
vt 0.009723 0.632175
vt 0.730843 0.049698
vt 0.723131 0.015048
vt 0.094396 0.864784
vt 0.824018 0.061355
vt 0.831064 0.063766
vt 0.839874 0.029570
vt 0.849587 0.032996
vt 0.308771 0.988563
vt 0.891405 0.136740
vt 0.925132 0.124654
vt 0.552591 0.945591
vt 0.891513 0.230972
vt 0.925132 0.243112
vt 0.711761 0.755916
vt 0.813883 0.273561
vt 0.744815 0.286802
vt 0.683266 0.252990
vt 0.657461 0.187730
vt 0.679174 0.121044
vt 0.738407 0.083516
vt 0.813200 0.094064
vt 0.808189 0.092382
vt 0.858554 0.148633
vt 0.858699 0.219225
vt 0.117517 0.111431
vt 0.537569 0.346010
vt 0.682663 0.519614
vt 0.314839 0.306310
vt 0.118709 0.419062
vt 0.040929 0.631485
vt 0.117859 0.844199
vt 0.313514 0.957710
vt 0.536391 0.918904
vt 0.682193 0.745886
vt 0.505511 0.402164
vt 0.622004 0.542017
vt 0.326378 0.369929
vt 0.168438 0.460380
vt 0.105578 0.631178
vt 0.167187 0.802413
vt 0.324443 0.893989
vt 0.503799 0.863059
vt 0.621324 0.724054
vt 0.457027 0.485805
vt 0.531093 0.574913
vt 0.343005 0.465166
vt 0.242388 0.522652
vt 0.202253 0.631361
vt 0.241354 0.740418
vt 0.341407 0.798818
vt 0.455613 0.779246
vt 0.530526 0.690809
vt 0.413309 0.560901
vt 0.449337 0.604314
vt 0.357791 0.550804
vt 0.308763 0.578760
vt 0.289169 0.631701
vt 0.308189 0.684879
vt 0.356981 0.713318
vt 0.412597 0.703752
vt 0.449006 0.660695
vt 0.371682 0.632125
vt 0.778549 0.214014
vt 0.056774 0.192501
vt 0.755563 0.218495
vt 0.033275 0.125431
vt 0.735029 0.207304
vt 0.024059 0.053949
vt 0.726469 0.185560
vt 0.081690 0.014194
vt 0.733628 0.163335
vt 0.152918 0.015916
vt 0.753309 0.150811
vt 0.218016 0.046037
vt 0.778195 0.154398
vt 0.776453 0.153789
vt 0.215094 0.117585
vt 0.793296 0.172405
vt 0.197852 0.186482
vt 0.793416 0.195880
vt 0.127735 0.196606
vt 0.112457 0.106297
vt 0.116637 0.097166
vt 0.126380 0.093525
vt 0.131095 0.099093
vt 0.134107 0.105532
vt 0.129427 0.111001
vt 0.123565 0.115020
vt 0.120917 0.107041
vt 0.988919 0.918377
vt 0.119507 0.104949
vt 0.980060 0.981251
vt 0.119807 0.102353
vt 0.969757 0.922055
vt 0.121762 0.100546
vt 0.965863 0.877324
vt 0.124401 0.100456
vt 0.966813 0.846783
vt 0.126347 0.102109
vt 0.971127 0.830492
vt 0.126978 0.104594
vt 0.977362 0.828789
vt 0.125704 0.106858
vt 0.983536 0.842351
vt 0.123343 0.107850
vt 0.987903 0.871802
vt 0.988225 0.090885
vt 0.988919 0.117584
vt 0.983676 0.134142
vt 0.977585 0.141264
vt 0.972474 0.139183
vt 0.968540 0.127459
vt 0.970912 0.113933
vt 0.974246 0.091313
vt 0.982130 0.050247
s 1
usemtl Material.004
f 1/1/1 2/2/2 4/5/3 3/4/4
f 3/4/4 4/5/3 6/8/5 5/7/6
f 5/7/6 6/8/5 8/11/7 7/10/8
f 7/10/8 8/11/7 10/14/9 9/13/10
f 9/13/10 10/14/9 12/17/11 11/16/12
f 11/16/12 12/17/11 14/21/13 13/19/14
f 13/20/14 14/22/13 16/25/15 15/24/16
f 2/3/2 18/29/17 37/49/18 30/42/19
f 15/24/16 16/25/15 18/28/17 17/27/20
f 17/27/20 18/28/17 2/2/2 1/1/1
f 11/16/12 13/19/14 25/37/21 24/35/22
f 23/34/23 24/35/22 71/88/24 70/86/25
f 9/13/10 11/16/12 24/35/22 23/34/23
f 7/10/8 9/13/10 23/34/23 22/33/26
f 1/1/1 3/4/4 20/31/27 19/30/28
f 5/7/6 7/10/8 22/33/26 21/32/29
f 3/4/4 5/7/6 21/32/29 20/31/27
f 17/27/20 1/1/1 19/30/28 27/39/30
f 15/24/16 17/27/20 27/39/30 26/38/31
f 13/20/14 15/24/16 26/38/31 25/36/21
f 20/31/27 21/32/29 68/82/32 67/80/33
f 26/38/31 27/39/30 74/95/34 73/93/35
f 25/36/21 26/38/31 73/93/35 72/90/36
f 22/33/26 23/34/23 70/86/25 69/84/37
f 75/97/38 76/98/39 84/108/40 83/106/41
f 24/35/22 25/37/21 72/91/36 71/88/24
f 21/32/29 22/33/26 69/84/37 68/82/32
f 19/30/28 20/31/27 67/80/33 66/78/42
f 33/45/43 32/44/44 41/53/45 42/54/46
f 18/29/17 16/26/15 36/48/47 37/49/18
f 16/26/15 14/23/13 35/47/48 36/48/47
f 14/23/13 12/18/11 34/46/49 35/47/48
f 12/18/11 10/15/9 33/45/43 34/46/49
f 10/15/9 8/12/7 32/44/44 33/45/43
f 4/6/3 2/3/2 30/42/19 29/41/50
f 8/12/7 6/9/5 31/43/51 32/44/44
f 6/9/5 4/6/3 29/41/50 31/43/51
f 41/53/45 40/52/52 49/61/53 50/62/54
f 29/41/50 30/42/19 39/51/55 38/50/56
f 37/49/18 36/48/47 45/57/57 46/58/58
f 34/46/49 33/45/43 42/54/46 43/55/59
f 31/43/51 29/41/50 38/50/56 40/52/52
f 30/42/19 37/49/18 46/58/58 39/51/55
f 35/47/48 34/46/49 43/55/59 44/56/60
f 32/44/44 31/43/51 40/52/52 41/53/45
f 36/48/47 35/47/48 44/56/60 45/57/57
f 49/61/53 47/59/61 56/68/62 58/70/63
f 45/57/57 44/56/60 53/65/64 54/66/65
f 42/54/46 41/53/45 50/62/54 51/63/66
f 38/50/56 39/51/55 48/60/67 47/59/61
f 46/58/58 45/57/57 54/66/65 55/67/68
f 43/55/59 42/54/46 51/63/66 52/64/69
f 40/52/52 38/50/56 47/59/61 49/61/53
f 39/51/55 46/58/58 55/67/68 48/60/67
f 44/56/60 43/55/59 52/64/69 53/65/64
f 56/68/62 57/69/70 65/77/71
f 48/60/67 55/67/68 64/76/72 57/69/70
f 53/65/64 52/64/69 61/73/73 62/74/74
f 50/62/54 49/61/53 58/70/63 59/71/75
f 54/66/65 53/65/64 62/74/74 63/75/76
f 51/63/66 50/62/54 59/71/75 60/72/77
f 47/59/61 48/60/67 57/69/70 56/68/62
f 55/67/68 54/66/65 63/75/76 64/76/72
f 52/64/69 51/63/66 60/72/77 61/73/73
f 64/76/72 63/75/76 65/77/71
f 61/73/73 60/72/77 65/77/71
f 58/70/63 56/68/62 65/77/71
f 57/69/70 64/76/72 65/77/71
f 62/74/74 61/73/73 65/77/71
f 59/71/75 58/70/63 65/77/71
f 63/75/76 62/74/74 65/77/71
f 60/72/77 59/71/75 65/77/71
f 69/85/37 70/87/25 77/99/78 76/98/39
f 27/39/30 19/30/28 66/78/42 74/95/34
f 66/79/42 67/81/33 75/97/38 28/40/79
f 73/94/35 74/96/34 81/103/80 80/102/81
f 70/87/25 71/89/24 78/100/82 77/99/78
f 67/81/33 68/83/32 76/98/39 75/97/38
f 71/89/24 72/92/36 79/101/83 78/100/82
f 68/83/32 69/85/37 76/98/39
f 74/96/34 66/79/42 28/40/79 81/103/80
f 72/92/36 73/94/35 80/102/81 79/101/83
f 85/111/84 86/113/85 95/126/86 94/125/87
f 77/99/78 78/100/82 87/114/88 86/112/85
f 28/40/79 75/97/38 83/106/41 82/104/89
f 76/98/39 77/99/78 86/112/85 85/110/84
f 80/102/81 81/103/80 90/120/90 89/118/91
f 79/101/83 80/102/81 89/118/91 88/116/92
f 81/103/80 28/40/79 82/104/89 90/120/90
f 76/98/39 85/110/84 84/108/40
f 78/100/82 79/101/83 88/116/92 87/114/88
f 91/122/93 92/123/94 93/124/95 94/125/87 95/126/86 96/127/96 97/128/97 98/129/98 99/130/99
f 88/117/92 89/119/91 98/129/98 97/128/97
f 90/121/90 82/105/89 91/122/93 99/130/99
f 84/109/40 85/111/84 94/125/87 93/124/95
f 87/115/88 88/117/92 97/128/97 96/127/96
f 83/107/41 84/109/40 93/124/95 92/123/94
f 86/113/85 87/115/88 96/127/96 95/126/86
f 89/119/91 90/121/90 99/130/99 98/129/98
f 82/105/89 83/107/41 92/123/94 91/122/93
