# Blender 3.4.1
# www.blender.org
mtllib SmallBush.mtl
o SmallBush
v 1.075081 -0.047440 0.495758
v 0.553178 -0.687334 -0.686837
v 1.101189 0.442967 0.334141
v 1.178619 -0.542810 0.057198
v -0.370001 -0.952601 -0.469637
v 1.289284 -0.146186 -0.351420
v 0.283924 -0.084517 1.243411
v -0.458757 -0.450447 1.267051
v 0.357882 0.022979 -1.091808
v -0.605153 -0.192475 -1.020156
v -0.226971 0.624731 0.855141
v 0.694111 1.041367 0.684232
v 0.929823 0.910067 -0.425415
v -0.249129 1.158879 0.119812
v -1.534107 0.104433 -0.498999
v -0.617085 0.929295 -0.630684
v -1.098033 0.646596 0.469457
v -1.421803 -0.480100 0.192018
v 0.487361 -0.874185 0.524614
vn 0.7961 -0.0718 0.6009
vn 0.3107 -0.8709 0.3806
vn 0.8053 -0.5805 0.1203
vn 0.9155 0.2630 0.3045
vn 0.4019 0.6606 0.6341
vn 0.2439 0.0245 -0.9695
vn -0.3231 0.7542 -0.5716
vn 0.5921 0.6798 -0.4327
vn -0.1816 0.9771 0.1111
vn -0.8998 0.0743 -0.4299
vn -0.6790 0.5762 0.4548
vn -0.1164 0.5603 0.8201
vn 0.9261 -0.1191 -0.3580
vn -0.3084 -0.2160 -0.9264
vn -0.8234 -0.5267 0.2110
vn -0.3023 -0.4015 0.8645
vn 0.3886 0.0893 0.9171
vn 0.3575 -0.7152 -0.6005
vn -0.1987 -0.9198 -0.3384
vt 0.249463 0.227334
vt 0.521416 0.138095
vt 0.428317 0.123333
vt 0.274271 0.288865
vt 0.333603 0.168220
vt 0.613637 0.118096
vt 0.701691 0.087072
vt 0.904190 0.010437
vt 0.374472 0.018767
vt 0.405140 0.235583
vt 0.165126 0.242176
vt 0.088111 0.196872
vt 0.978839 0.170956
vt 0.551033 0.250105
vt 0.641440 0.217962
vt 0.103016 0.302540
vt 0.147403 0.369705
vt 0.239355 0.372778
vt 0.568182 0.354286
vt 0.335192 0.364190
vt 0.444313 0.355274
vt 0.640325 0.431259
vt 0.840486 0.428868
vt 0.075741 0.445614
vt 0.294998 0.433808
vt 0.762999 0.319291
vt 0.769732 0.264621
vt 0.772727 0.393651
vt 0.654699 0.356182
vt 0.017979 0.331382
vt 0.871632 0.325159
vt 0.799878 0.125757
vt 0.853815 0.180930
vt 0.183419 0.093117
vt 0.946270 0.069673
vt 0.341551 0.079833
s 1
usemtl arbusto.001
f 1/1/1 19/36/2 4/5/3
f 1/1/1 3/4/4 12/18/5
f 9/14/6 16/29/7 13/19/8
f 13/19/8 16/29/7 14/22/9
f 15/26/10 17/31/11 16/28/7
f 16/28/7 17/31/11 14/23/9
f 17/30/11 12/17/5 14/24/9
f 17/30/11 11/16/12 12/17/5
f 11/16/12 1/1/1 12/17/5
f 12/18/5 13/20/8 14/25/9
f 12/18/5 3/4/4 13/20/8
f 6/10/13 13/21/8 3/4/4
f 6/10/13 9/14/6 13/21/8
f 9/14/6 10/15/14 16/29/7
f 10/15/14 15/27/10 16/29/7
f 18/33/15 17/31/11 15/27/10
f 8/12/16 11/16/12 17/30/11
f 8/12/16 7/11/17 11/16/12
f 7/11/17 1/1/1 11/16/12
f 4/5/3 3/4/4 1/1/1
f 6/10/13 2/2/18 9/14/6
f 9/14/6 2/2/18 10/15/14
f 10/15/14 5/7/19 15/27/10
f 18/33/15 8/13/16 17/31/11
f 8/12/16 19/34/2 7/11/17
f 7/11/17 19/34/2 1/1/1
f 3/4/4 4/5/3 6/10/13
f 4/5/3 2/3/18 6/10/13
f 5/6/19 10/15/14 2/2/18
f 5/7/19 18/32/15 15/27/10
f 5/8/19 19/35/2 18/33/15
f 19/35/2 8/13/16 18/33/15
f 4/5/3 19/36/2 2/3/18
f 19/36/2 5/9/19 2/3/18
