# Blender 3.4.1
# www.blender.org
mtllib tronco_suelo_nev.mtl
o Circle.003
v -0.542626 -3.123756 -0.457890
v -0.676957 -3.123756 0.130650
v -0.300571 -3.123756 0.602622
v 0.303105 -3.123756 0.602622
v 0.545160 -3.123756 -0.457890
v -0.780566 -3.246315 -0.647640
v 0.001267 -3.246315 -1.024150
v 0.783099 -3.246315 -0.647640
v -0.749177 -3.177392 -0.647512
v -0.945131 -3.247435 0.196675
v 0.435151 -3.246315 0.876819
v -0.542626 2.938239 -0.457890
v 0.001267 3.348156 -1.024150
v -0.973662 3.348156 0.198371
v 0.435151 3.348156 0.876819
v 0.783099 3.348156 -0.647640
v 0.001267 3.225596 -0.719814
v -0.676957 3.225596 0.130650
v -0.300571 3.225596 0.602622
v 0.303105 3.225596 0.602622
v 0.545160 3.225596 -0.457890
v -0.780566 -2.136403 -0.647640
v -0.679194 -1.037325 -0.689184
v -0.960822 0.108211 -0.503964
v -0.960822 1.207289 -0.557237
v -0.916810 2.259911 -0.907509
v 0.001267 -2.136403 -1.024150
v 0.001267 -1.037325 -1.016876
v 0.001267 0.061754 -0.788574
v 0.001267 1.160833 -0.935827
v 0.001267 2.259911 -1.193460
v 0.858256 2.259911 0.198371
v 0.971861 1.160832 -0.194053
v 0.976196 0.299210 -0.281102
v 0.775867 -0.915679 0.047134
v 0.976196 -2.136403 0.198371
v 0.783099 -2.136403 -0.647640
v 0.681728 -1.037325 -0.689184
v 0.783099 0.061754 -0.553659
v 0.896704 1.160833 -0.700463
v 0.783099 2.259911 -0.647640
v -0.973662 -2.136403 0.198371
v -0.751170 -1.037325 0.047134
v -0.877578 0.061754 0.198371
v -1.156511 1.160833 0.223933
v -1.052157 2.400797 0.315310
v 0.917243 3.348156 0.272296
v 0.910531 2.742256 0.198371
v 0.671253 3.225596 0.094559
v 0.948335 3.348156 0.076305
v 0.616050 3.225596 0.210202
v 0.679490 2.796576 0.130650
v -0.822917 3.348156 -0.462086
v -0.551479 3.225596 -0.419102
v -0.467629 3.348156 -0.798342
v -0.857547 2.733270 -0.794472
v -0.460146 3.225596 -0.497610
v -0.425419 3.334383 0.863258
v 0.001267 -3.170839 -0.836729
v 0.001267 -2.083166 -0.719814
v -0.099450 -3.123756 -0.671312
v 0.175779 -3.123756 -0.635774
v -0.432617 -2.531335 0.876819
v -0.321743 -3.246315 0.876819
v -0.489265 -3.246315 0.805785
v 0.670910 -3.123756 0.093057
v 0.976196 -2.550738 0.198371
v 0.937509 -3.246315 0.028871
v 0.679490 -2.875097 0.130650
v 0.650961 -3.123756 0.166425
v 0.894151 -3.246315 0.301252
v 0.896089 -3.246315 0.298822
v -0.569369 -3.203505 0.928147
v -0.995537 -3.230707 0.283066
v -0.466495 3.327184 1.008015
v -1.024599 3.354068 0.249405
v 0.967250 3.317158 0.289816
v 0.465883 3.306277 1.009873
v -1.155790 2.460227 0.417436
v 0.330133 2.375528 1.103093
v 0.979511 2.876788 0.254029
v 0.925374 2.368534 0.269873
v 1.045169 1.209558 -0.143937
v 1.049741 0.300980 -0.235731
v 0.838495 -0.980117 0.110393
v 1.054924 -2.269841 0.269609
v -1.021132 -2.208020 0.288124
v -0.776895 -1.053634 0.128156
v -0.962124 0.078807 0.291500
v -1.256258 1.237783 0.318455
v -0.426538 -2.381903 0.996266
v -0.448414 -2.260374 1.004658
v -0.389091 -1.101399 0.752418
v -0.448414 0.057576 0.922097
v -0.641228 1.216552 0.942967
v -0.645824 2.524092 1.169174
v 0.459426 -3.205362 0.999734
v 0.466646 -2.260374 1.004658
v 0.329374 -0.973123 0.994224
v 0.466646 0.307974 1.016407
v 0.466646 1.216552 0.860310
v -0.281142 -3.154480 0.994937
v 1.063962 -2.712245 0.287925
v 0.929677 -3.190696 0.392089
vn -0.9780 -0.1517 -0.1433
vn 0.7632 -0.1235 0.6343
vn -0.9808 0.1114 -0.1601
vn 0.9749 -0.0000 0.2225
vn -0.3476 0.1950 -0.9171
vn 0.4339 -0.0000 0.9010
vn 0.5069 0.0669 -0.8594
vn 0.9868 -0.0512 -0.1536
vn 0.3978 0.9130 0.0908
vn 0.3136 0.9177 -0.2439
vn -0.0050 0.9178 -0.3969
vn -0.3978 0.9130 0.0908
vn -0.1771 0.9130 0.3677
vn 0.7818 -0.0000 -0.6235
vn 0.5215 0.0884 -0.8487
vn -0.0000 -0.0000 -1.0000
vn 0.0024 0.9847 0.1741
vn -0.9253 -0.1597 0.3440
vn -0.9749 -0.0000 0.2225
vn -0.8712 -0.0205 -0.4905
vn 0.3370 0.9056 0.2576
vn 0.7367 -0.2444 -0.6305
vn 0.3615 0.3464 -0.8656
vn -0.7096 -0.0282 -0.7041
vn -0.1916 -0.9689 0.1566
vn 0.7627 -0.0922 -0.6401
vn 0.0176 0.9997 0.0149
vn 0.9041 -0.1535 0.3988
vn -0.6508 0.1122 -0.7509
vn -0.0312 -0.8719 0.4887
vn 0.4602 0.0950 -0.8827
vn 0.9762 0.1115 -0.1858
vn 0.9641 -0.1443 -0.2231
vn 0.9494 -0.0623 -0.3079
vn 0.9862 0.1241 -0.1096
vn 0.4339 -0.0000 -0.9010
vn 0.4339 0.0060 -0.9010
vn 0.3557 0.1366 -0.9246
vn 0.2673 -0.1413 -0.9532
vn 0.4214 -0.0625 -0.9047
vn -0.4413 -0.0065 -0.8973
vn -0.4339 0.0060 -0.9010
vn -0.3432 0.1284 -0.9304
vn -0.3284 -0.0858 -0.9406
vn -0.3281 -0.2506 -0.9108
vn -0.9739 -0.0270 -0.2253
vn -0.9779 0.1297 -0.1638
vn -0.9838 -0.1791 0.0019
vn -0.9885 -0.1265 -0.0828
vn -0.9853 0.0451 -0.1649
vn -0.3190 0.9130 -0.2544
vn 0.2153 0.1548 -0.9642
vn -0.1161 0.1533 0.9813
vn 0.1771 0.9130 0.3677
vn -0.8206 0.5218 0.2331
vn 0.3290 0.4347 -0.8383
vn -0.2651 0.9136 -0.3084
vn -0.7448 -0.1740 -0.6442
vn 0.7117 0.0314 -0.7018
vn -0.0000 -0.9130 -0.4081
vn 0.3422 -0.9391 0.0330
vn 0.0940 -0.9506 0.2960
vn -0.1771 -0.9130 0.3677
vn -0.3978 -0.9130 0.0908
vn -0.4339 -0.0000 0.9010
vn 0.8454 -0.0571 0.5310
vn -0.7448 -0.0713 0.6635
vn 0.4302 -0.8350 0.3431
vn -0.3190 -0.9130 -0.2544
vn 0.9749 -0.0000 -0.2225
vn -0.7818 -0.0000 -0.6235
vn 0.0717 -0.2171 0.9735
vn 0.3362 -0.9058 -0.2579
vn 0.3965 -0.1787 -0.9005
vn -0.7929 0.2527 0.5545
vn 0.0455 0.1369 0.9895
vn 0.8126 -0.0545 0.5803
vn 0.7751 -0.0140 0.6316
vn 0.8192 0.1489 0.5538
vn 0.8884 -0.0634 0.4547
vn 0.8890 0.0184 0.4576
vn 0.8410 -0.0593 0.5377
vn -0.1534 0.1007 0.9830
vn -0.1852 -0.0712 0.9801
vn -0.0137 0.0640 0.9979
vn 0.0570 -0.1833 0.9814
vn -0.7963 0.0128 0.6048
vn -0.7880 0.2067 0.5799
vn -0.8049 -0.1686 0.5690
vn -0.7358 -0.1681 0.6560
vn -0.7724 -0.0521 0.6330
vn -0.0073 -0.0090 0.9999
vn -0.9343 0.1488 -0.3239
vn 0.5058 -0.3017 -0.8081
vn 0.3824 -0.8775 0.2895
vn -0.8442 -0.0426 -0.5344
vn 0.6870 -0.0083 -0.7266
vt 0.037354 0.989659
vt 0.354883 0.916585
vt 0.985048 0.352981
vt 0.059126 0.989499
vt 0.314868 0.901364
vt 0.263135 0.912203
vt 0.080898 0.989339
vt 0.277644 0.914027
vt 0.271052 0.948349
vt 0.102670 0.989179
vt 0.367687 0.936621
vt 0.146213 0.988859
vt 0.208049 0.645312
vt 0.985481 0.353957
vt 0.449914 0.904973
vt 0.379369 0.961468
vt 0.205548 0.746713
vt 0.218691 0.547617
vt 0.370587 0.905844
vt 0.985393 0.352745
vt 0.976301 0.036682
vt 0.211641 0.446105
vt 0.314759 0.883602
vt 0.257058 0.950149
vt 0.977759 0.273023
vt 0.033130 0.414858
vt 0.647275 0.879079
vt 0.985674 0.662769
vt 0.625833 0.832340
vt 0.989604 0.442293
vt 0.689066 0.914415
vt 0.177768 0.056481
vt 0.169442 0.241900
vt 0.616027 0.983870
vt 0.987409 0.762180
vt 0.572569 0.838626
vt 0.011158 0.387770
vt 0.620647 0.863876
vt 0.163561 0.386650
vt 0.657413 0.911561
vt 0.054702 0.387450
vt 0.646507 0.939480
vt 0.076473 0.387290
vt 0.617239 0.949566
vt 0.098245 0.387130
vt 0.591361 0.867622
vt 0.141789 0.386810
vt 0.340000 0.548126
vt 0.471239 0.561533
vt 0.613023 0.533245
vt 0.744106 0.534738
vt 0.862401 0.561402
vt 0.337489 0.648566
vt 0.465310 0.651944
vt 0.604427 0.657043
vt 0.739558 0.657798
vt 0.866032 0.658996
vt 0.270697 0.369320
vt 0.863622 0.863373
vt 0.405600 0.417546
vt 0.732994 0.821599
vt 0.631758 0.802938
vt 0.512087 0.433568
vt 0.478464 0.829849
vt 0.681676 0.416007
vt 0.333421 0.850739
vt 0.858558 0.385318
vt 0.334801 0.749343
vt 0.465216 0.741570
vt 0.602657 0.760704
vt 0.735035 0.763245
vt 0.861563 0.764573
vt 0.341714 0.446624
vt 0.859668 0.030706
vt 0.472666 0.472664
vt 0.707404 0.016040
vt 0.602064 0.449714
vt 0.554304 0.017871
vt 0.735129 0.440128
vt 0.408645 0.016401
vt 0.271467 0.027307
vt 0.879936 0.426272
vt 0.160521 0.321402
vt 0.568075 0.960806
vt 0.919332 0.862839
vt 0.214317 0.349704
vt 0.550992 0.921976
vt 0.121352 0.386960
vt 0.576342 0.891642
vt 0.989604 0.848224
vt 0.545633 0.879611
vt 0.592546 0.936016
vt 0.116347 0.386997
vt 0.578734 0.914681
vt 0.120316 0.427650
vt 0.989027 0.520684
vt 0.678790 0.878126
vt 0.034365 0.387600
vt 0.653298 0.887040
vt 0.988807 0.602115
vt 0.649205 0.847338
vt 0.916713 0.557142
vt 0.668526 0.856497
vt 0.029628 0.387635
vt 0.639954 0.872993
vt 0.665078 0.959379
vt 0.666288 0.965314
vt 0.172244 0.150212
vt 0.170542 0.134136
vt 0.429362 0.892679
vt 0.985235 0.353810
vt 0.014857 0.891150
vt 0.167260 0.890030
vt 0.984799 0.353451
vt 0.019614 0.989790
vt 0.985107 0.353499
vt 0.396282 0.899644
vt 0.160999 0.988751
vt 0.984838 0.353893
vt 0.199191 0.864764
vt 0.249021 0.892795
vt 0.921215 0.151658
vt 0.226596 0.923388
vt 0.989652 0.194204
vt 0.261288 0.919034
vt 0.977834 0.110712
vt 0.277421 0.896417
vt 0.125832 0.989009
vt 0.302084 0.945167
vt 0.474277 0.977751
vt 0.284768 0.849921
vt 0.495250 0.891511
vt 0.909082 0.381281
vt 0.328094 0.968433
vt 0.203840 0.827874
vt 0.435600 0.949589
vt 0.124268 0.965442
vt 0.488860 0.943405
vt 0.287652 0.979586
vt 0.122791 0.989032
vt 0.490651 0.984781
vt 0.268787 0.976583
vt 0.538530 0.987530
vt 0.983158 0.354298
vt 0.983115 0.354520
vt 0.540951 0.961725
vt 0.962591 0.107545
vt 0.968225 0.046569
vt 0.187353 0.155013
vt 0.186576 0.134194
vt 0.206399 0.143446
vt 0.183835 0.062186
vt 0.167027 0.319330
vt 0.184477 0.239194
vt 0.269260 0.044197
vt 0.277790 0.235977
vt 0.204339 0.336482
vt 0.260295 0.354178
vt 0.401807 0.405471
vt 0.511808 0.422490
vt 0.691154 0.403057
vt 0.874712 0.372151
vt 0.868219 0.041976
vt 0.709441 0.027665
vt 0.549094 0.033465
vt 0.398985 0.031681
vt 0.895077 0.153820
vt 0.879345 0.151319
vt 0.714179 0.136758
vt 0.552201 0.141075
vt 0.406540 0.129880
vt 0.267951 0.137118
vt 0.964902 0.269007
vt 0.865410 0.262134
vt 0.694622 0.247728
vt 0.523861 0.257124
vt 0.409330 0.264538
vt 0.973431 0.199695
vt 0.923070 0.363035
vt 0.972040 0.345814
s 0
usemtl tronco_suelo
f 63/120/1 3/6/1 64/123/1
f 3/8/2 63/121/2 65/127/2
f 26/52/3 46/82/3 14/30/3 53/96/3 56/102/3
f 2/4/4 1/1/4 12/26/4 54/98/4 18/41/4
f 31/57/5 26/52/5 56/102/5 55/100/5 13/28/5
f 1/1/6 61/115/6 60/112/6 17/37/6 57/104/6 12/26/6
f 41/72/7 31/57/7 13/28/7 16/35/7
f 32/59/8 41/72/8 16/35/8 50/90/8 48/85/8
f 18/40/9 54/99/9 53/97/9 14/31/9
f 19/42/10 18/40/10 14/31/10 58/106/10
f 20/44/11 19/42/11 58/107/11 15/34/11
f 21/46/12 49/89/12 50/91/12 16/36/12
f 17/38/13 21/46/13 16/36/13 13/29/13
f 3/7/14 2/4/14 18/41/14 19/43/14
f 34/63/15 33/60/15 83/159/15 84/160/15
f 4/10/16 3/7/16 19/43/16 20/45/16
f 15/33/17 58/108/17 75/149/17 78/154/17
f 63/122/18 64/124/18 102/178/18 91/167/18
f 5/12/19 66/128/19 69/137/19 52/95/19 49/88/19 21/47/19
f 42/74/20 10/21/20 74/148/20 87/163/20
f 47/83/21 15/33/21 78/154/21 77/153/21
f 72/145/22 67/133/22 103/179/22 104/180/22
f 33/60/23 32/58/23 82/158/23 83/159/23
f 14/32/24 46/81/24 79/155/24 76/152/24
f 10/21/25 65/126/25 73/147/25 74/148/25
f 32/58/26 48/86/26 81/157/26 82/158/26
f 58/109/27 14/32/27 76/152/27 75/150/27
f 65/126/28 63/122/28 91/167/28 73/147/28
f 46/81/29 45/80/29 90/166/29 79/155/29
f 64/124/30 11/25/30 97/173/30 102/178/30
f 48/86/31 47/83/31 77/153/31 81/157/31
f 36/66/32 37/68/32 38/69/32 35/64/32
f 35/64/33 38/69/33 39/70/33 34/62/33
f 34/62/34 39/70/34 40/71/34 33/61/34
f 33/61/35 40/71/35 41/72/35 32/59/35
f 8/17/36 7/13/36 27/53/36 37/68/36
f 37/68/37 27/53/37 28/54/37 38/69/37
f 38/69/38 28/54/38 29/55/38 39/70/38
f 39/70/39 29/55/39 30/56/39 40/71/39
f 40/71/40 30/56/40 31/57/40 41/72/40
f 7/13/41 9/18/41 22/48/41 27/53/41
f 27/53/42 22/48/42 23/49/42 28/54/42
f 28/54/43 23/49/43 24/50/43 29/55/43
f 29/55/44 24/50/44 25/51/44 30/56/44
f 30/56/45 25/51/45 26/52/45 31/57/45
f 9/18/46 10/22/46 42/73/46 22/48/46
f 22/48/47 42/73/47 43/75/47 23/49/47
f 23/49/48 43/75/48 44/77/48 24/50/48
f 24/50/49 44/77/49 45/79/49 25/51/49
f 25/51/50 45/79/50 46/82/50 26/52/50
f 47/84/51 51/92/51 20/44/51 15/34/51
f 52/94/52 51/92/52 47/84/52 48/87/52
f 50/91/53 49/89/53 52/94/53 48/87/53
f 55/101/54 57/105/54 17/38/54 13/29/54
f 56/103/55 57/105/55 55/101/55
f 54/99/56 56/103/56 53/97/56
f 12/27/57 57/105/57 56/103/57 54/99/57
f 45/80/58 44/78/58 89/165/58 90/166/58
f 36/67/59 35/65/59 85/161/59 86/162/59
f 4/9/60 11/24/60 64/125/60 3/8/60
f 1/2/61 2/5/61 10/23/61 9/19/61
f 9/20/62 7/14/62 59/111/62 61/116/62 1/3/62
f 7/15/63 8/16/63 5/11/63 62/117/63 59/110/63
f 8/16/64 68/134/64 66/129/64 5/11/64
f 60/113/65 62/118/65 5/12/65 21/47/65 17/39/65
f 61/116/66 59/111/66 60/114/66
f 59/111/67 62/119/67 60/114/67
f 71/144/68 72/145/68 104/180/68
f 70/139/69 71/142/69 11/24/69 4/9/69
f 67/131/70 68/135/70 8/17/70 37/68/70 36/66/70
f 69/137/71 70/140/71 4/10/71 20/45/71 51/93/71 52/95/71
f 69/138/72 66/130/72 68/136/72 67/132/72
f 3/8/73 65/127/73 10/23/73 2/5/73
f 70/141/74 69/138/74 67/132/74 72/146/74 71/143/74
f 79/155/75 96/172/75 75/150/75 76/152/75
f 96/172/76 80/156/76 78/154/76 75/151/76
f 80/156/77 82/158/77 81/157/77 77/153/77 78/154/77
f 97/173/78 104/180/78 103/179/78 86/162/78 98/174/78
f 98/174/79 86/162/79 85/161/79 99/175/79
f 99/175/80 85/161/80 84/160/80 100/176/80
f 100/176/81 84/160/81 83/159/81 101/177/81
f 101/177/82 83/159/82 82/158/82 80/156/82
f 92/168/83 98/174/83 99/175/83 93/169/83
f 93/169/84 99/175/84 100/176/84 94/170/84
f 94/170/85 100/176/85 101/177/85 95/171/85
f 95/171/86 101/177/86 80/156/86 96/172/86
f 74/148/87 73/147/87 91/167/87 92/168/87 87/163/87
f 87/163/88 92/168/88 93/169/88 88/164/88
f 88/164/89 93/169/89 94/170/89 89/165/89
f 89/165/90 94/170/90 95/171/90 90/166/90
f 90/166/91 95/171/91 96/172/91 79/155/91
f 91/167/92 102/178/92 97/173/92 98/174/92 92/168/92
f 43/76/93 42/74/93 87/163/93 88/164/93
f 35/65/94 34/63/94 84/160/94 85/161/94
f 11/25/95 71/144/95 104/180/95 97/173/95
f 44/78/96 43/76/96 88/164/96 89/165/96
f 67/133/97 36/67/97 86/162/97 103/179/97
