# Blender 3.3.1
# www.blender.org
mtllib fuego_torch_pared.mtl
o Cube
v -2.889971 2.797704 2.185312
v -1.802500 2.574754 -3.280809
v 2.309181 3.961296 1.528565
v 2.391078 2.664051 -2.853822
v -2.419194 0.470080 2.247766
v -3.496452 3.124234 -0.653377
v -2.364375 -0.500502 -2.393237
v 0.000000 2.651814 -3.533982
v 2.238903 -0.447993 -2.142152
v 2.412231 0.511811 2.447310
v 0.000000 5.818929 1.108324
v 0.000000 5.447096 -1.139162
v -0.003973 0.605922 2.897319
v 2.870118 0.000137 0.000657
v -0.003973 -0.613655 -2.934295
v -2.958075 0.000137 0.000657
v -2.939087 2.124984 2.364755
v -1.651475 -1.899096 -1.284633
v 1.595912 2.556986 -3.365768
v 1.644927 -1.875051 -1.169659
v 1.985483 5.824161 0.412420
v 1.644927 -1.224311 1.941965
v -1.595912 3.079373 2.616881
v -1.651475 -1.238778 1.872788
v -3.268087 3.450922 0.908740
v -2.698349 0.496381 -3.057501
v -0.914068 4.716946 -3.590406
v 2.536806 1.046018 -2.794503
v 2.722825 2.841377 -2.005905
v 2.706032 2.154012 2.503557
v 1.172305 4.327340 1.617901
v 0.000000 3.575797 0.580580
v 0.000000 4.291345 -2.527895
v -1.595912 5.856697 -1.224823
v -1.330793 0.574349 2.746345
v 1.322847 0.543347 2.598104
v -0.003274 -1.120356 2.439044
v 0.000000 2.287445 3.141588
v 2.801331 0.271742 1.299380
v 2.649667 -0.249008 -1.190672
v 2.177783 -1.561919 0.327637
v 1.322847 -0.569309 -2.722247
v -1.181949 -0.569309 -2.722247
v -0.003274 -1.984410 -1.692576
v 0.000000 0.827582 -3.838992
v -2.865140 -0.271467 -1.298067
v -2.894397 0.271742 1.299380
v -2.246568 -1.561919 0.327637
v -3.663626 1.562117 -0.326689
v -3.464082 1.888806 1.235428
v -2.105239 -1.357735 1.303976
v -2.078868 -1.766102 -0.648702
v -1.381568 0.878572 -3.595176
v -1.000735 -1.988709 -1.713133
v 0.994187 -1.982748 -1.684631
v 3.112863 1.279908 -1.676119
v 1.991649 -1.766102 -0.648702
v 2.051580 -1.357735 1.303976
v 1.595912 2.215494 2.797545
v 0.994187 -1.153551 2.280315
v -1.000735 -1.140662 2.341948
v -2.265079 2.209919 -2.602246
v 1.595912 5.495586 -2.779741
v 1.249321 4.316474 0.727725
v -1.595912 6.855610 0.196711
v -1.595912 2.251141 2.967995
v 3.366210 1.888806 1.235428
v 1.595912 0.913785 -3.426799
v -3.430442 1.235428 -1.888806
v 0.000000 4.024513 -1.656873
v -0.797956 3.124234 -0.653377
v -1.302825 4.520516 -1.984183
v -0.797956 2.970768 -2.251721
v 1.842873 3.502837 -1.547774
v 0.923911 3.767612 -3.172436
v 1.144872 3.205397 -0.265283
v 0.451365 5.036991 0.577042
v -2.259776 4.037632 -0.029179
v -0.878848 5.406031 0.456841
v -0.797956 4.867500 -0.202731
v 0.797956 4.072979 -0.036571
v -0.797956 3.588338 -1.565655
v 0.797956 4.518393 -1.760159
vn -0.6883 0.3634 -0.6278
vn 0.5478 0.0249 -0.8363
vn 0.8467 0.3790 0.3735
vn -0.3885 0.3184 0.8647
vn -0.7539 0.4669 0.4622
vn -0.5995 0.1833 -0.7791
vn -0.9304 0.2672 -0.2508
vn -0.8537 0.3242 -0.4077
vn -0.4296 -0.3292 0.8409
vn 0.1787 -0.2338 0.9557
vn 0.2500 0.4831 0.8391
vn 0.7918 -0.4225 0.4411
vn 0.9040 -0.4196 -0.0818
vn 0.5153 -0.6003 -0.6117
vn -0.0796 -0.6290 -0.7733
vn 0.0505 -0.0049 -0.9987
vn -0.7659 -0.5735 -0.2907
vn -0.8989 -0.4055 0.1658
vn -0.9849 0.1367 0.1063
vn -0.9230 -0.3508 0.1583
vn -0.8384 -0.2867 0.4636
vn -0.9093 0.1843 0.3732
vn -0.7398 -0.4046 0.5376
vn -0.8967 -0.4426 -0.0102
vn -0.1682 -0.5248 -0.8344
vn -0.2103 -0.5529 -0.8063
vn -0.4448 0.0553 -0.8939
vn -0.3421 -0.6315 -0.6958
vn 0.0851 -0.6371 -0.7660
vn 0.9415 -0.3194 -0.1074
vn 0.8722 -0.3487 -0.3429
vn 0.8956 0.0978 -0.4339
vn 0.8070 -0.5026 -0.3100
vn 0.9057 -0.3926 0.1597
vn 0.2063 -0.1451 0.9677
vn 0.1926 -0.1082 0.9753
vn 0.2377 0.5057 0.8293
vn -0.1657 0.1626 -0.9727
vn 0.2420 -0.2986 0.9232
vn -0.3948 0.0718 -0.9159
vn -0.0972 -0.2508 0.9631
vn 0.9429 0.3330 -0.0084
vn -0.4458 0.5258 0.7245
vn -0.7098 0.3681 -0.6006
vn 0.5177 0.1673 -0.8391
vn -0.2857 0.5012 -0.8168
vn -0.2754 0.6893 0.6701
vn 0.3491 0.6341 0.6900
vn 0.6177 0.4244 0.6621
vn 0.1056 0.2365 -0.9659
vn -0.7304 0.2238 -0.6453
vn -0.3912 -0.1838 0.9018
vn -0.1059 -0.1447 0.9838
vn -0.0373 0.4986 0.8660
vn 0.8743 -0.2293 0.4277
vn 0.8042 0.1626 -0.5717
vn 0.5334 -0.4334 -0.7264
vn 0.2032 -0.4868 -0.8496
vn 0.1782 0.1033 -0.9786
vn -0.8529 -0.4440 -0.2746
vn -0.9211 -0.3885 -0.0237
vn -0.6824 0.3439 -0.6450
vn 0.1463 0.6694 0.7284
vn 0.8841 0.4093 -0.2257
vn 0.5909 0.7590 0.2732
vn 0.6630 0.5051 -0.5525
vn 0.7974 0.5842 0.1510
vn -0.7473 0.6483 -0.1460
vn 0.3700 0.2738 -0.8878
vn -0.4672 0.7919 0.3933
vn -0.4845 0.8364 0.2562
vn -0.2824 0.3281 -0.9015
vn 0.6555 0.4542 0.6033
vn 0.8803 0.2576 -0.3983
vn 0.0700 0.1951 -0.9783
vn 0.1151 0.2186 -0.9690
vn 0.1828 0.8748 -0.4487
vn -0.7576 0.3414 -0.5564
vn 0.8256 0.3769 0.4200
vn -0.8559 0.2935 -0.4257
vn 0.6847 0.3712 0.6272
vn -0.7956 0.1387 -0.5897
vn 0.7562 0.6493 -0.0811
vn -0.6760 0.2071 -0.7072
vn -0.0000 -0.9788 0.2047
vn -0.5620 0.8223 -0.0898
vn -0.6643 0.5645 0.4900
vn -0.9842 0.0715 -0.1619
vn -0.3700 0.5013 0.7822
vn -0.1084 0.3880 0.9153
vn 0.2033 0.5082 0.8369
vn 0.9390 -0.3234 0.1174
vn -0.8775 0.3628 -0.3137
vn 0.9327 0.3492 0.0902
vn 0.5662 0.6800 0.4659
vn 0.6720 0.5520 0.4937
vn 0.7356 0.3109 0.6019
vn 0.7677 0.4510 0.4553
vn 0.3669 0.1209 -0.9224
vn -0.3943 0.3872 -0.8334
vn -0.3162 0.3244 -0.8915
vt 0.240371 0.146767
vt 0.208126 0.764354
vt 0.262083 0.316363
vt 0.212042 0.636782
vt 0.338493 0.128285
vt 0.143183 0.053237
vt 0.097977 0.878256
vt 0.313150 0.840796
vt 0.209106 0.714786
vt 0.334167 0.607829
vt 0.350358 0.328421
vt 0.227586 0.273469
vt 0.097415 0.679739
vt 0.359368 0.238868
vt 0.307608 0.469199
vt 0.342372 0.724513
vt 0.337231 0.000085
vt 0.287420 0.995819
vt 0.266949 0.140220
vt 0.438829 0.863566
vt 0.611687 0.023539
vt 0.217928 0.667291
vt 0.448537 0.592556
vt 0.608839 0.158996
vt 0.247631 0.327029
vt 0.452702 0.343075
vt 0.478277 0.160902
vt 0.247091 0.210031
vt 0.444714 0.122322
vt 0.479203 0.025473
vt 0.188066 0.119467
vt 0.260988 0.824339
vt 0.196740 0.743191
vt 0.263035 0.624670
vt 0.195387 0.609877
vt 0.303129 0.317450
vt 0.248504 0.296755
vt 0.000085 0.618646
vt 0.170728 0.267728
vt 0.155223 0.692666
vt 0.091467 0.765456
vt 0.350525 0.182959
vt 0.361863 0.290604
vt 0.452245 0.233755
vt 0.456431 0.093513
vt 0.300737 0.247618
vt 0.342935 0.376930
vt 0.326446 0.551055
vt 0.441454 0.469943
vt 0.546333 0.181798
vt 0.340585 0.661482
vt 0.334826 0.780806
vt 0.456261 0.730189
vt 0.629793 0.090983
vt 0.271632 0.719175
vt 0.303103 0.910376
vt 0.335834 0.074835
vt 0.444853 0.014280
vt 0.420562 0.999915
vt 0.543680 0.000085
vt 0.230343 0.008274
vt 0.166781 0.955061
vt 0.253803 0.089019
vt 0.440238 0.076696
vt 0.502798 0.006488
vt 0.428114 0.923176
vt 0.584748 0.006375
vt 0.265232 0.763718
vt 0.445929 0.804225
vt 0.630057 0.050003
vt 0.455093 0.655074
vt 0.630057 0.131954
vt 0.246861 0.575151
vt 0.443217 0.546676
vt 0.587188 0.173555
vt 0.445771 0.392702
vt 0.505290 0.177213
vt 0.305809 0.290673
vt 0.456261 0.295891
vt 0.463690 0.134382
vt 0.447411 0.172404
vt 0.459908 0.052487
vt 0.192372 0.794455
vt 0.169394 0.655269
vt 0.229307 0.310022
vt 0.170516 0.183463
vt 0.282033 0.198393
vt 0.296033 0.344099
vt 0.270857 0.665119
vt 0.211222 0.878649
vt 0.132045 0.697076
vt 0.114700 0.731052
vt 0.126085 0.758538
vt 0.161992 0.738433
vt 0.156609 0.615286
vt 0.182457 0.676317
vt 0.104085 0.564201
vt 0.193451 0.357134
vt 0.218528 0.285486
vt 0.133892 0.146226
vt 0.040380 0.811611
vt 0.163091 0.200941
vt 0.138118 0.208985
vt 0.053416 0.705691
vt 0.193560 0.315998
vt 0.070039 0.601839
vt 0.129570 0.733269
vt 0.133832 0.663165
s 0
usemtl Material.001
f 69/90/1 34/41/1 62/83/1
f 68/89/2 19/22/2 4/4/2 28/34/2
f 67/88/3 21/25/3 3/3/3 30/36/3
f 66/87/4 23/28/4 1/1/4 17/19/4
f 65/86/5 25/31/5 1/1/5
f 77/99/6 32/39/6 11/12/6
f 82/107/7 71/92/7 80/104/7 12/13/7
f 26/32/8 62/83/8 2/2/8
f 61/81/9 35/42/9 5/5/9 24/29/9
f 60/79/10 36/43/10 13/14/10 37/44/10
f 31/37/11 11/12/11 38/46/11
f 58/76/12 39/47/12 10/11/12 22/26/12
f 57/74/13 40/48/13 14/15/13 41/49/13
f 55/71/14 42/51/14 9/10/14 20/23/14
f 54/69/15 43/52/15 15/16/15 44/53/15
f 53/68/16 27/33/16 8/9/16
f 52/66/17 46/56/17 7/8/17 18/20/17
f 51/64/18 47/57/18 16/17/18 48/58/18
f 50/63/19 25/31/19 6/6/19 49/61/19
f 47/57/20 50/63/20 49/61/20 16/17/20
f 5/5/21 17/19/21 50/63/21 47/57/21
f 17/19/22 1/1/22 25/31/22 50/63/22
f 24/29/23 5/5/23 47/57/23 51/64/23
f 48/59/24 16/18/24 46/56/24 52/66/24
f 43/52/25 53/68/25 45/55/25 15/16/25
f 7/8/26 26/32/26 53/68/26 43/52/26
f 2/2/27 27/33/27 53/68/27
f 18/20/28 7/8/28 43/52/28 54/69/28
f 44/53/29 15/16/29 42/51/29 55/71/29
f 40/48/30 56/73/30 14/15/30
f 9/10/31 28/34/31 56/73/31 40/48/31
f 28/34/32 4/4/32 29/35/32 56/73/32
f 20/23/33 9/10/33 40/48/33 57/74/33
f 41/49/34 14/15/34 39/47/34 58/76/34
f 36/43/35 59/78/35 38/46/35 13/14/35
f 10/11/36 30/36/36 59/78/36 36/43/36
f 30/36/37 3/3/37 31/37/37 59/78/37
f 45/55/38 53/68/38 8/9/38
f 22/26/39 10/11/39 36/43/39 60/79/39
f 26/32/40 2/2/40 53/68/40
f 37/44/41 13/14/41 35/42/41 61/81/41
f 82/107/42 72/93/42 34/41/42 71/92/42
f 27/33/43 62/83/43 73/94/43
f 34/41/44 69/90/44 6/7/44
f 4/4/45 19/22/45 63/84/45
f 8/9/46 33/40/46 75/96/46
f 21/25/47 64/85/47 31/37/47 3/3/47
f 12/13/48 80/104/48 32/38/48
f 79/102/49 65/86/49 23/28/49
f 80/103/50 78/100/50 65/86/50 79/102/50
f 78/100/51 25/31/51 65/86/51
f 35/42/52 66/87/52 17/19/52 5/5/52
f 13/14/53 38/46/53 66/87/53 35/42/53
f 38/46/54 11/12/54 23/28/54
f 39/47/55 67/88/55 30/36/55 10/11/55
f 14/15/56 21/25/56 67/88/56
f 42/51/57 68/89/57 28/34/57 9/10/57
f 15/16/58 45/55/58 68/89/58 42/51/58
f 45/55/59 8/9/59 19/22/59 68/89/59
f 46/56/60 69/90/60 26/32/60 7/8/60
f 16/18/61 49/62/61 69/90/61 46/56/61
f 62/83/62 26/32/62 69/90/62
f 32/38/63 81/106/63 12/13/63
f 79/102/64 32/39/64 80/103/64
f 71/92/65 34/41/65 78/101/65 80/104/65
f 76/98/66 81/105/66 77/99/66 64/85/66
f 12/13/67 81/106/67 83/108/67
f 33/40/68 73/94/68 82/107/68 70/91/68
f 73/94/69 62/83/69 72/93/69 82/107/69
f 63/84/70 75/96/70 83/108/70 74/95/70
f 33/40/71 70/91/71 83/108/71
f 70/91/72 82/107/72 12/13/72
f 29/35/73 63/84/73 74/95/73
f 29/35/74 4/4/74 63/84/74
f 63/84/75 19/22/75 75/96/75
f 19/22/76 8/9/76 75/96/76
f 75/96/77 33/40/77 83/108/77
f 33/40/78 8/9/78 73/94/78
f 8/9/79 27/33/79 73/94/79
f 27/33/80 2/2/80 62/83/80
f 32/39/81 79/102/81 23/28/81
f 11/12/82 32/39/82 23/28/82
f 64/85/83 77/99/83 11/12/83 31/37/83
f 77/99/84 81/105/84 32/39/84
f 51/65/85 48/60/85 52/67/85 18/21/85 54/70/85 44/54/85 55/72/85 20/24/85 57/75/85 41/50/85 58/77/85 22/27/85 60/80/85 37/45/85 61/82/85 24/30/85
f 6/6/86 25/31/86 78/100/86
f 34/41/87 6/7/87 78/101/87
f 6/7/88 69/90/88 49/62/88
f 23/28/89 65/86/89 1/1/89
f 66/87/90 38/46/90 23/28/90
f 59/78/91 31/37/91 38/46/91
f 39/47/92 14/15/92 67/88/92
f 21/25/93 76/98/93 64/85/93
f 81/106/94 76/97/94 83/108/94
f 83/108/95 76/97/95 74/95/95
f 74/95/96 76/97/96 29/35/96
f 56/73/97 29/35/97 76/97/97
f 56/73/98 76/97/98 14/15/98
f 76/98/99 21/25/99 14/15/99
f 34/41/100 72/93/100 62/83/100
f 83/108/101 70/91/101 12/13/101
